{
.appVersion = "3108";
.formatVersion = 3;
axes = (
{
name = Weight;
tag = wght;
}
);
customParameters = (
{
name = "Variable Font Origin";
value = m01;
}
);
date = "2022-02-21 08:08:28 +0000";
familyName = "QLD Beginners";
fontMaster = (
{
axesValues = (
300
);
guides = (
{
pos = (632,650);
},
{
pos = (416,175);
},
{
pos = (170,350);
},
{
pos = (127,568);
}
);
iconName = Light;
id = m01;
metricValues = (
{
over = 4;
pos = 700;
},
{
over = 4;
pos = 650;
},
{
over = 4;
pos = 350;
},
{
over = -4;
},
{
over = -4;
pos = -300;
},
{
over = -16;
pos = 10;
}
);
name = "QLD Beginners Light";
stemValues = (
45,
50
);
userData = {
GSCornerRadius = 15;
};
visible = 1;
},
{
axesValues = (
800
);
guides = (
{
pos = (632,650);
},
{
pos = (416,175);
},
{
pos = (170,350);
},
{
pos = (127,568);
}
);
iconName = Bold_SemiExtended;
id = m002;
metricValues = (
{
over = 4;
pos = 700;
},
{
over = 4;
pos = 650;
},
{
over = 4;
pos = 350;
},
{
over = -4;
},
{
over = -4;
pos = -300;
},
{
over = -16;
pos = 10;
}
);
name = "QLD Beginners Heavy";
stemValues = (
90,
100
);
userData = {
GSCornerRadius = 15;
GSOffsetHorizontal = 25;
GSOffsetKeepCompatible = 1;
GSOffsetVertical = 22;
};
}
);
glyphs = (
{
glyphname = A;
lastChange = "2022-02-24 14:12:11 +0000";
layers = (
{
layerId = m01;
name = "QBeginners Light";
shapes = (
{
closed = 1;
nodes = (
(44,0,o),
(49,7,o),
(58,25,cs),
(367,619,ls),
(375,635,o),
(367,650,o),
(346,650,cs),
(324,650,o),
(323,639,o),
(316,625,cs),
(7,32,ls),
(-3,12,o),
(9,0,o),
(24,0,cs)
);
},
{
closed = 1;
nodes = (
(374,305,l),
(369,350,l),
(200,350,l),
(178,305,l)
);
},
{
closed = 1;
nodes = (
(417,0,o),
(423,11,o),
(422,26,cs),
(370,631,l),
(323,613,l),
(373,24,ls),
(374,14,o),
(377,0,o),
(399,0,c)
);
}
);
visible = 1;
width = 479;
},
{
layerId = m002;
name = "QBeginners Light";
shapes = (
{
closed = 1;
nodes = (
(109,0,o),
(124,8,o),
(137,33,cs),
(428,591,ls),
(445,623,o),
(422,650,o),
(386,650,cs),
(352,650,o),
(344,636,o),
(335,616,c),
(45,60,ls),
(26,24,o),
(52,0,o),
(82,0,cs)
);
},
{
closed = 1;
nodes = (
(435,270,l),
(427,350,l),
(229,350,l),
(186,270,l)
);
},
{
closed = 1;
nodes = (
(465,0,o),
(485,15,o),
(482,46,cs),
(433,619,l),
(340,584,l),
(386,40,ls),
(388,16,o),
(406,0,o),
(437,0,cs)
);
}
);
width = 567;
}
);
unicode = 65;
},
{
glyphname = B;
lastChange = "2022-02-24 21:33:16 +0000";
layers = (
{
layerId = m01;
shapes = (
{
closed = 1;
nodes = (
(321,0,o),
(380,31,o),
(400,144,cs),
(422,270,o),
(284,350,o),
(105,350,c),
(98,300,l),
(266,300,o),
(366,239,o),
(351,151,cs),
(336,66,o),
(262,45,o),
(62,45,c),
(55,0,l)
);
},
{
closed = 1;
nodes = (
(68,0,o),
(76,9,o),
(80,29,cs),
(184,619,ls),
(188,641,o),
(182,650,o),
(163,650,cs),
(146,650,o),
(138,643,o),
(134,623,cs),
(30,31,ls),
(27,14,o),
(37,0,o),
(54,0,cs)
);
},
{
closed = 1;
nodes = (
(387,300,o),
(439,367,o),
(458,475,cs),
(479,593,o),
(375,650,o),
(168,650,c),
(159,605,l),
(342,605,o),
(424,565,o),
(408,477,cs),
(395,405,o),
(356,350,o),
(121,350,c),
(113,300,l)
);
}
);
width = 445;
},
{
layerId = m002;
shapes = (
{
closed = 1;
nodes = (
(408,0,o),
(465,26,o),
(487,151,cs),
(512,292,o),
(355,361,o),
(168,358,c),
(154,282,l),
(331,282,o),
(404,241,o),
(391,168,cs),
(381,110,o),
(348,95,o),
(142,96,c),
(127,0,l)
);
},
{
closed = 1;
nodes = (
(159,0,o),
(183,11,o),
(189,44,cs),
(287,599,ls),
(295,643,o),
(262,650,o),
(238,650,cs),
(214,650,o),
(193,642,o),
(187,609,cs),
(89,53,ls),
(84,23,o),
(106,0,o),
(136,0,cs)
);
},
{
closed = 1;
nodes = (
(460,282,o),
(521,344,o),
(542,462,cs),
(566,597,o),
(437,650,o),
(230,650,c),
(213,559,l),
(394,562,o),
(455,529,o),
(444,467,cs),
(435,413,o),
(417,355,o),
(183,358,c),
(170,282,l)
);
}
);
width = 571;
}
);
metricLeft = N;
metricRight = O;
unicode = 66;
},
{
glyphname = C;
lastChange = "2022-02-24 21:33:16 +0000";
layers = (
{
layerId = m01;
shapes = (
{
closed = 1;
nodes = (
(258,-4,o),
(325,46,o),
(407,169,cs),
(428,200,o),
(429,206,o),
(429,212,cs),
(429,224,o),
(419,232,o),
(407,232,cs),
(391,232,o),
(383,223,o),
(366,198,cs),
(288,87,o),
(239,46,o),
(177,46,cs),
(114,46,o),
(108,99,o),
(108,137,cs),
(108,210,o),
(128,310,o),
(135,349,cs),
(158,468,o),
(186,600,o),
(423,600,cs),
(477,600,o),
(483,601,o),
(493,607,cs),
(504,613,o),
(506,635,o),
(495,642,cs),
(486,648,o),
(477,650,o),
(424,650,cs),
(151,650,o),
(110,498,o),
(82,338,cs),
(78,318,o),
(58,203,o),
(58,138,cs),
(58,70,o),
(80,-4,o),
(178,-4,cs)
);
}
);
width = 463;
},
{
layerId = m002;
shapes = (
{
closed = 1;
nodes = (
(335,-4,o),
(413,47,o),
(493,166,cs),
(517,201,o),
(518,210,o),
(518,219,cs),
(518,243,o),
(496,259,o),
(472,259,cs),
(449,259,o),
(436,248,o),
(414,218,cs),
(343,115,o),
(305,85,o),
(255,85,cs),
(219,85,o),
(213,113,o),
(213,148,cs),
(213,214,o),
(231,308,o),
(237,343,cs),
(258,454,o),
(283,561,o),
(487,561,cs),
(542,561,o),
(552,563,o),
(566,571,cs),
(592,587,o),
(594,623,o),
(569,641,cs),
(556,650,o),
(544,650,o),
(488,650,cs),
(212,650,o),
(162,494,o),
(135,341,cs),
(131,321,o),
(113,212,o),
(113,149,cs),
(113,80,o),
(136,-4,o),
(249,-4,cs)
);
}
);
width = 591;
}
);
metricLeft = O;
metricRight = O;
unicode = 67;
},
{
glyphname = D;
lastChange = "2022-02-24 21:33:16 +0000";
layers = (
{
layerId = m01;
shapes = (
{
closed = 1;
nodes = (
(116,0,ls),
(308,0,o),
(440,128,o),
(479,351,cs),
(509,521,o),
(388,650,o),
(199,650,cs),
(165,650,l),
(160,600,l),
(203,600,ls),
(362,600,o),
(453,489,o),
(429,350,cs),
(395,155,o),
(278,50,o),
(116,50,cs),
(63,50,l),
(53,0,l)
);
},
{
closed = 1;
nodes = (
(74,0,o),
(78,15,o),
(80,25,cs),
(184,619,ls),
(187,637,o),
(185,650,o),
(164,650,cs),
(142,650,o),
(137,639,o),
(134,623,cs),
(29,27,ls),
(26,12,o),
(34,0,o),
(52,0,cs)
);
}
);
width = 488;
},
{
layerId = m002;
shapes = (
{
closed = 1;
nodes = (
(211,0,ls),
(404,0,o),
(533,129,o),
(572,351,cs),
(602,523,o),
(480,650,o),
(288,650,cs),
(236,650,l),
(228,562,l),
(293,562,ls),
(431,562,o),
(497,473,o),
(475,350,cs),
(444,177,o),
(354,89,o),
(211,89,cs),
(151,89,l),
(133,0,l)
);
},
{
closed = 1;
nodes = (
(162,0,o),
(183,15,o),
(188,41,cs),
(287,600,ls),
(294,641,o),
(267,650,o),
(239,650,cs),
(207,650,o),
(192,636,o),
(187,609,cs),
(88,49,ls),
(83,21,o),
(103,0,o),
(135,0,cs)
);
}
);
width = 621;
}
);
metricLeft = N;
metricRight = O;
unicode = 68;
},
{
glyphname = E;
lastChange = "2022-02-24 21:33:16 +0000";
layers = (
{
layerId = m01;
shapes = (
{
closed = 1;
nodes = (
(74,0,o),
(78,15,o),
(80,25,c),
(184,619,l),
(187,637,o),
(185,650,o),
(164,650,cs),
(142,650,o),
(137,639,o),
(134,623,c),
(29,27,l),
(26,12,o),
(34,0,o),
(52,0,cs)
);
},
{
closed = 1;
nodes = (
(380,0,ls),
(400,0,o),
(406,14,o),
(406,26,cs),
(406,38,o),
(400,50,o),
(380,50,cs),
(61,50,l),
(53,0,l)
);
},
{
closed = 1;
nodes = (
(406,305,ls),
(426,305,o),
(432,315,o),
(432,327,cs),
(432,339,o),
(426,350,o),
(406,350,cs),
(109,350,l),
(101,305,l)
);
},
{
closed = 1;
nodes = (
(488,600,ls),
(508,600,o),
(514,613,o),
(514,625,cs),
(514,637,o),
(508,650,o),
(488,650,cs),
(165,650,l),
(156,600,l)
);
}
);
width = 490;
},
{
layerId = m002;
shapes = (
{
closed = 1;
nodes = (
(157,0,o),
(185,18,o),
(189,40,cs),
(287,597,ls),
(294,638,o),
(268,650,o),
(240,650,cs),
(209,650,o),
(192,639,o),
(187,611,cs),
(88,50,ls),
(83,22,o),
(95,0,o),
(125,0,cs)
);
},
{
closed = 1;
nodes = (
(449,0,ls),
(479,0,o),
(499,16,o),
(499,42,cs),
(499,66,o),
(483,80,o),
(451,80,cs),
(146,80,l),
(132,0,l)
);
},
{
closed = 1;
nodes = (
(467,265,ls),
(499,265,o),
(521,284,o),
(521,308,cs),
(521,334,o),
(502,350,o),
(472,350,cs),
(194,350,l),
(178,265,l)
);
},
{
closed = 1;
nodes = (
(548,555,ls),
(578,555,o),
(599,580,o),
(599,606,cs),
(599,631,o),
(581,650,o),
(550,650,cs),
(247,650,l),
(231,555,l)
);
}
);
width = 634;
}
);
metricLeft = N;
metricRight = N;
unicode = 69;
},
{
glyphname = F;
lastChange = "2022-02-24 21:33:16 +0000";
layers = (
{
layerId = m01;
shapes = (
{
closed = 1;
nodes = (
(74,0,o),
(78,15,o),
(80,25,cs),
(184,619,ls),
(187,637,o),
(185,650,o),
(164,650,cs),
(142,650,o),
(137,639,o),
(134,623,cs),
(29,27,ls),
(26,12,o),
(34,0,o),
(52,0,cs)
);
},
{
closed = 1;
nodes = (
(405,305,ls),
(425,305,o),
(431,315,o),
(431,327,cs),
(431,339,o),
(425,350,o),
(405,350,cs),
(116,350,l),
(109,305,l)
);
},
{
closed = 1;
nodes = (
(488,600,ls),
(508,600,o),
(514,613,o),
(514,625,cs),
(514,637,o),
(508,650,o),
(488,650,cs),
(165,650,l),
(158,600,l)
);
}
);
width = 450;
},
{
layerId = m002;
shapes = (
{
closed = 1;
nodes = (
(162,0,o),
(184,21,o),
(189,51,cs),
(285,597,ls),
(292,638,o),
(266,650,o),
(238,650,cs),
(207,650,o),
(192,638,o),
(187,610,cs),
(89,54,ls),
(84,27,o),
(92,0,o),
(124,0,cs)
);
},
{
closed = 1;
nodes = (
(467,265,ls),
(499,265,o),
(516,284,o),
(516,308,cs),
(516,334,o),
(498,350,o),
(468,350,cs),
(190,350,l),
(175,265,l)
);
},
{
closed = 1;
nodes = (
(540,555,ls),
(570,555,o),
(594,575,o),
(594,604,cs),
(594,632,o),
(576,650,o),
(545,650,cs),
(241,650,l),
(222,555,l)
);
}
);
width = 589;
}
);
metricLeft = N;
metricRight = "=N-40";
unicode = 70;
},
{
glyphname = G;
lastChange = "2022-02-24 21:33:16 +0000";
layers = (
{
layerId = m01;
shapes = (
{
closed = 1;
nodes = (
(244,-4,o),
(343,134,o),
(435,275,c),
(447,350,l),
(423,350,o),
(420,343,o),
(362,255,cs),
(325,199,o),
(222,46,o),
(153,46,cs),
(117,46,o),
(108,89,o),
(108,135,cs),
(108,200,o),
(126,310,o),
(137,364,cs),
(158,468,o),
(201,600,o),
(438,600,cs),
(494,600,ls),
(509,600,o),
(519,613,o),
(519,626,cs),
(519,638,o),
(510,650,o),
(498,650,cs),
(439,650,ls),
(166,650,o),
(110,498,o),
(82,338,cs),
(78,318,o),
(58,203,o),
(58,140,cs),
(58,70,o),
(83,-4,o),
(150,-4,cs)
);
},
{
closed = 1;
nodes = (
(407,-1,o),
(412,16,o),
(414,27,cs),
(466,323,ls),
(468,340,o),
(465,350,o),
(448,350,c),
(428,350,o),
(419,342,o),
(415,323,cs),
(363,27,ls),
(361,15,o),
(364,1,o),
(384,0,cs)
);
}
);
width = 495;
},
{
layerId = m002;
shapes = (
{
closed = 1;
nodes = (
(328,-4,o),
(427,153,o),
(498,265,c),
(508,370,l),
(470,370,o),
(464,361,o),
(406,271,cs),
(371,217,o),
(284,85,o),
(233,85,cs),
(217,85,o),
(211,114,o),
(211,155,cs),
(211,214,o),
(229,304,o),
(238,354,cs),
(255,450,o),
(294,561,o),
(498,561,cs),
(551,561,ls),
(578,561,o),
(599,582,o),
(599,607,cs),
(599,631,o),
(579,650,o),
(554,650,cs),
(499,650,ls),
(223,650,o),
(162,494,o),
(135,341,cs),
(131,321,o),
(113,212,o),
(113,151,cs),
(113,79,o),
(137,-4,o),
(221,-4,cs)
);
},
{
closed = 1;
nodes = (
(487,0,o),
(496,18,o),
(500,42,cs),
(549,320,ls),
(554,351,o),
(538,370,o),
(507,370,cs),
(468,370,o),
(455,343,o),
(452,327,cs),
(403,49,ls),
(398,18,o),
(418,0,o),
(452,0,cs)
);
}
);
width = 634;
}
);
metricLeft = O;
metricRight = N;
unicode = 71;
},
{
glyphname = H;
lastChange = "2022-02-24 21:33:16 +0000";
layers = (
{
layerId = m01;
shapes = (
{
closed = 1;
nodes = (
(74,0,o),
(78,15,o),
(80,25,cs),
(184,619,ls),
(187,637,o),
(181,650,o),
(164,650,cs),
(145,650,o),
(137,639,o),
(134,623,cs),
(29,27,ls),
(26,12,o),
(34,0,o),
(52,0,cs)
);
},
{
closed = 1;
nodes = (
(497,305,l),
(505,350,l),
(121,350,l),
(113,305,l)
);
},
{
closed = 1;
nodes = (
(474,0,o),
(480,13,o),
(482,22,cs),
(587,621,ls),
(590,638,o),
(584,650,o),
(564,650,cs),
(546,650,o),
(539,638,o),
(537,628,cs),
(432,27,ls),
(430,15,o),
(432,0,o),
(455,0,cs)
);
}
);
width = 564;
},
{
layerId = m002;
shapes = (
{
closed = 1;
nodes = (
(170,0,o),
(186,20,o),
(189,40,cs),
(286,597,ls),
(292,632,o),
(274,650,o),
(245,650,cs),
(218,650,o),
(192,637,o),
(187,609,cs),
(89,49,ls),
(84,21,o),
(104,0,o),
(136,0,cs)
);
},
{
closed = 1;
nodes = (
(578,270,l),
(592,350,l),
(180,350,l),
(166,270,l)
);
},
{
closed = 1;
nodes = (
(544,0,o),
(565,17,o),
(569,37,cs),
(667,599,ls),
(673,631,o),
(652,650,o),
(621,650,cs),
(593,650,o),
(572,635,o),
(568,613,cs),
(470,49,ls),
(465,20,o),
(482,0,o),
(515,0,cs)
);
}
);
width = 703;
}
);
metricLeft = N;
metricRight = N;
unicode = 72;
},
{
glyphname = I;
lastChange = "2022-02-24 21:33:16 +0000";
layers = (
{
layerId = m01;
shapes = (
{
closed = 1;
nodes = (
(127,25,l),
(231,619,l),
(180,620,l),
(76,25,l)
);
},
{
closed = 1;
nodes = (
(144,0,ls),
(164,0,o),
(170,11,o),
(170,23,cs),
(170,35,o),
(164,45,o),
(144,45,cs),
(55,45,ls),
(35,45,o),
(29,35,o),
(29,23,cs),
(29,11,o),
(35,0,o),
(55,0,cs)
);
},
{
closed = 1;
nodes = (
(252,605,ls),
(272,605,o),
(278,616,o),
(278,628,cs),
(278,640,o),
(272,650,o),
(252,650,cs),
(163,650,ls),
(143,650,o),
(137,640,o),
(137,628,cs),
(137,616,o),
(143,605,o),
(163,605,cs)
);
}
);
width = 254;
},
{
layerId = m002;
shapes = (
{
closed = 1;
nodes = (
(225,21,l),
(330,622,l),
(232,624,l),
(127,21,l)
);
},
{
closed = 1;
nodes = (
(221,0,ls),
(254,0,o),
(265,15,o),
(269,39,cs),
(273,63,o),
(260,78,o),
(235,78,cs),
(137,78,ls),
(105,78,o),
(90,63,o),
(86,39,cs),
(82,15,o),
(98,0,o),
(123,0,cs)
);
},
{
closed = 1;
nodes = (
(321,570,ls),
(353,570,o),
(367,588,o),
(371,612,cs),
(375,636,o),
(358,650,o),
(335,650,cs),
(237,650,ls),
(206,650,o),
(192,636,o),
(188,612,cs),
(184,588,o),
(200,570,o),
(223,570,cs)
);
}
);
width = 404;
}
);
metricLeft = N;
metricRight = N;
unicode = 73;
},
{
glyphname = J;
lastChange = "2022-02-24 21:57:09 +0000";
layers = (
{
layerId = m01;
shapes = (
{
closed = 1;
nodes = (
(60,0,o),
(150,5,o),
(169,7,cs),
(239,16,o),
(276,46,o),
(301,86,cs),
(335,140,o),
(343,211,o),
(358,296,c),
(416,621,l),
(365,621,l),
(308,301,l),
(296,232,o),
(287,161,o),
(258,113,cs),
(240,82,o),
(214,63,o),
(173,58,cs),
(146,55,o),
(53,51,o),
(29,51,cs),
(17,51,o),
(4,39,o),
(4,25,cs),
(4,10,o),
(17,0,o),
(29,0,cs)
);
},
{
closed = 1;
nodes = (
(523,600,ls),
(543,600,o),
(549,613,o),
(549,625,cs),
(549,637,o),
(543,650,o),
(523,650,cs),
(259,650,ls),
(239,650,o),
(233,637,o),
(233,625,cs),
(233,613,o),
(239,600,o),
(259,600,cs)
);
}
);
width = 500;
},
{
layerId = m002;
shapes = (
{
closed = 1;
nodes = (
(117,0,o),
(203,2,o),
(221,4,cs),
(297,14,o),
(338,48,o),
(364,88,cs),
(398,145,o),
(407,215,o),
(421,294,cs),
(480,625,l),
(382,625,l),
(324,306,ls),
(312,241,o),
(305,178,o),
(280,137,cs),
(265,111,o),
(250,100,o),
(219,96,cs),
(195,93,o),
(108,91,o),
(87,91,cs),
(63,91,o),
(38,71,o),
(38,45,cs),
(38,18,o),
(63,0,o),
(87,0,cs)
);
},
{
closed = 1;
nodes = (
(551,555,ls),
(583,555,o),
(601,576,o),
(601,602,cs),
(601,630,o),
(582,650,o),
(552,650,cs),
(304,650,ls),
(273,650,o),
(254,629,o),
(254,602,cs),
(254,574,o),
(273,555,o),
(303,555,cs)
);
}
);
width = 587;
}
);
metricLeft = T;
metricRight = T;
unicode = 74;
},
{
glyphname = K;
lastChange = "2022-02-24 21:33:16 +0000";
layers = (
{
layerId = m01;
shapes = (
{
closed = 1;
nodes = (
(477,599,ls),
(489,609,o),
(494,619,o),
(496,628,cs),
(497,640,o),
(489,650,o),
(476,650,cs),
(468,651,o),
(457,647,o),
(445,637,cs),
(108,360,l),
(108,353,l),
(170,346,l)
);
},
{
closed = 1;
nodes = (
(375,0,o),
(385,6,o),
(388,17,cs),
(390,24,o),
(389,32,o),
(382,42,cs),
(170,348,l),
(108,354,l),
(108,345,l),
(335,19,ls),
(342,9,o),
(352,0,o),
(365,0,cs)
);
},
{
closed = 1;
nodes = (
(74,0,o),
(79,18,o),
(81,31,cs),
(185,619,ls),
(188,637,o),
(184,650,o),
(165,650,cs),
(145,650,o),
(138,639,o),
(135,623,cs),
(30,32,ls),
(27,17,o),
(35,0,o),
(53,0,cs)
);
}
);
width = 471;
},
{
layerId = m002;
shapes = (
{
closed = 1;
nodes = (
(555,560,ls),
(569,572,o),
(579,587,o),
(581,602,cs),
(584,625,o),
(566,650,o),
(537,650,cs),
(521,650,o),
(501,644,o),
(485,631,cs),
(164,368,l),
(164,326,l),
(259,318,l)
);
},
{
closed = 1;
nodes = (
(450,0,o),
(473,10,o),
(477,31,cs),
(480,44,o),
(479,60,o),
(469,74,cs),
(264,368,l),
(164,382,l),
(164,338,l),
(382,25,ls),
(393,9,o),
(411,0,o),
(430,0,cs)
);
},
{
closed = 1;
nodes = (
(168,0,o),
(184,19,o),
(189,45,cs),
(287,597,ls),
(294,636,o),
(267,650,o),
(243,650,cs),
(217,650,o),
(193,637,o),
(188,609,cs),
(89,54,ls),
(84,24,o),
(105,0,o),
(137,0,cs)
);
}
);
width = 616;
}
);
metricLeft = N;
metricRight = N;
unicode = 75;
},
{
glyphname = L;
lastChange = "2022-02-24 21:33:16 +0000";
layers = (
{
layerId = m01;
shapes = (
{
closed = 1;
nodes = (
(74,0,o),
(77,15,o),
(79,25,cs),
(184,619,ls),
(187,637,o),
(184,650,o),
(164,650,cs),
(144,650,o),
(137,639,o),
(134,623,cs),
(29,27,ls),
(26,12,o),
(34,0,o),
(52,0,cs)
);
},
{
closed = 1;
nodes = (
(380,0,ls),
(398,0,o),
(406,14,o),
(406,26,cs),
(406,38,o),
(398,50,o),
(380,50,cs),
(53,50,l),
(53,0,l)
);
}
);
width = 488;
},
{
layerId = m002;
shapes = (
{
closed = 1;
nodes = (
(162,0,o),
(181,18,o),
(185,39,cs),
(284,597,ls),
(291,639,o),
(267,650,o),
(242,650,cs),
(213,650,o),
(192,637,o),
(187,609,cs),
(88,49,ls),
(83,21,o),
(98,0,o),
(128,0,cs)
);
},
{
closed = 1;
nodes = (
(443,0,ls),
(473,0,o),
(493,22,o),
(493,46,cs),
(493,70,o),
(473,91,o),
(443,91,cs),
(145,91,l),
(129,0,l)
);
}
);
width = 626;
}
);
metricLeft = N;
metricRight = N;
unicode = 76;
},
{
glyphname = M;
lastChange = "2022-02-24 14:12:11 +0000";
layers = (
{
layerId = m01;
shapes = (
{
closed = 1;
nodes = (
(420,26,l),
(371,631,ls),
(370,639,o),
(363,650,o),
(345,650,c),
(325,584,l),
(370,24,ls),
(371,14,o),
(375,0,o),
(399,0,c)
);
},
{
closed = 1;
nodes = (
(417,0,o),
(425,17,o),
(429,24,cs),
(722,586,l),
(712,650,l),
(697,650,o),
(691,635,o),
(685,624,cs),
(392,61,l),
(397,0,l)
);
},
{
closed = 1;
nodes = (
(786,0,o),
(794,11,o),
(793,26,cs),
(744,622,ls),
(743,638,o),
(740,650,o),
(711,650,c),
(695,608,l),
(743,24,ls),
(744,14,o),
(749,0,o),
(770,0,c)
);
},
{
closed = 1;
nodes = (
(37,0,o),
(49,7,o),
(59,25,cs),
(355,593,l),
(346,650,l),
(328,650,o),
(322,639,o),
(315,625,cs),
(9,38,ls),
(3,26,o),
(3,16,o),
(7,10,cs),
(11,4,o),
(18,0,o),
(26,0,cs)
);
}
);
width = 850;
},
{
layerId = m002;
shapes = (
{
closed = 1;
nodes = (
(480,46,l),
(434,606,ls),
(432,635,o),
(422,650,o),
(381,650,c),
(339,559,l),
(383,40,ls),
(385,18,o),
(402,0,o),
(433,0,c)
);
},
{
closed = 1;
nodes = (
(472,0,o),
(480,19,o),
(486,31,cs),
(766,568,l),
(742,650,l),
(711,650,o),
(694,638,o),
(682,616,cs),
(403,86,l),
(432,0,l)
);
},
{
closed = 1;
nodes = (
(813,0,o),
(832,20,o),
(830,46,cs),
(784,606,ls),
(782,635,o),
(776,650,o),
(740,650,c),
(687,562,l),
(730,40,ls),
(732,19,o),
(753,0,o),
(784,0,cs)
);
},
{
closed = 1;
nodes = (
(102,0,o),
(129,9,o),
(142,33,cs),
(414,555,l),
(382,650,l),
(354,650,o),
(345,638,o),
(334,617,cs),
(45,64,ls),
(36,47,o),
(37,34,o),
(44,21,cs),
(51,8,o),
(69,0,o),
(84,0,cs)
);
}
);
width = 914;
}
);
metricLeft = A;
metricRight = A;
unicode = 77;
},
{
glyphname = N;
lastChange = "2022-02-24 21:32:43 +0000";
layers = (
{
layerId = m01;
shapes = (
{
closed = 1;
nodes = (
(436,8,o),
(444,0,o),
(458,0,c),
(464,67,l),
(194,630,ls),
(190,639,o),
(181,650,o),
(163,650,c),
(156,589,l),
(431,18,ls)
);
},
{
closed = 1;
nodes = (
(74,0,o),
(78,16,o),
(80,28,cs),
(183,612,l),
(164,650,l),
(142,650,o),
(137,639,o),
(134,623,cs),
(29,27,ls),
(26,12,o),
(34,0,o),
(52,0,cs)
);
},
{
closed = 1;
nodes = (
(479,0,o),
(481,15,o),
(483,25,cs),
(587,619,ls),
(590,637,o),
(587,650,o),
(568,650,cs),
(548,650,o),
(541,639,o),
(538,623,cs),
(436,48,l),
(457,0,l)
);
}
);
width = 564;
},
{
layerId = m002;
shapes = (
{
closed = 1;
nodes = (
(479,10,o),
(493,0,o),
(519,0,c),
(530,126,l),
(291,620,ls),
(281,641,o),
(264,650,o),
(238,650,c),
(208,569,l),
(470,28,ls)
);
},
{
closed = 1;
nodes = (
(165,0,o),
(185,19,o),
(189,42,cs),
(286,592,l),
(241,650,l),
(209,650,o),
(192,636,o),
(187,609,cs),
(89,49,ls),
(84,21,o),
(103,0,o),
(132,0,cs)
);
},
{
closed = 1;
nodes = (
(552,0,o),
(562,19,o),
(566,40,cs),
(663,597,ls),
(669,629,o),
(653,653,o),
(620,653,cs),
(592,653,o),
(569,637,o),
(564,609,cs),
(476,105,l),
(518,0,l)
);
}
);
width = 700;
}
);
unicode = 78;
},
{
glyphname = O;
lastChange = "2022-02-24 21:33:07 +0000";
layers = (
{
layerId = m01;
shapes = (
{
closed = 1;
nodes = (
(358,-4,o),
(547,256,o),
(562,438,cs),
(572,551,o),
(516,650,o),
(368,650,cs),
(225,650,o),
(140,557,o),
(98,409,cs),
(87,369,o),
(78,322,o),
(74,278,cs),
(62,143,o),
(94,-4,o),
(207,-4,cs)
);
},
{
closed = 1;
nodes = (
(133,47,o),
(116,178,o),
(123,268,cs),
(127,310,o),
(137,355,o),
(146,388,cs),
(184,526,o),
(246,600,o),
(363,600,cs),
(502,600,o),
(518,495,o),
(512,432,cs),
(497,269,o),
(301,47,o),
(206,47,cs)
);
}
);
width = 557;
},
{
layerId = m002;
shapes = (
{
closed = 1;
nodes = (
(431,-4,o),
(605,251,o),
(636,429,cs),
(657,548,o),
(582,652,o),
(429,652,cs),
(281,652,o),
(193,555,o),
(151,410,cs),
(140,370,o),
(131,325,o),
(128,283,cs),
(116,150,o),
(141,-4,o),
(271,-4,cs)
);
},
{
closed = 1;
nodes = (
(230,86,o),
(220,187,o),
(227,269,cs),
(230,308,o),
(238,348,o),
(246,378,cs),
(281,505,o),
(327,562,o),
(424,562,cs),
(533,562,o),
(545,484,o),
(535,427,cs),
(509,281,o),
(354,86,o),
(277,86,cs)
);
}
);
width = 671;
}
);
unicode = 79;
},
{
glyphname = P;
lastChange = "2022-02-24 21:33:16 +0000";
layers = (
{
layerId = m01;
shapes = (
{
closed = 1;
nodes = (
(298,324,o),
(477,321,o),
(477,476,cs),
(477,597,o),
(367,650,o),
(168,650,c),
(168,600,l),
(350,600,o),
(427,558,o),
(427,481,cs),
(427,367,o),
(259,374,o),
(133,374,c),
(126,324,l)
);
},
{
closed = 1;
nodes = (
(74,-4,o),
(78,15,o),
(80,25,cs),
(184,619,ls),
(187,637,o),
(185,650,o),
(164,650,cs),
(142,650,o),
(137,639,o),
(134,623,cs),
(29,27,ls),
(26,12,o),
(34,-4,o),
(52,-4,cs)
);
}
);
width = 467;
},
{
layerId = m002;
shapes = (
{
closed = 1;
nodes = (
(342,303,o),
(560,289,o),
(560,467,cs),
(560,602,o),
(447,656,o),
(236,652,c),
(236,561,l),
(420,564,o),
(463,535,o),
(463,472,cs),
(463,382,o),
(313,394,o),
(189,393,c),
(177,302,l)
);
},
{
closed = 1;
nodes = (
(169,-6,o),
(182,17,o),
(186,39,cs),
(284,597,ls),
(291,639,o),
(265,652,o),
(240,652,cs),
(210,652,o),
(192,637,o),
(187,609,cs),
(88,48,ls),
(83,21,o),
(102,-6,o),
(135,-6,cs)
);
}
);
width = 592;
}
);
metricLeft = N;
metricRight = O;
unicode = 80;
},
{
glyphname = Q;
lastChange = "2022-02-24 21:33:16 +0000";
layers = (
{
layerId = m01;
shapes = (
{
closed = 1;
nodes = (
(359,-4,o),
(544,230,o),
(560,416,cs),
(571,540,o),
(507,650,o),
(367,650,cs),
(225,650,o),
(142,563,o),
(99,411,cs),
(87,369,o),
(78,322,o),
(74,278,cs),
(62,142,o),
(94,-4,o),
(211,-4,cs)
);
},
{
closed = 1;
nodes = (
(424,-37,o),
(424,-18,o),
(416,-6,cs),
(308,151,ls),
(298,165,o),
(280,172,o),
(266,160,cs),
(254,151,o),
(256,139,o),
(267,123,cs),
(371,-29,ls),
(381,-44,o),
(397,-52,o),
(410,-45,cs)
);
},
{
closed = 1;
nodes = (
(127,47,o),
(115,173,o),
(123,264,cs),
(127,310,o),
(137,355,o),
(147,392,cs),
(185,526,o),
(241,600,o),
(359,600,cs),
(484,600,o),
(518,500,o),
(510,415,cs),
(495,255,o),
(319,47,o),
(211,47,cs)
);
}
);
width = 559;
},
{
layerId = m002;
shapes = (
{
closed = 1;
nodes = (
(436,-4,o),
(601,224,o),
(633,407,cs),
(656,536,o),
(575,651,o),
(427,651,cs),
(279,651,o),
(193,559,o),
(151,410,cs),
(140,370,o),
(130,324,o),
(127,281,cs),
(115,148,o),
(147,-4,o),
(280,-4,cs)
);
},
{
closed = 1;
nodes = (
(507,-28,o),
(509,1,o),
(493,25,cs),
(393,172,l),
(372,199,o),
(337,204,o),
(319,189,cs),
(300,174,o),
(294,149,o),
(312,122,cs),
(410,-21,ls),
(428,-47,o),
(460,-55,o),
(481,-42,cs)
);
},
{
closed = 1;
nodes = (
(224,84,o),
(218,181,o),
(226,264,cs),
(229,306,o),
(238,347,o),
(247,381,cs),
(282,504,o),
(322,561,o),
(419,561,cs),
(518,561,o),
(546,486,o),
(532,410,cs),
(506,266,o),
(369,84,o),
(280,84,cs)
);
}
);
width = 672;
}
);
metricLeft = O;
metricRight = O;
unicode = 81;
},
{
glyphname = R;
lastChange = "2022-02-24 21:33:16 +0000";
layers = (
{
layerId = m01;
shapes = (
{
closed = 1;
nodes = (
(286,303,o),
(449,321,o),
(476,476,cs),
(497,597,o),
(366,650,o),
(168,650,c),
(168,600,l),
(342,600,o),
(440,560,o),
(426,481,cs),
(406,368,o),
(262,354,o),
(122,354,c),
(115,303,l)
);
},
{
closed = 1;
nodes = (
(74,0,o),
(78,16,o),
(81,31,cs),
(184,619,ls),
(187,637,o),
(185,650,o),
(164,650,cs),
(142,650,o),
(137,639,o),
(134,623,cs),
(30,33,ls),
(27,16,o),
(34,0,o),
(52,0,cs)
);
},
{
closed = 1;
nodes = (
(384,0,o),
(394,7,o),
(397,15,cs),
(400,23,o),
(399,34,o),
(394,42,cs),
(180,346,l),
(112,353,l),
(348,18,ls),
(357,5,o),
(366,0,o),
(374,0,cs)
);
}
);
width = 486;
},
{
layerId = m002;
shapes = (
{
closed = 1;
nodes = (
(340,273,o),
(529,289,o),
(561,467,cs),
(585,602,o),
(448,650,o),
(238,650,c),
(238,559,l),
(417,562,o),
(475,533,o),
(464,470,cs),
(449,382,o),
(316,358,o),
(191,358,c),
(187,273,l)
);
},
{
closed = 1;
nodes = (
(159,0,o),
(185,23,o),
(190,53,cs),
(286,597,ls),
(293,638,o),
(270,650,o),
(242,650,cs),
(211,650,o),
(192,637,o),
(187,609,cs),
(89,54,ls),
(84,24,o),
(96,0,o),
(128,0,cs)
);
},
{
closed = 1;
nodes = (
(459,0,o),
(480,11,o),
(485,29,cs),
(489,42,o),
(490,57,o),
(481,69,cs),
(302,318,l),
(183,318,l),
(395,23,ls),
(409,3,o),
(427,0,o),
(440,0,cs)
);
}
);
width = 611;
}
);
metricLeft = N;
metricRight = "=O+20";
unicode = 82;
},
{
glyphname = S;
lastChange = "2022-02-24 21:33:16 +0000";
layers = (
{
layerId = m01;
shapes = (
{
closed = 1;
nodes = (
(171,0,ls),
(269,0,o),
(443,50,o),
(443,184,cs),
(443,269,o),
(373,318,o),
(355,330,cs),
(228,419,o),
(163,452,o),
(163,497,cs),
(163,555,o),
(271,600,o),
(348,600,cs),
(503,600,ls),
(516,600,o),
(526,613,o),
(526,626,cs),
(526,650,o),
(506,650,o),
(502,650,cs),
(349,650,ls),
(220,650,o),
(112,576,o),
(112,493,cs),
(112,422,o),
(190,385,o),
(314,296,cs),
(340,278,o),
(393,241,o),
(393,183,cs),
(393,83,o),
(236,50,o),
(171,50,cs),
(51,50,ls),
(38,50,o),
(27,37,o),
(27,24,cs),
(27,0,o),
(49,0,o),
(51,0,cs)
);
}
);
width = 487;
},
{
layerId = m002;
shapes = (
{
closed = 1;
nodes = (
(244,0,ls),
(343,0,o),
(525,50,o),
(525,192,cs),
(525,283,o),
(450,335,o),
(431,348,cs),
(312,431,o),
(264,457,o),
(264,487,cs),
(264,527,o),
(344,559,o),
(411,559,cs),
(554,559,ls),
(580,559,o),
(601,580,o),
(601,605,cs),
(601,641,o),
(571,650,o),
(553,650,cs),
(412,650,ls),
(278,650,o),
(164,575,o),
(164,483,cs),
(164,403,o),
(248,363,o),
(365,280,cs),
(387,264,o),
(425,235,o),
(425,192,cs),
(425,115,o),
(302,91,o),
(244,91,cs),
(132,91,ls),
(106,91,o),
(84,69,o),
(84,44,cs),
(84,8,o),
(118,0,o),
(132,0,cs)
);
}
);
width = 606;
}
);
metricLeft = O;
metricRight = O;
unicode = 83;
},
{
glyphname = T;
lastChange = "2022-02-24 21:33:45 +0000";
layers = (
{
layerId = m01;
shapes = (
{
closed = 1;
nodes = (
(212,0,o),
(215,15,o),
(217,25,c),
(321,619,l),
(272,623,l),
(167,27,l),
(164,12,o),
(172,0,o),
(190,0,cs)
);
},
{
closed = 1;
nodes = (
(460,600,ls),
(480,600,o),
(486,613,o),
(486,625,cs),
(486,637,o),
(480,650,o),
(460,650,cs),
(136,650,ls),
(116,650,o),
(110,637,o),
(110,625,cs),
(110,613,o),
(116,600,o),
(136,600,cs)
);
}
);
width = 437;
},
{
layerId = m002;
shapes = (
{
closed = 1;
nodes = (
(270,-2,o),
(284,18,o),
(288,39,cs),
(386,598,l),
(290,608,l),
(191,49,ls),
(186,21,o),
(206,-2,o),
(237,-2,cs)
);
},
{
closed = 1;
nodes = (
(491,563,ls),
(523,563,o),
(541,583,o),
(541,607,cs),
(541,633,o),
(521,653,o),
(491,653,cs),
(187,653,ls),
(157,653,o),
(137,633,o),
(137,607,cs),
(137,583,o),
(155,563,o),
(187,563,cs)
);
}
);
width = 526;
}
);
unicode = 84;
},
{
glyphname = U;
lastChange = "2022-02-24 21:33:16 +0000";
layers = (
{
layerId = m01;
shapes = (
{
closed = 1;
nodes = (
(200,-4,o),
(332,104,o),
(442,269,c),
(502,381,l),
(529,520,l),
(501,520,l),
(498,509,l),
(476,415,o),
(433,350,o),
(415,320,cs),
(352,217,o),
(208,45,o),
(131,45,cs),
(84,45,o),
(94,116,o),
(106,180,cs),
(186,622,ls),
(189,636,o),
(180,649,o),
(165,650,cs),
(149,650,o),
(138,636,o),
(135,620,cs),
(56,183,ls),
(32,52,o),
(64,-4,o),
(123,-4,cs)
);
},
{
closed = 1;
nodes = (
(447,-1,o),
(459,7,o),
(462,22,cs),
(568,624,ls),
(571,639,o),
(564,650,o),
(544,650,cs),
(526,650,o),
(519,638,o),
(517,626,cs),
(412,27,ls),
(409,8,o),
(421,-1,o),
(435,-1,cs)
);
}
);
width = 544;
},
{
layerId = m002;
shapes = (
{
closed = 1;
nodes = (
(289,-4,o),
(407,108,o),
(501,247,c),
(585,385,l),
(619,543,l),
(541,543,l),
(533,510,ls),
(512,423,o),
(479,376,o),
(459,349,cs),
(406,277,o),
(267,86,o),
(220,86,cs),
(201,86,o),
(203,125,o),
(214,185,cs),
(288,600,ls),
(293,629,o),
(272,650,o),
(243,650,cs),
(211,651,o),
(191,624,o),
(188,606,cs),
(114,195,ls),
(89,57,o),
(131,-4,o),
(204,-4,cs)
);
},
{
closed = 1;
nodes = (
(520,0,o),
(546,12,o),
(550,37,cs),
(649,602,ls),
(654,630,o),
(636,650,o),
(602,650,cs),
(574,650,o),
(553,635,o),
(549,612,cs),
(451,49,ls),
(445,16,o),
(469,0,o),
(497,0,cs)
);
}
);
width = 684;
}
);
metricLeft = N;
metricRight = N;
unicode = 85;
},
{
glyphname = V;
lastChange = "2022-02-24 21:33:16 +0000";
layers = (
{
layerId = m01;
shapes = (
{
closed = 1;
nodes = (
(230,0,o),
(234,11,o),
(241,25,cs),
(550,618,ls),
(560,638,o),
(548,650,o),
(533,650,cs),
(514,650,o),
(506,642,o),
(497,625,cs),
(192,39,l),
(211,0,l)
);
},
{
closed = 1;
nodes = (
(233,37,l),
(185,626,ls),
(184,636,o),
(180,650,o),
(158,650,c),
(140,650,o),
(134,639,o),
(135,624,cs),
(184,28,ls),
(185,15,o),
(193,0,o),
(212,0,c)
);
}
);
width = 529;
},
{
layerId = m002;
shapes = (
{
closed = 1;
nodes = (
(312,-2,o),
(324,15,o),
(334,34,cs),
(625,591,ls),
(643,625,o),
(620,650,o),
(588,650,cs),
(559,650,o),
(540,638,o),
(530,618,cs),
(239,59,l),
(283,-2,l)
);
},
{
closed = 1;
nodes = (
(328,64,l),
(284,610,ls),
(282,633,o),
(265,650,o),
(233,650,cs),
(204,650,o),
(185,634,o),
(187,604,cs),
(233,44,ls),
(235,19,o),
(254,-1,o),
(284,-2,c)
);
}
);
width = 665;
}
);
metricLeft = N;
metricRight = N;
unicode = 86;
},
{
glyphname = W;
lastChange = "2022-02-24 21:33:16 +0000";
layers = (
{
layerId = m01;
shapes = (
{
closed = 1;
nodes = (
(601,0,o),
(606,11,o),
(613,25,cs),
(922,618,ls),
(927,627,o),
(927,635,o),
(924,640,cs),
(920,647,o),
(912,650,o),
(905,650,cs),
(897,650,o),
(891,649,o),
(887,646,cs),
(877,640,o),
(873,632,o),
(869,625,cs),
(560,31,l),
(583,0,l)
);
},
{
closed = 1;
nodes = (
(233,37,l),
(185,626,ls),
(184,636,o),
(180,650,o),
(158,650,c),
(140,650,o),
(134,639,o),
(135,624,cs),
(184,28,ls),
(185,12,o),
(196,0,o),
(217,0,c)
);
},
{
closed = 1;
nodes = (
(230,0,o),
(237,15,o),
(243,26,cs),
(552,619,l),
(529,650,l),
(513,650,o),
(503,633,o),
(499,626,cs),
(194,40,l),
(216,0,l)
);
},
{
closed = 1;
nodes = (
(558,6,o),
(566,0,o),
(584,0,c),
(607,30,l),
(558,626,ls),
(557,636,o),
(553,650,o),
(528,650,c),
(509,617,l),
(557,19,ls)
);
}
);
width = 901;
},
{
layerId = m002;
shapes = (
{
closed = 1;
nodes = (
(661,0,o),
(672,12,o),
(683,33,cs),
(975,591,ls),
(982,604,o),
(981,616,o),
(975,628,cs),
(969,644,o),
(951,650,o),
(936,650,cs),
(922,650,o),
(909,646,o),
(901,640,cs),
(891,633,o),
(884,625,o),
(879,615,cs),
(596,74,l),
(633,0,l)
);
},
{
closed = 1;
nodes = (
(327,75,l),
(284,610,ls),
(282,633,o),
(266,650,o),
(234,650,cs),
(205,650,o),
(185,634,o),
(187,604,cs),
(233,44,ls),
(235,15,o),
(254,0,o),
(288,0,c)
);
},
{
closed = 1;
nodes = (
(318,0,o),
(325,14,o),
(335,34,cs),
(620,578,l),
(581,650,l),
(547,650,o),
(538,631,o),
(532,619,cs),
(249,75,l),
(287,0,l)
);
},
{
closed = 1;
nodes = (
(585,15,o),
(613,0,o),
(632,0,c),
(678,74,l),
(634,610,ls),
(632,635,o),
(615,650,o),
(580,650,c),
(539,582,l),
(584,32,ls)
);
}
);
width = 1014;
}
);
metricLeft = N;
metricRight = N;
unicode = 87;
},
{
glyphname = X;
lastChange = "2022-02-24 21:33:16 +0000";
layers = (
{
layerId = m01;
shapes = (
{
closed = 1;
nodes = (
(48,-3,o),
(66,-4,o),
(78,11,cs),
(573,609,ls),
(585,624,o),
(582,638,o),
(573,645,cs),
(563,653,o),
(546,652,o),
(533,637,cs),
(35,38,ls),
(25,26,o),
(28,13,o),
(37,6,cs)
);
},
{
closed = 1;
nodes = (
(474,8,o),
(481,20,o),
(474,35,cs),
(189,631,ls),
(180,650,o),
(163,654,o),
(151,649,cs),
(139,645,o),
(132,631,o),
(141,613,cs),
(424,19,ls),
(433,0,o),
(451,-3,o),
(464,3,cs)
);
}
);
width = 559;
},
{
layerId = m002;
shapes = (
{
closed = 1;
nodes = (
(121,-3,o),
(158,-8,o),
(178,16,cs),
(643,578,ls),
(663,602,o),
(656,623,o),
(638,639,cs),
(620,655,o),
(587,656,o),
(566,631,cs),
(99,69,ls),
(81,48,o),
(84,29,o),
(102,13,cs)
);
},
{
closed = 1;
nodes = (
(554,17,o),
(566,36,o),
(554,61,cs),
(285,623,ls),
(271,651,o),
(242,654,o),
(219,647,cs),
(193,637,o),
(181,617,o),
(196,586,cs),
(461,28,ls),
(475,-1,o),
(510,-6,o),
(533,6,cs)
);
}
);
width = 693;
}
);
metricLeft = N;
metricRight = N;
unicode = 88;
},
{
glyphname = Y;
lastChange = "2022-02-24 21:33:59 +0000";
layers = (
{
layerId = m01;
shapes = (
{
closed = 1;
nodes = (
(549,609,l),
(555,616,o),
(557,623,o),
(557,629,cs),
(557,635,o),
(554,641,o),
(548,645,cs),
(541,650,o),
(534,651,o),
(528,650,cs),
(521,648,o),
(514,643,o),
(509,637,c),
(255,333,l),
(285,291,l)
);
},
{
closed = 1;
nodes = (
(250,0,o),
(253,15,o),
(255,25,c),
(312,350,l),
(262,350,l),
(205,27,l),
(202,12,o),
(210,0,o),
(228,0,cs)
);
},
{
closed = 1;
nodes = (
(297,345,l),
(161,630,l),
(157,638,o),
(152,645,o),
(145,648,cs),
(140,651,o),
(133,651,o),
(125,648,cs),
(117,645,o),
(112,640,o),
(111,634,cs),
(110,628,o),
(111,621,o),
(115,613,c),
(261,307,l)
);
}
);
width = 507;
},
{
layerId = m002;
shapes = (
{
closed = 1;
nodes = (
(596,578,ls),
(605,589,o),
(608,599,o),
(608,611,cs),
(608,623,o),
(602,634,o),
(591,642,cs),
(579,653,o),
(561,653,o),
(551,653,c),
(540,650,o),
(526,642,o),
(518,632,cs),
(282,350,l),
(326,254,l)
);
},
{
closed = 1;
nodes = (
(307,-2,o),
(321,19,o),
(325,40,cs),
(382,371,l),
(281,371,l),
(225,49,ls),
(220,21,o),
(241,-2,o),
(273,-2,cs)
);
},
{
closed = 1;
nodes = (
(367,340,l),
(233,621,ls),
(228,632,o),
(220,642,o),
(207,648,cs),
(198,653,o),
(180,654,o),
(167,649,cs),
(152,643,o),
(141,632,o),
(138,619,cs),
(136,609,o),
(139,599,o),
(144,588,cs),
(297,266,l)
);
}
);
width = 592;
}
);
metricLeft = T;
metricRight = T;
unicode = 89;
},
{
glyphname = Z;
lastChange = "2022-02-24 21:33:16 +0000";
layers = (
{
layerId = m01;
shapes = (
{
closed = 1;
nodes = (
(68,0,o),
(75,7,o),
(79,11,cs),
(574,608,ls),
(583,619,o),
(583,630,o),
(579,638,cs),
(574,645,o),
(563,650,o),
(552,650,cs),
(545,650,o),
(537,644,o),
(532,638,c),
(34,39,ls),
(28,32,o),
(26,22,o),
(31,13,cs),
(35,6,o),
(45,0,o),
(62,0,cs)
);
},
{
closed = 1;
nodes = (
(448,0,ls),
(468,0,o),
(474,13,o),
(474,25,cs),
(474,37,o),
(468,50,o),
(448,50,cs),
(55,50,l),
(55,0,l)
);
},
{
closed = 1;
nodes = (
(556,600,l),
(556,650,l),
(162,650,ls),
(142,650,o),
(136,637,o),
(136,625,cs),
(136,613,o),
(142,600,o),
(162,600,cs)
);
}
);
width = 557;
},
{
layerId = m002;
shapes = (
{
closed = 1;
nodes = (
(160,0,o),
(174,10,o),
(180,17,cs),
(644,577,ls),
(659,595,o),
(661,614,o),
(653,629,cs),
(645,644,o),
(628,653,o),
(604,653,cs),
(590,653,o),
(575,644,o),
(566,633,cs),
(98,70,ls),
(87,57,o),
(83,39,o),
(91,23,cs),
(97,11,o),
(115,0,o),
(144,0,cs)
);
},
{
closed = 1;
nodes = (
(506,0,ls),
(538,0,o),
(556,19,o),
(556,43,cs),
(556,69,o),
(536,90,o),
(506,90,cs),
(141,90,l),
(141,0,l)
);
},
{
closed = 1;
nodes = (
(606,563,l),
(606,653,l),
(238,653,ls),
(208,653,o),
(188,633,o),
(188,607,cs),
(188,583,o),
(206,563,o),
(238,563,cs)
);
}
);
width = 691;
}
);
metricLeft = N;
metricRight = N;
unicode = 90;
},
{
glyphname = a;
lastChange = "2022-02-24 21:32:02 +0000";
layers = (
{
layerId = m01;
shapes = (
{
closed = 1;
nodes = (
(148,-4,o),
(200,50,o),
(260,126,cs),
(290,163,o),
(346,236,o),
(362,291,cs),
(365,301,l),
(320,301,l),
(292,254,o),
(259,205,o),
(218,153,cs),
(157,77,o),
(120,47,o),
(101,47,cs),
(87,47,o),
(87,62,o),
(87,78,cs),
(87,116,o),
(105,206,o),
(131,245,cs),
(161,290,o),
(212,300,o),
(246,300,cs),
(253,300,o),
(321,300,o),
(340,300,c),
(340,350,l),
(328,350,o),
(266,350,o),
(246,350,cs),
(189,350,o),
(130,333,o),
(92,276,cs),
(60,228,o),
(37,131,o),
(37,73,cs),
(37,22,o),
(57,-4,o),
(90,-4,cs)
);
},
{
closed = 1;
nodes = (
(326,0,o),
(328,18,o),
(329,23,cs),
(381,316,ls),
(383,329,o),
(383,337,o),
(380,342,cs),
(377,347,o),
(373,350,o),
(366,350,cs),
(320,350,l),
(320,261,l),
(278,23,ls),
(277,15,o),
(278,0,o),
(300,0,cs)
);
}
);
width = 411;
},
{
layerId = m002;
shapes = (
{
closed = 1;
nodes = (
(210,-4,o),
(276,51,o),
(330,118,cs),
(357,152,o),
(418,257,o),
(424,272,c),
(432,308,l),
(364,308,l),
(338,262,o),
(311,215,o),
(273,167,cs),
(220,101,o),
(194,84,o),
(189,84,cs),
(184,84,o),
(183,97,o),
(183,102,cs),
(183,134,o),
(198,194,o),
(217,224,cs),
(239,257,o),
(272,263,o),
(298,263,cs),
(308,263,o),
(345,263,o),
(384,263,c),
(384,350,l),
(353,350,o),
(315,350,o),
(298,350,cs),
(242,350,o),
(180,333,o),
(141,276,cs),
(110,228,o),
(89,139,o),
(89,85,cs),
(89,22,o),
(107,-4,o),
(146,-4,cs)
);
},
{
closed = 1;
nodes = (
(381,0,o),
(393,22,o),
(396,37,cs),
(441,295,ls),
(444,310,o),
(443,320,o),
(440,329,cs),
(434,342,o),
(419,350,o),
(403,350,cs),
(338,350,l),
(338,252,l),
(301,44,ls),
(297,21,o),
(313,0,o),
(345,0,cs)
);
}
);
width = 530;
}
);
metricLeft = o;
metricRight = n;
unicode = 97;
},
{
glyphname = b;
lastChange = "2022-02-24 21:32:02 +0000";
layers = (
{
layerId = m01;
shapes = (
{
closed = 1;
nodes = (
(82,0,o),
(144,0,o),
(164,0,cs),
(221,0,o),
(280,17,o),
(318,74,cs),
(350,122,o),
(373,219,o),
(373,277,cs),
(373,328,o),
(353,354,o),
(320,354,cs),
(262,354,o),
(208,300,o),
(171,253,cs),
(132,204,o),
(95,152,o),
(70,106,c),
(70,49,l),
(90,49,l),
(118,96,o),
(151,145,o),
(206,214,cs),
(253,273,o),
(290,303,o),
(305,303,cs),
(323,303,o),
(324,289,o),
(324,273,cs),
(324,243,o),
(305,144,o),
(279,105,cs),
(249,60,o),
(203,50,o),
(164,50,cs),
(157,50,o),
(89,50,o),
(81,50,c),
(70,50,l),
(70,0,l)
);
},
{
closed = 1;
nodes = (
(90,0,l),
(90,89,l),
(184,621,ls),
(187,640,o),
(177,650,o),
(165,650,cs),
(152,650,o),
(138,641,o),
(134,621,cs),
(28,22,ls),
(26,10,o),
(32,0,o),
(44,0,c)
);
}
);
width = 413;
},
{
layerId = m002;
shapes = (
{
closed = 1;
nodes = (
(178,0,o),
(232,0,o),
(250,0,cs),
(305,0,o),
(369,16,o),
(406,74,cs),
(437,122,o),
(459,211,o),
(459,265,cs),
(459,331,o),
(431,354,o),
(390,354,cs),
(329,354,o),
(267,291,o),
(236,254,cs),
(198,208,o),
(164,153,o),
(142,112,c),
(142,42,l),
(183,42,l),
(209,88,o),
(245,148,o),
(292,203,cs),
(332,250,o),
(352,266,o),
(359,266,cs),
(364,266,o),
(365,255,o),
(365,246,cs),
(365,222,o),
(352,155,o),
(330,125,cs),
(307,94,o),
(281,87,o),
(250,87,cs),
(244,87,o),
(184,87,o),
(177,87,cs),
(142,87,l),
(142,0,l)
);
},
{
closed = 1;
nodes = (
(195,0,l),
(198,101,l),
(286,599,ls),
(292,632,o),
(267,650,o),
(240,650,cs),
(220,650,o),
(192,640,o),
(186,607,cs),
(87,44,ls),
(82,18,o),
(100,0,o),
(127,0,cs)
);
}
);
width = 553;
}
);
metricLeft = n;
metricRight = o;
unicode = 98;
},
{
glyphname = c;
lastChange = "2022-02-24 21:32:02 +0000";
layers = (
{
layerId = m01;
shapes = (
{
closed = 1;
nodes = (
(130,-4,o),
(183,32,o),
(226,84,cs),
(238,99,o),
(252,117,o),
(263,132,cs),
(269,141,o),
(271,149,o),
(271,155,cs),
(271,168,o),
(259,175,o),
(250,175,cs),
(241,175,o),
(231,171,o),
(223,161,cs),
(214,150,o),
(202,134,o),
(192,121,cs),
(157,77,o),
(124,47,o),
(104,47,cs),
(93,47,o),
(87,59,o),
(87,78,cs),
(87,116,o),
(105,206,o),
(131,245,cs),
(161,290,o),
(212,300,o),
(281,300,cs),
(294,300,o),
(303,314,o),
(303,326,cs),
(303,337,o),
(294,350,o),
(281,350,cs),
(189,350,o),
(130,333,o),
(92,276,cs),
(60,228,o),
(37,131,o),
(37,73,cs),
(37,22,o),
(60,-4,o),
(92,-4,cs)
);
}
);
width = 330;
},
{
layerId = m002;
shapes = (
{
closed = 1;
nodes = (
(206,-4,o),
(259,32,o),
(299,81,cs),
(312,96,o),
(325,114,o),
(334,126,cs),
(341,137,o),
(345,148,o),
(345,157,cs),
(345,182,o),
(322,197,o),
(301,197,cs),
(288,197,o),
(272,189,o),
(260,173,cs),
(251,162,o),
(242,150,o),
(234,139,cs),
(205,102,o),
(193,85,o),
(183,85,cs),
(175,85,o),
(175,99,o),
(175,104,cs),
(175,136,o),
(192,197,o),
(212,227,cs),
(233,260,o),
(271,265,o),
(329,265,cs),
(354,265,o),
(373,285,o),
(373,308,cs),
(373,329,o),
(354,350,o),
(329,350,cs),
(243,350,o),
(180,334,o),
(141,276,cs),
(110,228,o),
(89,139,o),
(89,85,cs),
(89,23,o),
(124,-4,o),
(162,-4,cs)
);
}
);
width = 456;
}
);
metricLeft = o;
metricRight = o;
unicode = 99;
},
{
glyphname = d;
lastChange = "2022-02-24 21:15:07 +0000";
layers = (
{
layerId = m01;
shapes = (
{
closed = 1;
nodes = (
(148,-4,o),
(200,49,o),
(248,109,cs),
(290,162,o),
(341,235,o),
(361,289,cs),
(365,300,l),
(320,300,l),
(291,253,o),
(258,204,o),
(220,156,cs),
(158,76,o),
(120,46,o),
(101,46,cs),
(87,46,o),
(87,61,o),
(87,77,cs),
(87,115,o),
(105,205,o),
(131,244,cs),
(161,289,o),
(212,299,o),
(246,299,cs),
(253,299,o),
(321,299,o),
(329,299,c),
(340,299,l),
(340,349,l),
(328,349,o),
(266,349,o),
(246,349,cs),
(189,349,o),
(130,332,o),
(92,275,cs),
(60,227,o),
(37,130,o),
(37,72,cs),
(37,21,o),
(57,-4,o),
(90,-4,cs)
);
},
{
closed = 1;
nodes = (
(394,0,o),
(407,17,o),
(428,50,cs),
(447,79,o),
(450,86,o),
(450,94,cs),
(450,109,o),
(438,116,o),
(427,116,cs),
(415,116,o),
(407,108,o),
(404,104,cs),
(389,81,ls),
(375,59,o),
(367,48,o),
(360,48,cs),
(340,48,o),
(348,124,o),
(349,132,cs),
(436,623,ls),
(439,642,o),
(429,650,o),
(416,650,cs),
(403,650,o),
(388,640,o),
(385,623,cs),
(300,146,ls),
(287,78,o),
(291,0,o),
(361,0,cs)
);
}
);
width = 480;
},
{
layerId = m002;
shapes = (
{
closed = 1;
nodes = (
(215,-4,o),
(274,49,o),
(324,110,cs),
(362,156,o),
(423,239,o),
(432,269,cs),
(443,307,l),
(364,307,l),
(336,261,o),
(304,205,o),
(269,162,cs),
(226,109,o),
(197,84,o),
(189,84,cs),
(183,84,o),
(183,101,o),
(183,106,cs),
(183,132,o),
(198,197,o),
(218,226,cs),
(240,258,o),
(274,263,o),
(306,263,cs),
(312,263,o),
(372,263,o),
(379,263,cs),
(413,263,l),
(414,350,l),
(391,350,o),
(326,350,o),
(307,350,cs),
(242,350,o),
(181,334,o),
(142,277,cs),
(111,229,o),
(88,138,o),
(88,84,cs),
(88,21,o),
(113,-4,o),
(152,-4,cs)
);
},
{
closed = 1;
nodes = (
(467,0,o),
(493,21,o),
(523,57,cs),
(543,81,o),
(544,100,o),
(544,113,cs),
(544,140,o),
(524,153,o),
(502,153,cs),
(490,153,o),
(478,142,o),
(469,129,cs),
(454,108,ls),
(451,104,o),
(444,99,o),
(436,99,cs),
(428,99,o),
(426,113,o),
(432,146,cs),
(513,602,ls),
(519,635,o),
(497,650,o),
(469,650,cs),
(446,650,o),
(417,637,o),
(412,606,cs),
(347,238,ls),
(343,217,o),
(308,0,o),
(427,0,cs)
);
}
);
width = 557;
}
);
metricLeft = o;
unicode = 100;
},
{
glyphname = e;
lastChange = "2022-02-24 21:32:02 +0000";
layers = (
{
layerId = m01;
shapes = (
{
closed = 1;
nodes = (
(200,-4,o),
(238,50,o),
(249,64,cs),
(271,93,o),
(266,106,o),
(256,113,cs),
(245,121,o),
(230,122,o),
(211,97,cs),
(200,84,o),
(174,45,o),
(128,45,cs),
(96,45,o),
(89,64,o),
(91,98,cs),
(94,142,o),
(112,216,o),
(141,259,cs),
(165,294,o),
(193,303,o),
(218,303,cs),
(236,303,o),
(247,296,o),
(247,288,cs),
(247,267,o),
(204,239,o),
(155,210,cs),
(130,196,o),
(102,181,o),
(80,169,c),
(68,108,l),
(83,115,o),
(145,147,o),
(183,168,cs),
(223,191,o),
(298,230,o),
(298,291,cs),
(298,332,o),
(263,350,o),
(212,350,cs),
(193,350,o),
(144,350,o),
(100,284,cs),
(71,240,o),
(44,167,o),
(40,107,cs),
(33,19,o),
(79,-4,o),
(127,-4,cs)
);
}
);
width = 332;
},
{
layerId = m002;
shapes = (
{
closed = 1;
nodes = (
(284,-5,o),
(333,47,o),
(341,58,cs),
(366,90,o),
(354,117,o),
(340,128,cs),
(320,142,o),
(294,135,o),
(273,110,cs),
(261,96,o),
(238,80,o),
(213,80,cs),
(192,80,o),
(190,102,o),
(190,118,cs),
(190,155,o),
(198,205,o),
(220,239,cs),
(237,265,o),
(248,274,o),
(259,280,cs),
(269,285,o),
(291,291,o),
(297,276,cs),
(303,261,o),
(280,240,o),
(239,216,cs),
(212,200,o),
(166,175,o),
(148,166,c),
(135,77,l),
(194,104,o),
(250,132,o),
(282,151,cs),
(318,171,o),
(377,216,o),
(387,271,cs),
(396,321,o),
(346,350,o),
(284,350,cs),
(259,350,o),
(190,354,o),
(144,286,cs),
(117,243,o),
(95,173,o),
(91,117,cs),
(84,23,o),
(154,-5,o),
(206,-5,cs)
);
}
);
width = 476;
}
);
metricLeft = o;
metricRight = o;
unicode = 101;
},
{
glyphname = f;
lastChange = "2022-02-24 20:45:28 +0000";
layers = (
{
layerId = m01;
shapes = (
{
closed = 1;
nodes = (
(133,0,o),
(140,15,o),
(142,27,cs),
(228,518,ls),
(235,558,o),
(264,600,o),
(297,600,cs),
(391,600,ls),
(408,600,o),
(416,614,o),
(416,625,cs),
(416,635,o),
(408,650,o),
(391,650,cs),
(297,650,ls),
(247,650,o),
(195,616,o),
(179,527,cs),
(91,28,ls),
(89,16,o),
(98,0,o),
(116,0,cs)
);
},
{
closed = 1;
nodes = (
(268,305,ls),
(288,305,o),
(294,316,o),
(294,328,cs),
(294,340,o),
(288,350,o),
(268,350,cs),
(74,350,ls),
(54,350,o),
(48,340,o),
(48,328,cs),
(48,316,o),
(54,305,o),
(74,305,cs)
);
}
);
width = 282;
},
{
layerId = m002;
shapes = (
{
closed = 1;
nodes = (
(183,-2,o),
(202,18,o),
(206,42,cs),
(287,502,ls),
(293,534,o),
(309,560,o),
(326,560,cs),
(414,560,ls),
(443,560,o),
(463,584,o),
(463,607,cs),
(463,629,o),
(443,650,o),
(414,650,cs),
(326,650,ls),
(268,650,o),
(206,614,o),
(189,519,cs),
(106,49,ls),
(102,26,o),
(122,-2,o),
(156,-2,cs)
);
},
{
closed = 1;
nodes = (
(296,265,ls),
(326,265,o),
(345,281,o),
(345,307,cs),
(345,331,o),
(328,350,o),
(296,350,cs),
(113,350,ls),
(82,350,o),
(64,331,o),
(64,307,cs),
(64,283,o),
(82,265,o),
(113,265,cs)
);
}
);
width = 315;
}
);
metricLeft = t;
unicode = 102;
},
{
glyphname = g;
lastChange = "2022-02-24 21:37:53 +0000";
layers = (
{
layerId = m01;
shapes = (
{
closed = 1;
nodes = (
(27,-300,o),
(116,-295,o),
(149,-290,cs),
(203,-282,o),
(243,-254,o),
(268,-212,cs),
(301,-159,o),
(310,-83,o),
(325,1,cs),
(383,326,ls),
(386,343,o),
(375,350,o),
(358,350,c),
(333,350,l),
(309,198,l),
(274,1,ls),
(262,-67,o),
(255,-138,o),
(226,-185,cs),
(208,-215,o),
(181,-236,o),
(135,-241,cs),
(112,-244,o),
(20,-250,o),
(5,-250,cs),
(-16,-250,o),
(-29,-262,o),
(-29,-276,cs),
(-29,-291,o),
(-16,-300,o),
(9,-300,cs)
);
},
{
closed = 1;
nodes = (
(152,-4,o),
(200,50,o),
(234,93,cs),
(290,163,o),
(338,240,o),
(361,292,cs),
(365,301,l),
(320,301,l),
(291,254,o),
(258,205,o),
(220,157,cs),
(158,77,o),
(120,47,o),
(101,47,cs),
(87,47,o),
(87,62,o),
(87,78,cs),
(87,116,o),
(105,206,o),
(131,245,cs),
(161,290,o),
(212,300,o),
(246,300,cs),
(253,300,o),
(321,300,o),
(329,300,c),
(340,300,l),
(340,302,o),
(340,347,o),
(340,350,c),
(328,350,o),
(266,350,o),
(246,350,cs),
(189,350,o),
(130,333,o),
(92,276,cs),
(60,228,o),
(37,131,o),
(37,73,cs),
(37,22,o),
(57,-4,o),
(90,-4,cs)
);
}
);
width = 411;
},
{
layerId = m002;
shapes = (
{
closed = 1;
nodes = (
(107,-300,o),
(193,-294,o),
(225,-289,cs),
(283,-281,o),
(328,-253,o),
(354,-210,cs),
(388,-154,o),
(397,-80,o),
(411,-2,cs),
(466,305,l),
(470,335,o),
(444,350,o),
(417,350,cs),
(372,350,l),
(346,192,l),
(313,6,ls),
(302,-58,o),
(296,-122,o),
(272,-161,cs),
(256,-187,o),
(240,-199,o),
(205,-203,cs),
(183,-206,o),
(98,-209,o),
(85,-209,cs),
(53,-209,o),
(28,-229,o),
(28,-255,cs),
(28,-279,o),
(49,-300,o),
(89,-300,cs)
);
},
{
closed = 1;
nodes = (
(229,-4,o),
(281,54,o),
(311,92,cs),
(362,156,o),
(400,228,o),
(427,271,cs),
(450,308,l),
(366,308,l),
(338,262,o),
(312,217,o),
(278,173,cs),
(242,127,o),
(199,84,o),
(189,84,cs),
(184,84,o),
(183,99,o),
(183,108,cs),
(183,123,o),
(198,197,o),
(220,228,cs),
(242,260,o),
(274,263,o),
(311,263,cs),
(317,263,o),
(377,263,o),
(384,263,cs),
(418,263,l),
(418,288,o),
(418,328,o),
(418,350,c),
(395,350,o),
(330,350,o),
(311,350,cs),
(255,350,o),
(183,336,o),
(144,279,cs),
(113,231,o),
(89,151,o),
(89,85,cs),
(89,22,o),
(122,-4,o),
(161,-4,cs)
);
}
);
width = 553;
}
);
metricLeft = o;
metricRight = n;
unicode = 103;
},
{
glyphname = h;
lastChange = "2022-02-24 21:32:02 +0000";
layers = (
{
layerId = m01;
shapes = (
{
closed = 1;
nodes = (
(331,0,o),
(333,18,o),
(334,23,cs),
(373,234,ls),
(384,291,o),
(373,354,o),
(316,354,cs),
(222,354,o),
(126,185,o),
(68,98,c),
(76,14,l),
(145,129,o),
(257,305,o),
(308,305,cs),
(333,305,o),
(327,261,o),
(322,234,cs),
(283,23,ls),
(282,15,o),
(283,0,o),
(305,0,c)
);
},
{
closed = 1;
nodes = (
(62,0,o),
(76,7,o),
(79,23,cs),
(185,623,ls),
(188,641,o),
(177,650,o),
(164,650,cs),
(151,650,o),
(137,641,o),
(134,623,cs),
(28,23,ls),
(25,8,o),
(36,0,o),
(49,0,cs)
);
}
);
width = 418;
},
{
layerId = m002;
shapes = (
{
closed = 1;
nodes = (
(411,-1,o),
(428,22,o),
(431,37,cs),
(465,223,ls),
(477,287,o),
(453,355,o),
(385,355,cs),
(281,355,o),
(211,243,o),
(162,171,c),
(187,33,l),
(243,141,o),
(340,271,o),
(362,271,cs),
(374,271,o),
(370,256,o),
(365,231,cs),
(331,45,ls),
(327,21,o),
(343,-1,o),
(375,-1,cs)
);
},
{
closed = 1;
nodes = (
(156,-2,o),
(183,11,o),
(188,37,cs),
(287,601,ls),
(293,633,o),
(268,653,o),
(241,653,cs),
(217,653,o),
(192,637,o),
(187,609,cs),
(88,45,ls),
(83,17,o),
(105,-2,o),
(132,-2,cs)
);
}
);
width = 567;
}
);
metricLeft = n;
metricRight = n;
unicode = 104;
},
{
glyphname = i;
lastChange = "2022-02-24 21:32:02 +0000";
layers = (
{
layerId = m01;
shapes = (
{
closed = 1;
nodes = (
(27,9,o),
(38,0,o),
(51,0,cs),
(63,0,o),
(78,10,o),
(81,28,cs),
(133,320,ls),
(137,340,o),
(125,350,o),
(113,350,cs),
(100,350,o),
(85,341,o),
(82,323,cs),
(30,28,ls)
);
},
{
closed = 1;
nodes = (
(149,441,o),
(162,454,o),
(162,468,cs),
(162,483,o),
(148,494,o),
(134,494,cs),
(118,494,o),
(107,481,o),
(107,468,cs),
(107,454,o),
(119,441,o),
(134,441,cs)
);
}
);
width = 166;
},
{
layerId = m002;
shapes = (
{
closed = 1;
nodes = (
(83,19,o),
(106,0,o),
(132,0,cs),
(154,0,o),
(183,10,o),
(188,37,cs),
(233,294,ls),
(239,327,o),
(212,350,o),
(187,350,cs),
(163,350,o),
(138,332,o),
(133,305,cs),
(88,49,ls)
);
},
{
closed = 1;
nodes = (
(238,417,o),
(261,439,o),
(261,466,cs),
(261,495,o),
(237,515,o),
(211,515,cs),
(184,515,o),
(163,493,o),
(163,466,cs),
(163,439,o),
(185,417,o),
(211,417,cs)
);
}
);
width = 322;
}
);
metricLeft = n;
metricRight = n;
unicode = 105;
},
{
glyphname = j;
lastChange = "2022-02-24 21:37:34 +0000";
layers = (
{
layerId = m01;
shapes = (
{
closed = 1;
nodes = (
(-221,-300,o),
(-133,-299,o),
(-100,-294,cs),
(-46,-286,o),
(-7,-257,o),
(18,-217,cs),
(52,-163,o),
(61,-87,o),
(76,-3,cs),
(133,317,ls),
(137,338,o),
(124,350,o),
(110,350,cs),
(98,350,o),
(84,341,o),
(80,320,cs),
(25,-3,ls),
(13,-71,o),
(5,-142,o),
(-23,-189,cs),
(-41,-219,o),
(-68,-240,o),
(-116,-246,cs),
(-137,-248,o),
(-220,-250,o),
(-239,-250,cs),
(-265,-250,o),
(-278,-263,o),
(-278,-277,cs),
(-278,-292,o),
(-264,-300,o),
(-240,-300,cs)
);
},
{
closed = 1;
nodes = (
(148,440,o),
(161,453,o),
(161,468,cs),
(161,484,o),
(148,495,o),
(133,495,cs),
(118,495,o),
(106,484,o),
(106,468,cs),
(106,453,o),
(118,440,o),
(133,440,cs)
);
}
);
width = 165;
},
{
layerId = m002;
shapes = (
{
closed = 1;
nodes = (
(-167,-300,o),
(-82,-300,o),
(-50,-295,cs),
(8,-285,o),
(52,-256,o),
(78,-215,cs),
(113,-158,o),
(122,-83,o),
(136,-5,cs),
(190,295,ls),
(196,330,o),
(170,350,o),
(143,350,cs),
(121,350,o),
(95,337,o),
(90,306,cs),
(38,3,ls),
(27,-62,o),
(20,-126,o),
(-3,-165,cs),
(-19,-190,o),
(-35,-203,o),
(-72,-208,cs),
(-91,-210,o),
(-168,-209,o),
(-185,-209,cs),
(-222,-209,o),
(-247,-231,o),
(-247,-257,cs),
(-247,-282,o),
(-225,-300,o),
(-186,-300,cs)
);
},
{
closed = 1;
nodes = (
(189,417,o),
(213,439,o),
(213,467,cs),
(213,496,o),
(189,516,o),
(163,516,cs),
(137,516,o),
(114,496,o),
(114,467,cs),
(114,439,o),
(137,417,o),
(163,417,cs)
);
}
);
width = 279;
}
);
metricRight = n;
unicode = 106;
},
{
glyphname = k;
lastChange = "2022-02-24 21:32:02 +0000";
layers = (
{
layerId = m01;
shapes = (
{
closed = 1;
nodes = (
(65,0,o),
(77,7,o),
(80,26,cs),
(185,621,ls),
(189,642,o),
(177,650,o),
(161,650,cs),
(146,650,o),
(137,639,o),
(134,622,cs),
(29,26,ls),
(26,10,o),
(36,0,o),
(49,0,cs)
);
},
{
closed = 1;
nodes = (
(311,-1,o),
(321,5,o),
(324,16,cs),
(326,23,o),
(325,31,o),
(318,41,cs),
(226,174,l),
(162,174,l),
(271,18,ls),
(278,8,o),
(288,-1,o),
(301,-1,cs)
);
},
{
closed = 1;
nodes = (
(92,122,o),
(130,170,o),
(159,210,cs),
(176,234,o),
(200,258,o),
(218,273,cs),
(238,289,o),
(265,304,o),
(278,304,cs),
(294,304,o),
(291,279,o),
(289,271,cs),
(284,245,o),
(266,236,o),
(240,219,cs),
(220,205,o),
(191,189,o),
(162,174,c),
(219,146,l),
(238,158,o),
(256,169,o),
(273,181,cs),
(306,205,o),
(331,228,o),
(339,272,cs),
(345,310,o),
(337,354,o),
(288,354,cs),
(257,354,o),
(220,337,o),
(188,312,cs),
(161,291,o),
(106,225,o),
(89,201,c),
(61,39,l)
);
}
);
width = 391;
},
{
layerId = m002;
shapes = (
{
closed = 1;
nodes = (
(158,-2,o),
(181,11,o),
(186,40,cs),
(284,599,ls),
(290,633,o),
(267,653,o),
(237,653,cs),
(214,653,o),
(191,638,o),
(186,608,cs),
(88,48,ls),
(83,19,o),
(104,-2,o),
(131,-2,cs)
);
},
{
closed = 1;
nodes = (
(412,-2,o),
(432,11,o),
(436,31,c),
(440,43,o),
(438,55,o),
(428,69,cs),
(352,181,l),
(238,181,l),
(345,25,ls),
(356,9,o),
(374,-2,o),
(392,-2,cs)
);
},
{
closed = 1;
nodes = (
(196,120,o),
(221,185,o),
(248,218,cs),
(265,238,o),
(283,257,o),
(297,268,cs),
(314,283,o),
(333,288,o),
(346,284,cs),
(353,282,o),
(356,272,o),
(355,266,cs),
(353,256,o),
(338,240,o),
(313,224,cs),
(296,213,o),
(273,198,o),
(238,181,c),
(366,152,l),
(369,154,o),
(355,160,o),
(359,163,cs),
(388,185,o),
(435,221,o),
(444,267,cs),
(452,316,o),
(415,354,o),
(353,354,cs),
(310,354,o),
(269,347,o),
(239,324,cs),
(208,300,o),
(166,249,o),
(155,238,c),
(186,98,l)
);
}
);
width = 472;
}
);
metricLeft = n;
unicode = 107;
},
{
glyphname = l;
lastChange = "2022-02-24 21:32:02 +0000";
layers = (
{
layerId = m01;
shapes = (
{
closed = 1;
nodes = (
(64,0,o),
(75,7,o),
(78,22,cs),
(184,624,ls),
(187,640,o),
(174,650,o),
(160,650,cs),
(149,650,o),
(138,644,o),
(135,629,cs),
(29,27,ls),
(26,9,o),
(39,0,o),
(53,0,cs)
);
}
);
width = 160;
},
{
layerId = m002;
shapes = (
{
closed = 1;
nodes = (
(156,0,o),
(182,15,o),
(187,44,cs),
(285,599,ls),
(291,631,o),
(264,650,o),
(236,650,cs),
(214,650,o),
(192,640,o),
(187,612,cs),
(88,50,ls),
(82,15,o),
(111,0,o),
(134,0,cs)
);
}
);
width = 320;
}
);
metricLeft = n;
metricRight = n;
unicode = 108;
},
{
glyphname = m;
lastChange = "2022-02-24 21:32:02 +0000";
layers = (
{
layerId = m01;
shapes = (
{
closed = 1;
nodes = (
(316,0,o),
(318,17,o),
(319,22,cs),
(358,233,ls),
(369,290,o),
(361,353,o),
(300,353,cs),
(208,353,o),
(139,208,o),
(81,121,c),
(74,10,l),
(143,125,o),
(242,304,o),
(293,304,cs),
(318,304,o),
(312,260,o),
(307,233,cs),
(268,22,ls),
(267,14,o),
(268,0,o),
(290,0,c)
);
},
{
closed = 1;
nodes = (
(76,0,o),
(78,18,o),
(79,23,cs),
(132,323,ls),
(135,340,o),
(131,350,o),
(114,350,c),
(95,350,o),
(84,342,o),
(81,323,cs),
(28,23,ls),
(27,15,o),
(28,0,o),
(50,0,cs)
);
},
{
closed = 1;
nodes = (
(557,0,o),
(559,18,o),
(560,23,cs),
(599,234,ls),
(610,291,o),
(602,354,o),
(541,354,cs),
(450,354,o),
(380,211,o),
(322,124,c),
(315,11,l),
(384,126,o),
(483,305,o),
(534,305,cs),
(559,305,o),
(553,261,o),
(548,234,cs),
(509,23,ls),
(508,15,o),
(509,0,o),
(531,0,c)
);
}
);
width = 644;
},
{
layerId = m002;
shapes = (
{
closed = 1;
nodes = (
(402,0,o),
(414,21,o),
(417,37,cs),
(451,222,ls),
(463,288,o),
(441,354,o),
(369,354,cs),
(267,354,o),
(222,256,o),
(172,196,c),
(179,30,l),
(204,74,o),
(316,276,o),
(355,276,cs),
(363,276,o),
(361,255,o),
(356,230,cs),
(322,45,ls),
(317,20,o),
(334,0,o),
(366,0,cs)
);
},
{
closed = 1;
nodes = (
(166,0,o),
(184,23,o),
(187,37,cs),
(234,302,ls),
(239,331,o),
(222,350,o),
(193,350,cs),
(164,350,o),
(142,337,o),
(134,309,c),
(87,43,ls),
(82,15,o),
(100,0,o),
(129,0,cs)
);
},
{
closed = 1;
nodes = (
(641,0,o),
(657,22,o),
(660,37,cs),
(693,223,ls),
(705,289,o),
(693,354,o),
(621,354,cs),
(520,354,o),
(467,270,o),
(417,197,c),
(413,30,l),
(447,77,o),
(564,276,o),
(589,276,cs),
(600,276,o),
(597,256,o),
(593,231,cs),
(560,45,ls),
(556,21,o),
(573,0,o),
(605,0,cs)
);
}
);
width = 795;
}
);
metricLeft = n;
metricRight = n;
unicode = 109;
},
{
glyphname = n;
lastChange = "2022-02-24 21:31:21 +0000";
layers = (
{
layerId = m01;
shapes = (
{
closed = 1;
nodes = (
(331,0,o),
(333,18,o),
(334,23,cs),
(373,234,ls),
(384,291,o),
(376,354,o),
(316,354,cs),
(224,354,o),
(139,206,o),
(81,119,c),
(74,11,l),
(143,126,o),
(257,305,o),
(308,305,cs),
(333,305,o),
(327,261,o),
(322,234,cs),
(283,23,ls),
(282,15,o),
(283,0,o),
(305,0,c)
);
},
{
closed = 1;
nodes = (
(76,0,o),
(78,18,o),
(79,23,cs),
(132,323,ls),
(134,340,o),
(131,350,o),
(114,350,c),
(94,350,o),
(85,341,o),
(81,323,cs),
(28,23,ls),
(27,15,o),
(28,0,o),
(50,0,cs)
);
}
);
width = 418;
},
{
layerId = m002;
shapes = (
{
closed = 1;
nodes = (
(403,0,o),
(414,20,o),
(418,42,cs),
(451,222,ls),
(463,288,o),
(441,354,o),
(370,354,cs),
(269,354,o),
(230,268,o),
(172,196,c),
(179,30,l),
(214,91,o),
(317,276,o),
(355,276,cs),
(363,276,o),
(361,256,o),
(356,231,cs),
(322,44,ls),
(318,20,o),
(333,0,o),
(366,0,cs)
);
},
{
closed = 1;
nodes = (
(165,0,o),
(184,22,o),
(187,37,cs),
(234,302,ls),
(239,332,o),
(223,350,o),
(191,350,cs),
(149,350,o),
(136,320,o),
(134,308,cs),
(87,44,ls),
(83,20,o),
(94,0,o),
(128,0,cs)
);
}
);
width = 553;
}
);
unicode = 110;
},
{
glyphname = o;
lastChange = "2022-02-24 21:31:47 +0000";
layers = (
{
layerId = m01;
shapes = (
{
closed = 1;
nodes = (
(209,-4,o),
(315,158,o),
(315,260,cs),
(315,319,o),
(280,351,o),
(210,351,cs),
(151,351,o),
(112,314,o),
(88,271,cs),
(70,237,o),
(41,170,o),
(41,95,cs),
(41,20,o),
(66,-4,o),
(106,-4,cs)
);
},
{
closed = 1;
nodes = (
(91,46,o),
(91,77,o),
(91,105,cs),
(91,152,o),
(110,203,o),
(134,251,cs),
(155,287,o),
(177,301,o),
(207,301,cs),
(247,301,o),
(265,287,o),
(265,247,cs),
(265,182,o),
(175,46,o),
(118,46,cs)
);
}
);
width = 356;
},
{
layerId = m002;
shapes = (
{
closed = 1;
nodes = (
(297,-4,o),
(407,152,o),
(407,250,cs),
(407,314,o),
(356,352,o),
(280,352,cs),
(215,352,o),
(164,312,o),
(141,270,cs),
(124,238,o),
(91,174,o),
(91,104,cs),
(91,24,o),
(139,-4,o),
(189,-4,cs)
);
},
{
closed = 1;
nodes = (
(193,83,o),
(190,94,o),
(190,113,cs),
(190,151,o),
(211,189,o),
(232,230,cs),
(248,257,o),
(262,264,o),
(278,264,cs),
(298,264,o),
(307,255,o),
(307,236,cs),
(307,185,o),
(235,83,o),
(199,83,cs)
);
}
);
width = 502;
}
);
unicode = 111;
},
{
glyphname = p;
lastChange = "2022-02-24 21:32:02 +0000";
layers = (
{
layerId = m01;
shapes = (
{
closed = 1;
nodes = (
(83,0,o),
(145,0,o),
(165,0,cs),
(222,0,o),
(281,17,o),
(319,74,cs),
(351,122,o),
(374,219,o),
(374,277,cs),
(374,328,o),
(354,354,o),
(321,354,cs),
(263,354,o),
(211,300,o),
(174,253,cs),
(121,187,o),
(70,114,o),
(50,60,cs),
(46,49,l),
(91,49,l),
(119,96,o),
(152,145,o),
(207,214,cs),
(254,273,o),
(291,303,o),
(306,303,cs),
(324,303,o),
(324,288,o),
(324,272,cs),
(324,235,o),
(306,144,o),
(280,105,cs),
(250,60,o),
(199,50,o),
(165,50,cs),
(158,50,o),
(90,50,o),
(82,50,c),
(71,50,l),
(71,48,o),
(71,3,o),
(71,0,c)
);
},
{
closed = 1;
nodes = (
(9,-300,o),
(23,-292,o),
(26,-277,cs),
(133,327,ls),
(136,342,o),
(124,350,o),
(111,350,cs),
(99,350,o),
(85,342,o),
(82,327,cs),
(-25,-276,ls),
(-28,-292,o),
(-16,-300,o),
(-3,-300,cs)
);
}
);
width = 414;
},
{
layerId = m002;
shapes = (
{
closed = 1;
nodes = (
(168,0,o),
(233,0,o),
(252,0,cs),
(299,0,o),
(364,16,o),
(403,73,cs),
(434,121,o),
(456,211,o),
(456,265,cs),
(456,332,o),
(435,354,o),
(392,354,cs),
(333,354,o),
(259,290,o),
(224,243,cs),
(174,176,o),
(129,114,o),
(120,80,cs),
(110,42,l),
(180,42,l),
(212,96,o),
(241,147,o),
(285,201,cs),
(324,249,o),
(351,266,o),
(355,266,cs),
(360,266,o),
(361,256,o),
(361,251,cs),
(361,220,o),
(348,158,o),
(329,129,cs),
(306,95,o),
(276,87,o),
(252,87,cs),
(246,87,o),
(186,87,o),
(179,87,cs),
(145,87,l),
(145,62,o),
(145,22,o),
(145,0,c)
);
},
{
closed = 1;
nodes = (
(105,-303,o),
(131,-288,o),
(135,-263,cs),
(234,299,ls),
(239,327,o),
(216,350,o),
(189,350,cs),
(166,350,o),
(138,335,o),
(134,310,cs),
(35,-254,ls),
(30,-283,o),
(55,-303,o),
(82,-303,cs)
);
}
);
width = 550;
}
);
metricLeft = n;
metricRight = o;
unicode = 112;
},
{
glyphname = q;
lastChange = "2022-02-24 21:15:17 +0000";
layers = (
{
layerId = m01;
shapes = (
{
closed = 1;
nodes = (
(148,-4,o),
(200,50,o),
(241,101,cs),
(290,163,o),
(338,240,o),
(361,292,cs),
(365,301,l),
(320,301,l),
(292,254,o),
(259,205,o),
(218,153,cs),
(157,77,o),
(120,47,o),
(101,47,cs),
(87,47,o),
(87,62,o),
(87,78,cs),
(87,116,o),
(105,206,o),
(131,245,cs),
(161,290,o),
(212,300,o),
(246,300,cs),
(253,300,o),
(321,300,o),
(329,300,c),
(340,300,l),
(340,302,o),
(340,347,o),
(340,350,c),
(328,350,o),
(266,350,o),
(246,350,cs),
(189,350,o),
(130,333,o),
(92,276,cs),
(60,228,o),
(37,131,o),
(37,73,cs),
(37,22,o),
(57,-4,o),
(90,-4,cs)
);
},
{
closed = 1;
nodes = (
(383,327,ls),
(384,335,o),
(383,350,o),
(361,350,cs),
(336,350,l),
(225,-273,ls),
(222,-291,o),
(232,-300,o),
(244,-300,cs),
(257,-300,o),
(272,-291,o),
(275,-273,cs)
);
},
{
closed = 1;
nodes = (
(262,-294,l),
(370,-205,ls),
(382,-195,o),
(387,-185,o),
(389,-176,cs),
(390,-164,o),
(382,-154,o),
(369,-154,cs),
(361,-153,o),
(350,-157,o),
(338,-167,cs),
(256,-235,l)
);
}
);
width = 411;
},
{
layerId = m002;
shapes = (
{
closed = 1;
nodes = (
(209,-4,o),
(276,51,o),
(330,118,cs),
(376,176,o),
(408,223,o),
(421,269,cs),
(432,307,l),
(363,306,l),
(337,261,o),
(311,215,o),
(273,167,cs),
(220,101,o),
(194,84,o),
(189,84,cs),
(184,84,o),
(183,97,o),
(183,102,cs),
(183,134,o),
(197,194,o),
(217,224,cs),
(238,256,o),
(269,263,o),
(297,263,cs),
(303,263,o),
(363,263,o),
(370,263,cs),
(405,263,l),
(405,288,o),
(405,328,o),
(405,350,c),
(382,350,o),
(317,350,o),
(297,350,cs),
(242,350,o),
(179,332,o),
(141,275,cs),
(109,228,o),
(89,139,o),
(89,85,cs),
(89,22,o),
(107,-4,o),
(146,-4,cs)
);
},
{
closed = 1;
nodes = (
(458,306,ls),
(462,328,o),
(446,350,o),
(413,350,cs),
(368,350,l),
(261,-251,ls),
(255,-283,o),
(276,-303,o),
(303,-303,cs),
(326,-303,o),
(353,-287,o),
(358,-259,cs)
);
},
{
closed = 1;
nodes = (
(343,-287,l),
(437,-208,ls),
(452,-196,o),
(463,-182,o),
(465,-169,cs),
(469,-144,o),
(449,-125,o),
(424,-124,cs),
(411,-123,o),
(395,-128,o),
(379,-141,cs),
(297,-208,l)
);
}
);
width = 462;
}
);
metricLeft = o;
unicode = 113;
},
{
glyphname = r;
lastChange = "2022-02-24 21:32:02 +0000";
layers = (
{
layerId = m01;
shapes = (
{
closed = 1;
nodes = (
(131,163,o),
(153,194,o),
(182,228,cs),
(200,249,o),
(224,275,o),
(245,289,cs),
(258,298,o),
(265,301,o),
(271,301,cs),
(282,301,o),
(290,271,o),
(291,268,cs),
(296,249,o),
(304,241,o),
(319,241,cs),
(338,241,o),
(342,253,o),
(341,265,cs),
(340,281,o),
(329,329,o),
(313,341,cs),
(308,345,o),
(297,350,o),
(276,350,cs),
(263,350,o),
(243,348,o),
(221,334,cs),
(204,323,o),
(178,300,o),
(151,271,cs),
(135,254,o),
(117,233,o),
(108,216,c),
(86,91,l)
);
},
{
closed = 1;
nodes = (
(63,0,o),
(77,9,o),
(80,27,cs),
(131,320,ls),
(134,340,o),
(123,350,o),
(110,350,cs),
(98,350,o),
(84,341,o),
(81,323,cs),
(29,27,ls),
(26,9,o),
(37,0,o),
(50,0,cs)
);
}
);
width = 356;
},
{
layerId = m002;
shapes = (
{
closed = 1;
nodes = (
(200,109,o),
(246,180,o),
(259,196,cs),
(272,212,o),
(287,228,o),
(298,239,cs),
(307,248,o),
(318,258,o),
(321,258,cs),
(326,258,o),
(329,250,o),
(331,244,cs),
(337,224,o),
(354,211,o),
(377,211,cs),
(401,211,o),
(415,228,o),
(415,256,cs),
(415,274,o),
(405,318,o),
(383,337,cs),
(377,343,o),
(361,351,o),
(333,351,cs),
(320,351,o),
(295,348,o),
(271,333,cs),
(254,322,o),
(228,300,o),
(205,274,cs),
(188,257,o),
(168,233,o),
(161,217,c),
(161,46,l)
);
},
{
closed = 1;
nodes = (
(157,-1,o),
(183,14,o),
(188,41,cs),
(233,297,ls),
(239,329,o),
(213,351,o),
(187,351,cs),
(165,351,o),
(139,336,o),
(134,309,cs),
(88,48,ls),
(83,18,o),
(108,-1,o),
(134,-1,cs)
);
}
);
width = 425;
}
);
metricLeft = n;
unicode = 114;
},
{
glyphname = s;
lastChange = "2022-02-24 21:32:02 +0000";
layers = (
{
layerId = m01;
shapes = (
{
closed = 1;
nodes = (
(131,0,ls),
(191,0,o),
(253,16,o),
(263,80,cs),
(269,117,o),
(255,144,o),
(236,159,cs),
(217,174,o),
(177,200,o),
(145,226,cs),
(130,238,o),
(116,251,o),
(116,263,cs),
(116,281,o),
(151,300,o),
(183,300,cs),
(278,300,ls),
(291,300,o),
(306,308,o),
(306,325,cs),
(306,349,o),
(291,350,o),
(263,350,cs),
(183,350,ls),
(123,350,o),
(68,316,o),
(66,262,cs),
(65,224,o),
(91,202,o),
(119,182,cs),
(146,163,o),
(179,143,o),
(193,132,cs),
(206,121,o),
(216,107,o),
(213,88,cs),
(208,55,o),
(172,50,o),
(131,50,cs),
(56,50,ls),
(40,50,o),
(25,45,o),
(25,25,cs),
(25,6,o),
(40,0,o),
(55,0,cs)
);
}
);
width = 333;
},
{
layerId = m002;
shapes = (
{
closed = 1;
nodes = (
(198,0,ls),
(257,0,o),
(327,18,o),
(339,87,cs),
(346,127,o),
(329,160,o),
(306,178,cs),
(290,191,o),
(255,214,o),
(225,237,cs),
(215,246,o),
(210,250,o),
(210,254,cs),
(210,258,o),
(223,263,o),
(244,263,cs),
(329,263,ls),
(353,263,o),
(378,279,o),
(378,307,cs),
(378,340,o),
(355,351,o),
(315,351,cs),
(244,351,ls),
(180,351,o),
(119,314,o),
(116,253,cs),
(115,208,o),
(146,183,o),
(173,163,cs),
(195,147,o),
(223,132,o),
(236,121,cs),
(245,114,o),
(249,110,o),
(247,101,cs),
(245,88,o),
(232,87,o),
(198,87,cs),
(130,87,ls),
(101,87,o),
(78,72,o),
(78,43,cs),
(78,15,o),
(100,0,o),
(129,0,cs)
);
}
);
width = 461;
}
);
metricLeft = o;
metricRight = o;
unicode = 115;
},
{
glyphname = t;
lastChange = "2022-02-24 20:45:16 +0000";
layers = (
{
layerId = m01;
shapes = (
{
closed = 1;
nodes = (
(137,0,o),
(150,7,o),
(153,23,cs),
(243,540,ls),
(246,558,o),
(232,568,o),
(218,568,cs),
(207,568,o),
(197,561,o),
(194,547,cs),
(101,24,ls),
(98,8,o),
(111,0,o),
(124,0,cs)
);
},
{
closed = 1;
nodes = (
(298,305,ls),
(318,305,o),
(324,316,o),
(324,328,cs),
(324,340,o),
(318,350,o),
(298,350,cs),
(74,350,ls),
(54,350,o),
(48,340,o),
(48,328,cs),
(48,316,o),
(54,305,o),
(74,305,cs)
);
}
);
width = 313;
},
{
layerId = m002;
shapes = (
{
closed = 1;
nodes = (
(189,0,o),
(211,9,o),
(216,35,cs),
(302,523,ls),
(308,557,o),
(279,568,o),
(252,568,cs),
(230,568,o),
(207,555,o),
(203,532,cs),
(117,44,ls),
(111,12,o),
(138,0,o),
(164,0,cs)
);
},
{
closed = 1;
nodes = (
(327,283,ls),
(359,283,o),
(377,301,o),
(377,325,cs),
(377,350,o),
(359,368,o),
(327,368,cs),
(117,368,ls),
(85,368,o),
(67,350,o),
(67,325,cs),
(67,301,o),
(85,283,o),
(117,283,cs)
);
}
);
width = 381;
}
);
unicode = 116;
},
{
glyphname = u;
lastChange = "2022-02-24 21:32:02 +0000";
layers = (
{
layerId = m01;
shapes = (
{
closed = 1;
nodes = (
(189,-4,o),
(295,163,o),
(350,251,c),
(344,337,l),
(275,222,o),
(161,45,o),
(110,45,cs),
(85,45,o),
(91,89,o),
(96,116,cs),
(132,321,ls),
(135,340,o),
(124,350,o),
(112,350,cs),
(99,350,o),
(84,341,o),
(81,322,cs),
(45,116,ls),
(35,59,o),
(42,-4,o),
(100,-4,cs)
);
},
{
closed = 1;
nodes = (
(318,-1,o),
(332,7,o),
(336,31,cs),
(388,323,ls),
(391,340,o),
(387,350,o),
(370,350,c),
(351,350,o),
(340,342,o),
(337,323,cs),
(285,31,ls),
(282,12,o),
(293,-1,o),
(307,-1,cs)
);
}
);
width = 417;
},
{
layerId = m002;
shapes = (
{
closed = 1;
nodes = (
(281,-4,o),
(315,72,o),
(381,153,c),
(371,314,l),
(324,231,o),
(233,74,o),
(198,74,cs),
(190,74,o),
(193,94,o),
(197,119,cs),
(229,299,ls),
(235,333,o),
(219,350,o),
(187,350,cs),
(162,350,o),
(140,340,o),
(134,308,cs),
(102,127,ls),
(90,58,o),
(114,-4,o),
(181,-4,cs)
);
},
{
closed = 1;
nodes = (
(385,0,o),
(413,11,o),
(419,44,cs),
(465,305,ls),
(470,336,o),
(451,350,o),
(426,350,cs),
(399,350,o),
(369,336,o),
(364,309,cs),
(319,52,ls),
(312,14,o),
(333,0,o),
(363,0,cs)
);
}
);
width = 552;
}
);
metricLeft = n;
metricRight = n;
unicode = 117;
},
{
glyphname = v;
lastChange = "2022-02-24 21:32:02 +0000";
layers = (
{
layerId = m01;
shapes = (
{
closed = 1;
nodes = (
(114,-4,o),
(140,7,o),
(165,25,cs),
(203,53,o),
(243,100,o),
(269,138,cs),
(303,186,o),
(349,269,o),
(359,288,cs),
(382,333,o),
(372,350,o),
(352,350,cs),
(334,350,o),
(328,337,o),
(316,315,cs),
(298,280,o),
(269,229,o),
(238,183,cs),
(205,133,o),
(170,89,o),
(136,63,cs),
(122,52,o),
(113,47,o),
(104,47,cs),
(96,47,o),
(89,51,o),
(88,60,cs),
(86,69,o),
(90,86,o),
(93,102,cs),
(132,320,ls),
(136,340,o),
(124,350,o),
(111,350,cs),
(99,350,o),
(84,341,o),
(81,323,cs),
(42,102,ls),
(37,76,o),
(36,49,o),
(43,28,cs),
(50,9,o),
(64,-4,o),
(90,-4,cs)
);
},
{
closed = 1;
nodes = (
(340,294,l),
(384,230,ls),
(391,220,o),
(401,211,o),
(414,211,cs),
(424,211,o),
(434,217,o),
(437,228,cs),
(439,235,o),
(438,243,o),
(431,253,cs),
(368,344,l)
);
}
);
width = 425;
},
{
layerId = m002;
shapes = (
{
closed = 1;
nodes = (
(197,-4,o),
(236,4,o),
(270,27,cs),
(310,54,o),
(346,97,o),
(368,129,cs),
(400,173,o),
(448,248,o),
(455,264,c),
(493,336,o),
(449,351,o),
(427,351,cs),
(400,351,o),
(387,338,o),
(371,308,cs),
(363,293,o),
(345,262,o),
(319,223,cs),
(290,179,o),
(282,168,o),
(264,143,cs),
(251,126,o),
(235,106,o),
(225,96,cs),
(217,88,o),
(205,78,o),
(201,78,cs),
(195,78,o),
(198,107,o),
(207,157,cs),
(233,298,ls),
(239,331,o),
(216,351,o),
(189,351,cs),
(167,351,o),
(138,335,o),
(133,308,cs),
(99,115,ls),
(95,90,o),
(97,62,o),
(104,39,cs),
(115,12,o),
(136,-4,o),
(169,-4,cs)
);
},
{
closed = 1;
nodes = (
(389,278,l),
(434,212,ls),
(445,196,o),
(461,184,o),
(482,184,cs),
(501,184,o),
(520,196,o),
(526,214,cs),
(530,229,o),
(527,241,o),
(517,256,cs),
(464,334,l)
);
}
);
width = 503;
}
);
metricLeft = n;
unicode = 118;
},
{
glyphname = w;
lastChange = "2022-02-25 08:56:41 +0000";
layers = (
{
layerId = m01;
shapes = (
{
closed = 1;
nodes = (
(114,-4,o),
(140,7,o),
(165,25,cs),
(203,53,o),
(243,100,o),
(269,138,cs),
(304,189,o),
(332,248,o),
(342,267,c),
(353,350,l),
(335,350,o),
(328,337,o),
(316,315,cs),
(298,280,o),
(269,229,o),
(238,183,cs),
(205,133,o),
(170,89,o),
(136,63,cs),
(122,52,o),
(113,47,o),
(104,47,cs),
(96,47,o),
(89,51,o),
(88,60,cs),
(86,69,o),
(90,86,o),
(93,102,cs),
(132,320,ls),
(136,340,o),
(124,350,o),
(111,350,cs),
(99,350,o),
(84,341,o),
(81,323,cs),
(42,102,ls),
(37,76,o),
(36,49,o),
(43,28,cs),
(50,9,o),
(64,-4,o),
(90,-4,cs)
);
},
{
closed = 1;
nodes = (
(356,-4,o),
(382,7,o),
(407,25,cs),
(445,53,o),
(485,100,o),
(511,138,cs),
(545,186,o),
(591,269,o),
(601,288,cs),
(624,333,o),
(614,350,o),
(594,350,cs),
(576,350,o),
(570,337,o),
(558,315,cs),
(540,280,o),
(511,229,o),
(480,183,cs),
(447,133,o),
(412,89,o),
(378,63,cs),
(364,52,o),
(355,47,o),
(346,47,cs),
(338,47,o),
(331,51,o),
(330,60,cs),
(328,69,o),
(332,86,o),
(335,102,cs),
(374,320,ls),
(378,340,o),
(366,350,o),
(353,350,c),
(315,270,l),
(284,102,ls),
(279,76,o),
(278,49,o),
(285,28,cs),
(292,9,o),
(306,-4,o),
(332,-4,cs)
);
},
{
closed = 1;
nodes = (
(582,294,l),
(626,230,ls),
(633,220,o),
(643,211,o),
(656,211,cs),
(666,211,o),
(676,217,o),
(679,228,cs),
(681,235,o),
(680,243,o),
(673,253,cs),
(610,344,l)
);
}
);
width = 667;
},
{
layerId = m002;
shapes = (
{
closed = 1;
nodes = (
(199,-4,o),
(240,7,o),
(265,24,cs),
(310,54,o),
(345,97,o),
(368,129,cs),
(404,183,o),
(436,243,o),
(440,250,c),
(434,350,l),
(403,350,o),
(391,344,o),
(370,307,cs),
(360,289,o),
(348,267,o),
(324,230,cs),
(304,199,o),
(288,177,o),
(275,158,cs),
(266,145,o),
(251,126,o),
(233,105,cs),
(220,90,o),
(205,78,o),
(201,78,cs),
(196,78,o),
(199,109,o),
(202,125,cs),
(233,298,ls),
(239,332,o),
(216,350,o),
(190,350,cs),
(163,350,o),
(139,336,o),
(133,304,cs),
(99,113,ls),
(95,88,o),
(97,60,o),
(105,37,cs),
(114,10,o),
(141,-4,o),
(171,-4,cs)
);
},
{
closed = 1;
nodes = (
(440,-5,o),
(478,6,o),
(504,24,cs),
(542,50,o),
(576,86,o),
(598,118,cs),
(630,162,o),
(685,244,o),
(693,260,cs),
(729,331,o),
(690,350,o),
(668,350,cs),
(640,350,o),
(628,343,o),
(613,314,cs),
(600,289,o),
(584,263,o),
(558,224,cs),
(529,180,o),
(516,161,o),
(506,147,cs),
(497,135,o),
(474,106,o),
(468,100,cs),
(459,91,o),
(445,77,o),
(439,77,cs),
(434,77,o),
(436,102,o),
(439,117,cs),
(471,298,ls),
(478,335,o),
(449,350,o),
(427,350,c),
(368,264,l),
(338,115,ls),
(333,90,o),
(335,62,o),
(342,39,cs),
(351,12,o),
(375,-5,o),
(407,-5,cs)
);
},
{
closed = 1;
nodes = (
(626,277,l),
(673,210,ls),
(684,194,o),
(702,183,o),
(720,183,cs),
(740,183,o),
(761,196,o),
(766,217,cs),
(768,229,o),
(765,240,o),
(755,255,cs),
(702,333,l)
);
}
);
width = 829;
}
);
metricLeft = n;
unicode = 119;
},
{
glyphname = x;
lastChange = "2022-02-24 21:32:02 +0000";
layers = (
{
layerId = m01;
shapes = (
{
closed = 1;
nodes = (
(61,0,o),
(69,5,o),
(74,10,c),
(380,308,l),
(385,313,o),
(389,317,o),
(389,327,cs),
(389,333,o),
(387,339,o),
(382,344,cs),
(377,349,o),
(370,350,o),
(363,350,cs),
(356,349,o),
(349,346,o),
(344,341,c),
(37,44,l),
(30,36,o),
(28,28,o),
(29,21,cs),
(30,16,o),
(33,11,o),
(37,6,cs),
(41,2,o),
(46,0,o),
(53,0,cs)
);
},
{
closed = 1;
nodes = (
(314,-1,o),
(322,3,o),
(327,8,cs),
(332,13,o),
(336,20,o),
(336,27,cs),
(336,33,o),
(334,39,o),
(330,44,c),
(128,338,l),
(123,345,o),
(117,350,o),
(109,350,cs),
(102,350,o),
(96,347,o),
(91,343,cs),
(86,339,o),
(83,333,o),
(82,327,cs),
(82,321,o),
(85,314,o),
(88,309,c),
(292,10,l),
(296,4,o),
(302,1,o),
(307,0,cs)
);
}
);
width = 418;
},
{
layerId = m002;
shapes = (
{
closed = 1;
nodes = (
(148,0,o),
(162,7,o),
(172,16,cs),
(439,277,ls),
(448,285,o),
(454,294,o),
(454,309,cs),
(454,321,o),
(450,331,o),
(441,340,cs),
(433,348,o),
(418,350,o),
(405,350,cs),
(394,350,o),
(380,344,o),
(372,337,cs),
(102,76,ls),
(90,64,o),
(86,52,o),
(88,38,cs),
(89,29,o),
(93,21,o),
(100,12,cs),
(107,4,o),
(121,0,o),
(134,0,cs)
);
},
{
closed = 1;
nodes = (
(376,0,o),
(387,7,o),
(394,14,cs),
(401,22,o),
(408,33,o),
(408,45,cs),
(408,54,o),
(404,62,o),
(398,71,cs),
(220,331,ls),
(210,345,o),
(197,350,o),
(183,350,cs),
(171,350,o),
(160,347,o),
(150,339,cs),
(141,332,o),
(135,321,o),
(134,310,cs),
(134,299,o),
(139,288,o),
(144,281,cs),
(323,18,ls),
(334,2,o),
(354,0,o),
(364,0,cs)
);
}
);
width = 541;
}
);
metricLeft = n;
metricRight = n;
unicode = 120;
},
{
glyphname = y;
lastChange = "2022-02-24 21:56:46 +0000";
layers = (
{
layerId = m01;
shapes = (
{
closed = 1;
nodes = (
(33,-300,o),
(121,-299,o),
(154,-294,cs),
(208,-286,o),
(247,-257,o),
(272,-217,cs),
(306,-163,o),
(315,-87,o),
(330,-3,cs),
(387,317,ls),
(391,338,o),
(378,350,o),
(364,350,cs),
(352,350,o),
(338,341,o),
(334,320,cs),
(279,-3,ls),
(267,-71,o),
(259,-142,o),
(231,-189,cs),
(213,-219,o),
(186,-240,o),
(138,-246,cs),
(117,-248,o),
(34,-250,o),
(15,-250,cs),
(-11,-250,o),
(-24,-263,o),
(-24,-277,cs),
(-24,-292,o),
(-10,-300,o),
(14,-300,cs)
);
},
{
closed = 1;
nodes = (
(190,-4,o),
(295,166,o),
(350,254,c),
(344,340,l),
(275,225,o),
(162,45,o),
(111,45,cs),
(86,45,o),
(92,89,o),
(97,116,cs),
(133,321,ls),
(136,340,o),
(125,350,o),
(113,350,cs),
(100,350,o),
(85,341,o),
(82,322,cs),
(46,116,ls),
(36,59,o),
(43,-4,o),
(101,-4,cs)
);
}
);
width = 417;
},
{
layerId = m002;
shapes = (
{
closed = 1;
nodes = (
(101,-300,o),
(192,-298,o),
(224,-293,cs),
(282,-283,o),
(326,-256,o),
(352,-215,cs),
(387,-158,o),
(396,-83,o),
(410,-5,cs),
(463,295,ls),
(469,331,o),
(461,350,o),
(423,350,cs),
(390,350,o),
(368,333,o),
(363,302,cs),
(310,3,ls),
(298,-62,o),
(294,-126,o),
(271,-165,cs),
(255,-190,o),
(239,-203,o),
(202,-208,cs),
(183,-210,o),
(100,-209,o),
(83,-209,cs),
(46,-209,o),
(35,-231,o),
(35,-257,cs),
(35,-282,o),
(43,-300,o),
(82,-300,cs)
);
},
{
closed = 1;
nodes = (
(291,-4,o),
(335,108,o),
(381,153,c),
(372,326,l),
(335,252,o),
(236,74,o),
(198,74,cs),
(190,74,o),
(193,94,o),
(197,119,cs),
(229,300,ls),
(234,330,o),
(222,350,o),
(187,350,cs),
(156,350,o),
(139,335,o),
(134,307,cs),
(102,127,ls),
(90,58,o),
(104,-4,o),
(171,-4,cs)
);
}
);
width = 552;
}
);
metricLeft = n;
metricRight = n;
unicode = 121;
},
{
glyphname = z;
lastChange = "2022-02-24 21:56:09 +0000";
layers = (
{
layerId = m01;
shapes = (
{
closed = 1;
nodes = (
(61,0,o),
(69,5,o),
(74,10,c),
(380,308,l),
(385,313,o),
(389,317,o),
(389,327,cs),
(389,333,o),
(387,339,o),
(382,344,cs),
(377,349,o),
(370,350,o),
(363,350,cs),
(356,349,o),
(349,346,o),
(344,341,c),
(37,44,ls),
(29,37,o),
(28,28,o),
(29,21,cs),
(30,16,o),
(33,11,o),
(37,6,cs),
(41,2,o),
(46,0,o),
(53,0,cs)
);
},
{
closed = 1;
nodes = (
(310,0,ls),
(330,0,o),
(336,13,o),
(336,25,cs),
(336,37,o),
(330,50,o),
(310,50,cs),
(73,50,l),
(51,0,l)
);
},
{
closed = 1;
nodes = (
(341,300,l),
(365,350,l),
(108,350,ls),
(88,350,o),
(82,337,o),
(82,325,cs),
(82,313,o),
(88,300,o),
(108,300,cs)
);
}
);
width = 418;
},
{
layerId = m002;
shapes = (
{
closed = 1;
nodes = (
(148,0,o),
(162,7,o),
(172,16,cs),
(439,277,ls),
(448,285,o),
(454,294,o),
(454,309,cs),
(454,321,o),
(449,331,o),
(441,340,cs),
(432,348,o),
(418,350,o),
(405,350,cs),
(393,350,o),
(380,344,o),
(372,337,cs),
(102,75,ls),
(91,65,o),
(86,52,o),
(88,38,cs),
(89,29,o),
(93,21,o),
(100,12,cs),
(107,4,o),
(121,0,o),
(134,0,cs)
);
},
{
closed = 1;
nodes = (
(360,0,ls),
(390,0,o),
(408,19,o),
(408,43,cs),
(408,67,o),
(390,85,o),
(360,85,cs),
(171,85,l),
(133,0,l)
);
},
{
closed = 1;
nodes = (
(364,260,l),
(406,350,l),
(182,350,ls),
(152,350,o),
(134,329,o),
(134,305,cs),
(134,281,o),
(152,260,o),
(182,260,cs)
);
}
);
width = 542;
}
);
metricLeft = n;
metricRight = n;
unicode = 122;
},
{
glyphname = zero;
lastChange = "2022-02-24 21:58:34 +0000";
layers = (
{
layerId = m01;
shapes = (
{
closed = 1;
nodes = (
(289,-3,o),
(458,228,o),
(458,402,cs),
(458,477,o),
(429,568,o),
(323,568,cs),
(134,568,o),
(57,280,o),
(57,160,cs),
(57,81,o),
(91,-4,o),
(166,-4,cs)
);
},
{
closed = 1;
nodes = (
(134,47,o),
(109,84,o),
(109,155,cs),
(109,279,o),
(188,517,o),
(325,517,cs),
(390,517,o),
(406,463,o),
(406,405,cs),
(406,212,o),
(230,47,o),
(165,47,cs)
);
}
);
width = 463;
},
{
layerId = m002;
shapes = (
{
closed = 1;
nodes = (
(373,-3,o),
(538,223,o),
(538,395,cs),
(538,471,o),
(506,568,o),
(386,568,cs),
(186,568,o),
(111,290,o),
(111,172,cs),
(111,91,o),
(148,-4,o),
(238,-4,cs)
);
},
{
closed = 1;
nodes = (
(222,88,o),
(210,107,o),
(210,168,cs),
(210,281,o),
(278,476,o),
(388,476,cs),
(430,476,o),
(439,449,o),
(439,398,cs),
(439,225,o),
(288,88,o),
(238,88,cs)
);
}
);
width = 584;
}
);
metricLeft = O;
metricRight = O;
unicode = 48;
},
{
glyphname = one;
lastChange = "2022-02-24 21:59:59 +0000";
layers = (
{
layerId = m01;
shapes = (
{
closed = 1;
nodes = (
(63,0,o),
(76,6,o),
(79,23,cs),
(171,543,ls),
(174,560,o),
(163,568,o),
(150,568,cs),
(137,568,o),
(123,561,o),
(120,543,cs),
(29,28,ls),
(26,9,o),
(38,0,o),
(51,0,cs)
);
}
);
width = 161;
},
{
layerId = m002;
shapes = (
{
closed = 1;
nodes = (
(157,0,o),
(182,12,o),
(187,39,cs),
(272,518,ls),
(277,548,o),
(253,568,o),
(226,568,cs),
(203,568,o),
(177,554,o),
(172,526,cs),
(88,51,ls),
(82,18,o),
(108,0,o),
(135,0,cs)
);
}
);
width = 322;
}
);
metricLeft = N;
metricRight = N;
unicode = 49;
},
{
glyphname = two;
lastChange = "2022-02-24 22:05:09 +0000";
layers = (
{
layerId = m01;
shapes = (
{
closed = 1;
nodes = (
(18,0,l),
(68,49,l),
(125,115,o),
(253,263,o),
(266,278,cs),
(391,431,o),
(402,501,o),
(323,549,cs),
(254,591,o),
(135,558,o),
(72,505,cs),
(48,485,o),
(52,472,o),
(60,463,cs),
(68,454,o),
(84,451,o),
(109,471,cs),
(161,513,o),
(257,531,o),
(300,505,cs),
(350,475,o),
(297,393,o),
(245,332,cs),
(219,301,o),
(116,185,o),
(-19,35,cs),
(-36,16,o),
(-25,0,o),
(-3,0,c)
);
},
{
closed = 1;
nodes = (
(269,0,ls),
(289,0,o),
(295,13,o),
(295,25,cs),
(295,37,o),
(289,50,o),
(269,50,cs),
(14,50,l),
(14,0,l)
);
}
);
width = 322;
},
{
layerId = m002;
shapes = (
{
closed = 1;
nodes = (
(177,0,l),
(219,49,l),
(274,112,o),
(394,251,o),
(405,264,cs),
(530,417,o),
(544,491,o),
(453,547,cs),
(378,593,o),
(250,558,o),
(186,504,cs),
(152,476,o),
(158,454,o),
(175,434,cs),
(187,421,o),
(217,413,o),
(255,443,cs),
(300,479,o),
(373,493,o),
(405,473,cs),
(432,457,o),
(395,398,o),
(348,343,cs),
(322,313,o),
(225,205,o),
(100,65,cs),
(69,29,o),
(94,0,o),
(134,0,cs)
);
},
{
closed = 1;
nodes = (
(389,0,ls),
(419,0,o),
(439,14,o),
(439,41,cs),
(439,65,o),
(421,86,o),
(389,86,cs),
(133,86,l),
(133,0,l)
);
}
);
width = 543;
}
);
metricLeft = N;
metricRight = O;
unicode = 50;
},
{
glyphname = three;
lastChange = "2022-02-24 22:11:48 +0000";
layers = (
{
layerId = m01;
shapes = (
{
closed = 1;
nodes = (
(257,-4,o),
(400,98,o),
(400,226,cs),
(400,303,o),
(349,354,o),
(266,354,cs),
(230,354,o),
(188,345,o),
(142,324,c),
(158,275,l),
(206,296,o),
(243,305,o),
(271,305,cs),
(330,305,o),
(350,266,o),
(350,225,cs),
(350,125,o),
(232,47,o),
(144,47,cs),
(120,47,o),
(98,53,o),
(81,66,cs),
(57,84,o),
(43,72,o),
(38,65,cs),
(33,58,o),
(28,45,o),
(53,25,cs),
(77,5,o),
(109,-4,o),
(143,-4,cs)
);
},
{
closed = 1;
nodes = (
(279,355,o),
(397,437,o),
(397,499,cs),
(397,542,o),
(357,568,o),
(298,568,cs),
(250,568,o),
(189,551,o),
(129,511,cs),
(104,495,o),
(109,478,o),
(114,470,cs),
(120,460,o),
(136,455,o),
(149,464,cs),
(210,505,o),
(267,522,o),
(304,522,cs),
(331,522,o),
(347,513,o),
(347,499,cs),
(347,466,o),
(212,368,o),
(128,316,cs),
(111,305,o),
(114,288,o),
(118,280,cs),
(123,270,o),
(141,263,o),
(156,273,cs)
);
}
);
width = 434;
},
{
layerId = m002;
shapes = (
{
closed = 1;
nodes = (
(339,-4,o),
(474,96,o),
(497,229,cs),
(512,313,o),
(454,379,o),
(362,379,cs),
(319,379,o),
(268,366,o),
(215,339,c),
(247,250,l),
(304,279,o),
(323,282,o),
(351,282,cs),
(390,282,o),
(406,262,o),
(400,228,cs),
(385,145,o),
(295,86,o),
(220,86,cs),
(202,86,o),
(189,90,o),
(176,100,cs),
(145,124,o),
(110,113,o),
(99,93,cs),
(88,76,o),
(86,54,o),
(119,28,cs),
(145,7,o),
(182,-4,o),
(219,-4,cs)
);
},
{
closed = 1;
nodes = (
(370,334,o),
(481,410,o),
(494,481,cs),
(504,535,o),
(444,568,o),
(376,568,cs),
(322,568,o),
(261,550,o),
(201,510,cs),
(168,489,o),
(169,463,o),
(181,445,cs),
(193,423,o),
(222,424,o),
(245,439,cs),
(300,476,o),
(350,488,o),
(381,488,cs),
(388,488,o),
(398,487,o),
(397,481,cs),
(394,465,o),
(280,381,o),
(203,333,cs),
(176,316,o),
(175,290,o),
(185,270,cs),
(196,249,o),
(230,237,o),
(257,256,cs)
);
}
);
width = 567;
}
);
metricLeft = N;
metricRight = O;
unicode = 51;
},
{
glyphname = four;
lastChange = "2022-02-24 22:19:06 +0000";
layers = (
{
layerId = m01;
shapes = (
{
closed = 1;
nodes = (
(94,135,o),
(101,148,o),
(103,160,cs),
(171,540,ls),
(174,558,o),
(162,568,o),
(150,568,cs),
(138,568,o),
(124,562,o),
(121,544,cs),
(52,159,ls),
(50,147,o),
(59,135,o),
(77,135,cs)
);
},
{
closed = 1;
nodes = (
(218,-1,o),
(232,6,o),
(236,26,cs),
(283,282,ls),
(286,299,o),
(275,309,o),
(263,311,cs),
(250,313,o),
(236,306,o),
(233,289,cs),
(186,31,ls),
(182,11,o),
(193,1,o),
(206,0,cs)
);
},
{
closed = 1;
nodes = (
(377,135,ls),
(393,135,o),
(403,146,o),
(403,158,cs),
(403,170,o),
(393,180,o),
(377,180,cs),
(78,180,l),
(78,135,l)
);
}
);
width = 406;
},
{
layerId = m002;
shapes = (
{
closed = 1;
nodes = (
(184,122,o),
(205,140,o),
(209,164,cs),
(272,519,ls),
(278,551,o),
(252,568,o),
(226,568,cs),
(203,568,o),
(177,555,o),
(172,527,cs),
(109,170,ls),
(105,145,o),
(126,122,o),
(158,122,cs)
);
},
{
closed = 1;
nodes = (
(304,0,o),
(320,16,o),
(325,44,cs),
(367,279,ls),
(372,308,o),
(361,326,o),
(337,331,cs),
(313,335,o),
(293,320,o),
(288,292,cs),
(246,59,ls),
(240,26,o),
(250,0,o),
(276,0,cs)
);
},
{
closed = 1;
nodes = (
(440,122,ls),
(468,122,o),
(489,143,o),
(489,168,cs),
(489,192,o),
(468,212,o),
(440,212,cs),
(157,212,l),
(157,122,l)
);
}
);
width = 541;
}
);
metricLeft = N;
unicode = 52;
},
{
glyphname = five;
lastChange = "2022-02-24 22:24:14 +0000";
layers = (
{
layerId = m01;
shapes = (
{
closed = 1;
nodes = (
(272,-3,o),
(364,125,o),
(364,212,cs),
(364,287,o),
(300,354,o),
(198,354,cs),
(170,354,o),
(142,349,o),
(107,337,c),
(111,288,l),
(148,299,o),
(176,304,o),
(201,304,cs),
(280,304,o),
(314,252,o),
(314,211,cs),
(314,149,o),
(238,47,o),
(141,47,cs),
(116,47,o),
(94,54,o),
(80,67,cs),
(73,74,o),
(66,76,o),
(59,76,cs),
(46,76,o),
(35,67,o),
(35,54,cs),
(35,46,o),
(39,37,o),
(48,28,cs),
(69,8,o),
(102,-3,o),
(141,-3,cs)
);
},
{
closed = 1;
nodes = (
(114,286,o),
(127,294,o),
(130,310,cs),
(171,541,l),
(154,568,l),
(144,568,o),
(136,566,o),
(131,562,cs),
(126,558,o),
(122,551,o),
(120,541,cs),
(79,310,ls),
(76,295,o),
(89,286,o),
(102,286,cs)
);
},
{
closed = 1;
nodes = (
(397,523,ls),
(417,523,o),
(423,533,o),
(423,545,cs),
(423,557,o),
(417,568,o),
(397,568,cs),
(153,568,l),
(153,523,l)
);
}
);
width = 400;
},
{
layerId = m002;
shapes = (
{
closed = 1;
nodes = (
(356,-3,o),
(452,125,o),
(452,216,cs),
(452,298,o),
(382,372,o),
(271,372,cs),
(237,372,o),
(200,364,o),
(159,348,c),
(191,265,l),
(243,281,o),
(247,281,o),
(274,281,cs),
(334,281,o),
(352,248,o),
(352,215,cs),
(352,164,o),
(295,83,o),
(217,83,cs),
(199,83,o),
(184,86,o),
(174,93,cs),
(162,101,o),
(153,110,o),
(140,110,cs),
(115,110,o),
(92,97,o),
(92,72,cs),
(92,58,o),
(98,45,o),
(112,31,cs),
(136,8,o),
(175,-3,o),
(216,-3,cs)
);
},
{
closed = 1;
nodes = (
(203,264,o),
(231,281,o),
(235,304,cs),
(274,529,l),
(246,571,l),
(224,571,o),
(203,571,o),
(192,562,cs),
(182,554,o),
(176,543,o),
(173,528,cs),
(134,312,ls),
(128,281,o),
(157,264,o),
(181,264,cs)
);
},
{
closed = 1;
nodes = (
(460,487,ls),
(492,487,o),
(509,505,o),
(509,529,cs),
(509,556,o),
(490,571,o),
(460,571,cs),
(244,571,l),
(229,487,l)
);
}
);
width = 527;
}
);
metricLeft = N;
metricRight = O;
unicode = 53;
},
{
glyphname = six;
lastChange = "2022-02-24 22:31:20 +0000";
layers = (
{
layerId = m01;
shapes = (
{
closed = 1;
nodes = (
(94,113,l),
(94,209,o),
(128,288,o),
(198,387,cs),
(225,425,o),
(271,471,o),
(346,523,cs),
(357,530,o),
(361,540,o),
(361,548,cs),
(360,559,o),
(352,568,o),
(339,568,cs),
(333,568,o),
(326,566,o),
(318,562,cs),
(271,535,o),
(188,460,o),
(154,412,cs),
(86,316,o),
(45,213,o),
(45,113,c)
);
},
{
closed = 1;
nodes = (
(263,0,o),
(371,149,o),
(371,257,cs),
(371,321,o),
(333,353,o),
(261,353,cs),
(174,353,o),
(113,306,o),
(78,244,c),
(45,114,l),
(45,53,o),
(93,0,o),
(161,0,cs)
);
},
{
closed = 1;
nodes = (
(126,50,o),
(95,78,o),
(95,135,cs),
(95,215,o),
(156,303,o),
(259,303,cs),
(300,303,o),
(321,289,o),
(321,251,cs),
(321,173,o),
(229,50,o),
(159,50,cs)
);
}
);
width = 412;
},
{
layerId = m002;
shapes = (
{
closed = 1;
nodes = (
(189,114,l),
(175,195,o),
(224,274,o),
(292,371,cs),
(318,407,o),
(359,447,o),
(426,494,cs),
(443,506,o),
(451,521,o),
(451,537,cs),
(450,559,o),
(430,576,o),
(405,576,cs),
(395,576,o),
(384,573,o),
(373,568,c),
(325,540,o),
(244,467,o),
(211,421,cs),
(139,319,o),
(108,279,o),
(94,118,c)
);
},
{
closed = 1;
nodes = (
(329,-1,o),
(431,143,o),
(431,247,cs),
(431,316,o),
(386,354,o),
(310,354,cs),
(219,354,o),
(142,308,o),
(125,243,cs),
(95,126,ls),
(84,84,o),
(141,-1,o),
(222,-1,cs)
);
},
{
closed = 1;
nodes = (
(202,87,o),
(189,99,o),
(189,140,cs),
(189,204,o),
(231,266,o),
(308,266,cs),
(331,266,o),
(337,260,o),
(337,242,cs),
(337,180,o),
(268,87,o),
(220,87,cs)
);
}
);
width = 527;
}
);
metricLeft = o;
metricRight = o;
unicode = 54;
},
{
glyphname = seven;
lastChange = "2022-02-24 22:33:03 +0000";
layers = (
{
layerId = m01;
shapes = (
{
closed = 1;
nodes = (
(254,0,o),
(268,8,o),
(271,26,cs),
(363,544,ls),
(365,556,o),
(359,568,o),
(339,568,cs),
(328,568,o),
(316,560,o),
(314,549,cs),
(221,26,ls),
(218,8,o),
(229,0,o),
(242,0,cs)
);
},
{
closed = 1;
nodes = (
(340,523,l),
(340,568,l),
(93,568,ls),
(75,568,o),
(66,557,o),
(66,546,cs),
(66,534,o),
(75,523,o),
(93,523,cs)
);
}
);
width = 353;
},
{
layerId = m002;
shapes = (
{
closed = 1;
nodes = (
(327,0,o),
(352,15,o),
(357,42,cs),
(442,524,ls),
(447,551,o),
(438,568,o),
(395,568,cs),
(373,568,o),
(350,558,o),
(346,537,cs),
(260,50,ls),
(255,20,o),
(277,0,o),
(304,0,cs)
);
},
{
closed = 1;
nodes = (
(396,488,l),
(396,568,l),
(163,568,ls),
(133,568,o),
(113,551,o),
(113,527,cs),
(113,503,o),
(133,488,o),
(163,488,cs)
);
}
);
width = 490;
}
);
metricRight = N;
unicode = 55;
},
{
glyphname = eight;
lastChange = "2022-02-25 08:55:03 +0000";
layers = (
{
layerId = m01;
shapes = (
{
closed = 1;
nodes = (
(280,-4,o),
(336,84,o),
(336,149,cs),
(336,208,o),
(290,266,o),
(246,307,cs),
(231,321,l),
(165,325,l),
(75,259,o),
(50,185,o),
(50,132,cs),
(50,74,o),
(79,-4,o),
(176,-4,cs)
);
},
{
closed = 1;
nodes = (
(132,45,o),
(99,90,o),
(99,139,cs),
(99,178,o),
(120,231,o),
(197,285,c),
(209,273,ls),
(244,238,o),
(285,190,o),
(285,149,cs),
(285,105,o),
(239,45,o),
(182,45,cs)
);
},
{
closed = 1;
nodes = (
(314,368,o),
(395,431,o),
(395,488,cs),
(395,542,o),
(321,568,o),
(262,568,cs),
(189,568,o),
(102,529,o),
(102,442,cs),
(102,386,o),
(139,350,o),
(165,323,c),
(208,349,l),
(185,371,o),
(153,405,o),
(153,447,cs),
(153,504,o),
(211,518,o),
(252,518,cs),
(288,518,o),
(348,507,o),
(348,488,cs),
(348,462,o),
(239,369,o),
(164,322,c),
(233,312,l)
);
}
);
width = 382;
},
{
layerId = m002;
shapes = (
{
closed = 1;
nodes = (
(363,-4,o),
(423,87,o),
(423,157,cs),
(423,219,o),
(377,280,o),
(332,321,cs),
(310,341,l),
(229,344,l),
(131,275,o),
(103,197,o),
(103,141,cs),
(103,80,o),
(137,-4,o),
(248,-4,cs)
);
},
{
closed = 1;
nodes = (
(220,81,o),
(200,108,o),
(200,148,cs),
(200,177,o),
(213,213,o),
(265,254,c),
(270,249,ls),
(283,236,o),
(325,191,o),
(325,148,cs),
(325,114,o),
(294,81,o),
(253,81,cs)
);
},
{
closed = 1;
nodes = (
(390,343,o),
(479,405,o),
(479,472,cs),
(479,539,o),
(391,569,o),
(329,569,cs),
(252,569,o),
(153,526,o),
(153,428,cs),
(153,355,o),
(211,312,o),
(232,292,c),
(316,341,l),
(297,362,o),
(251,390,o),
(251,433,cs),
(251,470,o),
(278,488,o),
(313,488,cs),
(345,488,o),
(384,486,o),
(384,471,cs),
(384,456,o),
(302,391,o),
(243,355,c),
(308,287,l)
);
}
);
width = 508;
}
);
metricLeft = O;
metricRight = O;
unicode = 56;
},
{
glyphname = nine;
lastChange = "2022-02-25 09:04:13 +0000";
layers = (
{
layerId = m01;
shapes = (
{
closed = 1;
nodes = (
(189,214,o),
(241,268,o),
(282,319,cs),
(331,381,o),
(379,458,o),
(402,510,cs),
(406,519,l),
(361,519,l),
(333,472,o),
(300,423,o),
(259,371,cs),
(198,295,o),
(161,265,o),
(142,265,cs),
(128,265,o),
(128,280,o),
(128,296,cs),
(128,334,o),
(146,424,o),
(172,463,cs),
(202,508,o),
(253,518,o),
(287,518,cs),
(294,518,o),
(362,518,o),
(370,518,c),
(381,518,l),
(381,520,o),
(381,565,o),
(381,568,c),
(369,568,o),
(307,568,o),
(287,568,cs),
(230,568,o),
(171,551,o),
(133,494,cs),
(101,446,o),
(78,349,o),
(78,291,cs),
(78,240,o),
(98,214,o),
(131,214,cs)
);
},
{
closed = 1;
nodes = (
(317,0,o),
(330,8,o),
(333,24,cs),
(425,546,ls),
(427,558,o),
(421,568,o),
(409,568,c),
(361,568,l),
(361,479,l),
(283,24,ls),
(281,8,o),
(292,0,o),
(304,0,cs)
);
}
);
width = 415;
},
{
layerId = m002;
shapes = (
{
closed = 1;
nodes = (
(274,196,o),
(329,255,o),
(368,303,cs),
(415,363,o),
(462,439,o),
(484,487,cs),
(502,527,l),
(407,527,l),
(379,479,o),
(354,431,o),
(314,380,cs),
(257,309,o),
(243,302,o),
(239,302,cs),
(234,302,o),
(233,315,o),
(233,320,cs),
(233,343,o),
(244,408,o),
(266,440,cs),
(289,476,o),
(324,481,o),
(353,481,cs),
(359,481,o),
(423,481,o),
(431,481,cs),
(466,481,l),
(466,506,o),
(466,546,o),
(466,568,c),
(443,568,o),
(374,568,o),
(353,568,cs),
(294,568,o),
(228,554,o),
(187,493,cs),
(154,443,o),
(131,348,o),
(131,291,cs),
(131,226,o),
(164,196,o),
(206,196,cs)
);
},
{
closed = 1;
nodes = (
(392,-5,o),
(419,10,o),
(424,36,cs),
(511,529,ls),
(516,555,o),
(501,568,o),
(468,568,cs),
(397,568,l),
(399,469,l),
(324,43,ls),
(318,11,o),
(347,-5,o),
(369,-5,cs)
);
}
);
width = 559;
}
);
metricLeft = O;
metricRight = N;
unicode = 57;
},
{
glyphname = period;
lastChange = "2022-02-24 16:10:48 +0000";
layers = (
{
layerId = m01;
shapes = (
{
closed = 1;
nodes = (
(58,-30,o),
(76,-12,o),
(76,9,cs),
(76,29,o),
(58,46,o),
(38,46,cs),
(17,46,o),
(1,29,o),
(1,9,cs),
(1,-11,o),
(17,-30,o),
(38,-30,cs)
);
}
);
width = 136;
},
{
layerId = m002;
shapes = (
{
closed = 1;
nodes = (
(58,-30,o),
(76,-12,o),
(76,9,cs),
(76,29,o),
(58,46,o),
(38,46,cs),
(17,46,o),
(1,29,o),
(1,9,cs),
(1,-11,o),
(17,-30,o),
(38,-30,cs)
);
}
);
width = 136;
}
);
unicode = 46;
},
{
glyphname = comma;
lastChange = "2022-02-24 16:12:01 +0000";
layers = (
{
layerId = m01;
shapes = (
{
closed = 1;
nodes = (
(43,-103,o),
(58,-96,o),
(61,-78,cs),
(79,21,ls),
(82,39,o),
(71,49,o),
(58,50,cs),
(45,52,o),
(32,45,o),
(29,28,cs),
(12,-71,ls),
(9,-89,o),
(19,-99,o),
(31,-101,cs)
);
}
);
width = 161;
},
{
layerId = m002;
shapes = (
{
closed = 1;
nodes = (
(35,-103,o),
(50,-96,o),
(53,-78,cs),
(71,21,ls),
(74,39,o),
(63,49,o),
(50,50,cs),
(37,52,o),
(24,45,o),
(21,28,cs),
(4,-71,ls),
(1,-89,o),
(11,-99,o),
(23,-101,cs)
);
}
);
width = 146;
}
);
metricLeft = n;
metricRight = n;
unicode = 44;
},
{
glyphname = colon;
lastChange = "2022-02-24 16:12:01 +0000";
layers = (
{
layerId = m01;
shapes = (
{
closed = 1;
nodes = (
(84,-30,o),
(102,-12,o),
(102,9,cs),
(102,29,o),
(84,46,o),
(63,46,cs),
(42,46,o),
(26,29,o),
(26,9,cs),
(26,-11,o),
(42,-30,o),
(63,-30,cs)
);
},
{
closed = 1;
nodes = (
(119,175,o),
(137,194,o),
(137,214,cs),
(137,235,o),
(119,251,o),
(99,251,cs),
(78,251,o),
(62,234,o),
(62,214,cs),
(62,195,o),
(78,175,o),
(99,175,cs)
);
}
);
width = 187;
},
{
layerId = m002;
shapes = (
{
closed = 1;
nodes = (
(76,-30,o),
(94,-12,o),
(94,9,cs),
(94,29,o),
(76,46,o),
(55,46,cs),
(34,46,o),
(18,29,o),
(18,9,cs),
(18,-11,o),
(34,-30,o),
(55,-30,cs)
);
},
{
closed = 1;
nodes = (
(111,175,o),
(129,194,o),
(129,214,cs),
(129,235,o),
(111,251,o),
(91,251,cs),
(70,251,o),
(54,234,o),
(54,214,cs),
(54,195,o),
(70,175,o),
(91,175,cs)
);
}
);
width = 172;
}
);
metricLeft = n;
metricRight = n;
unicode = 58;
},
{
glyphname = semicolon;
lastChange = "2022-02-24 16:12:01 +0000";
layers = (
{
layerId = m01;
shapes = (
{
closed = 1;
nodes = (
(58,-103,o),
(71,-95,o),
(74,-78,cs),
(92,21,ls),
(95,39,o),
(84,49,o),
(71,50,cs),
(58,52,o),
(45,45,o),
(42,28,cs),
(25,-71,ls),
(22,-90,o),
(34,-101,o),
(47,-102,cs)
);
},
{
closed = 1;
nodes = (
(119,175,o),
(137,194,o),
(137,214,cs),
(137,235,o),
(119,251,o),
(99,251,cs),
(78,251,o),
(62,234,o),
(62,214,cs),
(62,195,o),
(78,175,o),
(99,175,cs)
);
}
);
width = 186;
},
{
layerId = m002;
shapes = (
{
closed = 1;
nodes = (
(50,-103,o),
(63,-95,o),
(66,-78,cs),
(84,21,ls),
(87,39,o),
(76,49,o),
(63,50,cs),
(50,52,o),
(37,45,o),
(34,28,cs),
(17,-71,ls),
(14,-90,o),
(26,-101,o),
(39,-102,cs)
);
},
{
closed = 1;
nodes = (
(111,175,o),
(129,194,o),
(129,214,cs),
(129,235,o),
(111,251,o),
(91,251,cs),
(70,251,o),
(54,234,o),
(54,214,cs),
(54,195,o),
(70,175,o),
(91,175,cs)
);
}
);
width = 171;
}
);
metricLeft = n;
metricRight = n;
unicode = 59;
},
{
glyphname = ellipsis;
lastChange = "2022-02-24 16:12:01 +0000";
layers = (
{
layerId = m01;
shapes = (
{
closed = 1;
nodes = (
(328,-30,o),
(346,-12,o),
(346,9,cs),
(346,29,o),
(328,46,o),
(308,46,cs),
(287,46,o),
(271,29,o),
(271,9,cs),
(271,-11,o),
(287,-30,o),
(308,-30,cs)
);
},
{
pos = (25,0);
ref = period;
},
{
pos = (25,0);
ref = period;
},
{
closed = 1;
nodes = (
(108,-30,o),
(126,-12,o),
(126,9,cs),
(126,29,o),
(108,46,o),
(88,46,cs),
(67,46,o),
(51,29,o),
(51,9,cs),
(51,-11,o),
(67,-30,o),
(88,-30,cs)
);
},
{
closed = 1;
nodes = (
(218,-30,o),
(236,-12,o),
(236,9,cs),
(236,29,o),
(218,46,o),
(198,46,cs),
(177,46,o),
(161,29,o),
(161,9,cs),
(161,-11,o),
(177,-30,o),
(198,-30,cs)
);
}
);
width = 431;
},
{
layerId = m002;
shapes = (
{
closed = 1;
nodes = (
(320,-30,o),
(338,-12,o),
(338,9,cs),
(338,29,o),
(320,46,o),
(300,46,cs),
(279,46,o),
(263,29,o),
(263,9,cs),
(263,-11,o),
(279,-30,o),
(300,-30,cs)
);
},
{
pos = (17,0);
ref = period;
},
{
pos = (17,0);
ref = period;
},
{
closed = 1;
nodes = (
(100,-30,o),
(118,-12,o),
(118,9,cs),
(118,29,o),
(100,46,o),
(80,46,cs),
(59,46,o),
(43,29,o),
(43,9,cs),
(43,-11,o),
(59,-30,o),
(80,-30,cs)
);
},
{
closed = 1;
nodes = (
(210,-30,o),
(228,-12,o),
(228,9,cs),
(228,29,o),
(210,46,o),
(190,46,cs),
(169,46,o),
(153,29,o),
(153,9,cs),
(153,-11,o),
(169,-30,o),
(190,-30,cs)
);
}
);
width = 416;
}
);
metricLeft = n;
metricRight = n;
unicode = 8230;
},
{
glyphname = exclam;
lastChange = "2022-02-24 16:12:01 +0000";
layers = (
{
layerId = m01;
shapes = (
{
closed = 1;
nodes = (
(98,174,o),
(113,183,o),
(116,202,cs),
(192,629,ls),
(194,643,o),
(184,650,o),
(172,650,cs),
(159,650,o),
(144,643,o),
(141,629,cs),
(65,202,ls),
(62,185,o),
(74,176,o),
(86,175,cs)
);
},
{
closed = 1;
nodes = (
(75,-24,o),
(91,-8,o),
(91,9,cs),
(91,26,o),
(75,41,o),
(57,41,cs),
(39,41,o),
(26,25,o),
(26,9,cs),
(26,-7,o),
(39,-24,o),
(57,-24,cs)
);
}
);
width = 176;
},
{
layerId = m002;
shapes = (
{
closed = 1;
nodes = (
(143,174,o),
(158,183,o),
(161,202,cs),
(237,629,ls),
(239,643,o),
(229,650,o),
(217,650,cs),
(204,650,o),
(189,643,o),
(186,629,cs),
(110,202,ls),
(107,185,o),
(119,176,o),
(131,175,cs)
);
},
{
closed = 1;
nodes = (
(120,-24,o),
(136,-8,o),
(136,9,cs),
(136,26,o),
(120,41,o),
(102,41,cs),
(84,41,o),
(71,25,o),
(71,9,cs),
(71,-7,o),
(84,-24,o),
(102,-24,cs)
);
}
);
width = 266;
}
);
metricLeft = N;
metricRight = N;
unicode = 33;
},
{
glyphname = exclamdown;
lastChange = "2022-02-24 16:12:01 +0000";
layers = (
{
layerId = m01;
shapes = (
{
closed = 1;
nodes = (
(65,0,o),
(79,7,o),
(82,21,cs),
(156,424,ls),
(159,441,o),
(147,450,o),
(135,451,cs),
(123,452,o),
(108,443,o),
(105,424,cs),
(31,21,ls),
(28,6,o),
(40,-1,o),
(53,0,cs)
);
},
{
closed = 1;
nodes = (
(185,585,o),
(198,601,o),
(198,617,cs),
(198,633,o),
(185,650,o),
(167,650,cs),
(149,650,o),
(133,634,o),
(133,617,cs),
(133,600,o),
(149,585,o),
(167,585,cs)
);
}
);
width = 176;
},
{
layerId = m002;
shapes = (
{
closed = 1;
nodes = (
(110,0,o),
(124,7,o),
(127,21,cs),
(201,424,ls),
(204,441,o),
(192,450,o),
(180,451,cs),
(168,452,o),
(153,443,o),
(150,424,cs),
(76,21,ls),
(73,6,o),
(85,-1,o),
(98,0,cs)
);
},
{
closed = 1;
nodes = (
(230,585,o),
(243,601,o),
(243,617,cs),
(243,633,o),
(230,650,o),
(212,650,cs),
(194,650,o),
(178,634,o),
(178,617,cs),
(178,600,o),
(194,585,o),
(212,585,cs)
);
}
);
width = 266;
}
);
metricLeft = N;
metricRight = N;
unicode = 161;
},
{
glyphname = question;
lastChange = "2022-02-24 16:12:01 +0000";
layers = (
{
layerId = m01;
shapes = (
{
closed = 1;
nodes = (
(357,272,o),
(425,364,o),
(450,503,cs),
(464,582,o),
(396,654,o),
(305,654,cs),
(190,654,o),
(126,590,o),
(109,495,cs),
(105,473,o),
(110,460,o),
(121,457,cs),
(134,454,o),
(154,463,o),
(158,485,cs),
(168,542,o),
(206,604,o),
(291,604,cs),
(357,604,o),
(411,568,o),
(400,507,cs),
(392,461,o),
(368,322,o),
(206,322,c),
(201,272,l)
);
},
{
closed = 1;
nodes = (
(169,-24,o),
(185,-9,o),
(185,7,cs),
(185,26,o),
(170,41,o),
(151,41,cs),
(134,41,o),
(120,25,o),
(120,7,cs),
(120,-8,o),
(134,-24,o),
(151,-24,cs)
);
},
{
closed = 1;
nodes = (
(194,173,o),
(208,180,o),
(212,202,cs),
(230,303,ls),
(231,310,o),
(224,322,o),
(204,322,cs),
(193,322,o),
(181,314,o),
(179,303,cs),
(161,202,ls),
(159,188,o),
(169,178,o),
(181,175,cs)
);
}
);
width = 432;
},
{
layerId = m002;
shapes = (
{
closed = 1;
nodes = (
(394,272,o),
(462,364,o),
(487,503,cs),
(501,582,o),
(433,654,o),
(342,654,cs),
(227,654,o),
(163,590,o),
(146,495,cs),
(142,473,o),
(147,460,o),
(158,457,cs),
(171,454,o),
(191,463,o),
(195,485,cs),
(205,542,o),
(243,604,o),
(328,604,cs),
(394,604,o),
(448,568,o),
(437,507,cs),
(429,461,o),
(405,322,o),
(243,322,c),
(238,272,l)
);
},
{
closed = 1;
nodes = (
(206,-24,o),
(222,-9,o),
(222,7,cs),
(222,26,o),
(207,41,o),
(188,41,cs),
(171,41,o),
(157,25,o),
(157,7,cs),
(157,-8,o),
(171,-24,o),
(188,-24,cs)
);
},
{
closed = 1;
nodes = (
(231,173,o),
(245,180,o),
(249,202,cs),
(267,303,ls),
(268,310,o),
(261,322,o),
(241,322,cs),
(230,322,o),
(218,314,o),
(216,303,cs),
(198,202,ls),
(196,188,o),
(206,178,o),
(218,175,cs)
);
}
);
width = 501;
}
);
metricLeft = O;
metricRight = O;
unicode = 63;
},
{
glyphname = questiondown;
lastChange = "2022-02-24 16:12:01 +0000";
layers = (
{
layerId = m01;
shapes = (
{
closed = 1;
nodes = (
(309,0,o),
(373,64,o),
(390,159,cs),
(394,181,o),
(389,194,o),
(378,197,cs),
(365,200,o),
(345,191,o),
(341,169,cs),
(331,112,o),
(293,50,o),
(208,50,cs),
(142,50,o),
(88,86,o),
(99,147,cs),
(107,193,o),
(131,332,o),
(293,332,c),
(298,382,l),
(142,382,o),
(74,290,o),
(49,151,cs),
(35,72,o),
(103,0,o),
(194,0,cs)
);
},
{
closed = 1;
nodes = (
(306,332,o),
(318,340,o),
(320,351,cs),
(338,452,ls),
(340,466,o),
(330,476,o),
(318,479,cs),
(305,481,o),
(291,474,o),
(287,452,cs),
(269,351,ls),
(268,344,o),
(275,332,o),
(295,332,cs)
);
},
{
closed = 1;
nodes = (
(360,585,o),
(374,601,o),
(374,619,cs),
(374,634,o),
(360,650,o),
(343,650,cs),
(325,650,o),
(309,635,o),
(309,619,cs),
(309,600,o),
(324,585,o),
(343,585,cs)
);
}
);
width = 433;
},
{
layerId = m002;
shapes = (
{
closed = 1;
nodes = (
(346,0,o),
(410,64,o),
(427,159,cs),
(431,181,o),
(426,194,o),
(415,197,cs),
(402,200,o),
(382,191,o),
(378,169,cs),
(368,112,o),
(330,50,o),
(245,50,cs),
(179,50,o),
(125,86,o),
(136,147,cs),
(144,193,o),
(168,332,o),
(330,332,c),
(335,382,l),
(179,382,o),
(111,290,o),
(86,151,cs),
(72,72,o),
(140,0,o),
(231,0,cs)
);
},
{
closed = 1;
nodes = (
(343,332,o),
(355,340,o),
(357,351,cs),
(375,452,ls),
(377,466,o),
(367,476,o),
(355,479,cs),
(342,481,o),
(328,474,o),
(324,452,cs),
(306,351,ls),
(305,344,o),
(312,332,o),
(332,332,cs)
);
},
{
closed = 1;
nodes = (
(397,585,o),
(411,601,o),
(411,619,cs),
(411,634,o),
(397,650,o),
(380,650,cs),
(362,650,o),
(346,635,o),
(346,619,cs),
(346,600,o),
(361,585,o),
(380,585,cs)
);
}
);
width = 502;
}
);
metricLeft = O;
metricRight = O;
unicode = 191;
},
{
glyphname = periodcentered;
lastChange = "2022-02-24 16:12:01 +0000";
layers = (
{
layerId = m01;
shapes = (
{
closed = 1;
nodes = (
(113,138,o),
(131,157,o),
(131,177,cs),
(131,198,o),
(113,214,o),
(93,214,cs),
(72,214,o),
(56,197,o),
(56,177,cs),
(56,158,o),
(72,138,o),
(93,138,cs)
);
}
);
width = 186;
},
{
layerId = m002;
shapes = (
{
closed = 1;
nodes = (
(105,138,o),
(123,157,o),
(123,177,cs),
(123,198,o),
(105,214,o),
(85,214,cs),
(64,214,o),
(48,197,o),
(48,177,cs),
(48,158,o),
(64,138,o),
(85,138,cs)
);
}
);
width = 171;
}
);
metricLeft = n;
metricRight = n;
unicode = 183;
},
{
glyphname = bullet;
lastChange = "2022-02-24 16:12:01 +0000";
layers = (
{
layerId = m01;
shapes = (
{
closed = 1;
nodes = (
(201,278,o),
(238,314,o),
(238,355,cs),
(238,396,o),
(202,430,o),
(162,430,cs),
(120,430,o),
(88,395,o),
(88,355,cs),
(88,316,o),
(119,278,o),
(161,278,cs)
);
}
);
width = 262;
},
{
layerId = m002;
shapes = (
{
closed = 1;
nodes = (
(193,278,o),
(230,314,o),
(230,355,cs),
(230,396,o),
(194,430,o),
(154,430,cs),
(112,430,o),
(80,395,o),
(80,355,cs),
(80,316,o),
(111,278,o),
(153,278,cs)
);
}
);
width = 247;
}
);
metricLeft = n;
metricRight = n;
unicode = 8226;
},
{
glyphname = asterisk;
lastChange = "2022-02-24 16:20:08 +0000";
layers = (
{
layerId = m01;
shapes = (
{
closed = 1;
nodes = (
(284,574,ls),
(301,584,o),
(304,598,o),
(298,607,cs),
(293,614,o),
(281,617,o),
(266,608,cs),
(130,524,ls),
(113,513,o),
(109,499,o),
(115,491,cs),
(120,483,o),
(132,481,o),
(148,490,cs)
);
},
{
closed = 1;
nodes = (
(261,482,o),
(274,484,o),
(281,492,cs),
(286,499,o),
(286,511,o),
(273,521,cs),
(165,606,ls),
(153,616,o),
(141,614,o),
(135,606,cs),
(128,599,o),
(128,586,o),
(141,576,cs),
(248,492,ls)
);
},
{
closed = 1;
nodes = (
(197,447,o),
(210,456,o),
(213,475,cs),
(239,623,ls),
(242,641,o),
(234,650,o),
(225,650,cs),
(215,650,o),
(203,641,o),
(200,623,cs),
(174,475,ls),
(171,458,o),
(178,450,o),
(187,448,cs)
);
}
);
width = 282;
},
{
layerId = m002;
shapes = (
{
closed = 1;
nodes = (
(360,554,ls),
(386,570,o),
(396,594,o),
(381,617,cs),
(370,633,o),
(342,639,o),
(317,625,cs),
(184,543,l),
(162,527,o),
(150,504,o),
(163,483,cs),
(173,464,o),
(204,458,o),
(231,474,cs)
);
},
{
closed = 1;
nodes = (
(321,460,o),
(350,464,o),
(364,481,cs),
(377,499,o),
(375,521,o),
(353,538,cs),
(248,621,ls),
(226,638,o),
(197,634,o),
(184,617,cs),
(169,599,o),
(171,576,o),
(195,558,cs),
(296,477,l)
);
},
{
closed = 1;
nodes = (
(270,426,o),
(298,443,o),
(304,474,cs),
(329,616,ls),
(334,648,o),
(314,668,o),
(290,668,cs),
(269,668,o),
(246,651,o),
(241,624,cs),
(216,482,ls),
(211,453,o),
(227,436,o),
(248,431,cs)
);
}
);
width = 415;
}
);
metricLeft = N;
metricRight = N;
unicode = 42;
},
{
glyphname = numbersign;
lastChange = "2022-02-24 16:10:48 +0000";
layers = (
{
layerId = m01;
shapes = (
{
closed = 1;
nodes = (
(152,-1,o),
(167,8,o),
(171,28,cs),
(262,543,ls),
(265,559,o),
(254,568,o),
(241,568,cs),
(228,568,o),
(214,560,o),
(211,543,cs),
(120,28,ls),
(117,10,o),
(127,0,o),
(139,0,cs)
);
},
{
closed = 1;
nodes = (
(571,147,ls),
(588,147,o),
(597,159,o),
(597,170,cs),
(597,181,o),
(589,192,o),
(571,192,cs),
(26,192,ls),
(8,192,o),
(0,181,o),
(0,170,cs),
(0,159,o),
(9,147,o),
(26,147,cs)
);
},
{
closed = 1;
nodes = (
(410,0,o),
(424,9,o),
(427,28,cs),
(518,543,ls),
(521,559,o),
(510,567,o),
(498,568,cs),
(485,568,o),
(470,560,o),
(467,543,cs),
(376,28,ls),
(373,9,o),
(384,-1,o),
(397,0,cs)
);
},
{
closed = 1;
nodes = (
(612,384,ls),
(630,384,o),
(639,395,o),
(639,406,cs),
(639,417,o),
(630,429,o),
(612,429,cs),
(68,429,ls),
(50,429,o),
(41,417,o),
(41,406,cs),
(41,395,o),
(50,384,o),
(68,384,cs)
);
}
);
width = 599;
},
{
layerId = m002;
shapes = (
{
closed = 1;
nodes = (
(152,-1,o),
(167,8,o),
(171,28,cs),
(262,543,ls),
(265,559,o),
(254,568,o),
(241,568,cs),
(228,568,o),
(214,560,o),
(211,543,cs),
(120,28,ls),
(117,10,o),
(127,0,o),
(139,0,cs)
);
},
{
closed = 1;
nodes = (
(571,147,ls),
(588,147,o),
(597,159,o),
(597,170,cs),
(597,181,o),
(589,192,o),
(571,192,cs),
(26,192,ls),
(8,192,o),
(0,181,o),
(0,170,cs),
(0,159,o),
(9,147,o),
(26,147,cs)
);
},
{
closed = 1;
nodes = (
(410,0,o),
(424,9,o),
(427,28,cs),
(518,543,ls),
(521,559,o),
(510,567,o),
(498,568,cs),
(485,568,o),
(470,560,o),
(467,543,cs),
(376,28,ls),
(373,9,o),
(384,-1,o),
(397,0,cs)
);
},
{
closed = 1;
nodes = (
(612,384,ls),
(630,384,o),
(639,395,o),
(639,406,cs),
(639,417,o),
(630,429,o),
(612,429,cs),
(68,429,ls),
(50,429,o),
(41,417,o),
(41,406,cs),
(41,395,o),
(50,384,o),
(68,384,cs)
);
}
);
width = 599;
}
);
unicode = 35;
},
{
glyphname = slash;
lastChange = "2022-02-24 16:15:40 +0000";
layers = (
{
layerId = m01;
shapes = (
{
closed = 1;
nodes = (
(283,616,ls),
(292,637,o),
(277,650,o),
(262,650,cs),
(251,650,o),
(240,644,o),
(233,627,cs),
(-24,31,ls),
(-37,0,o),
(11,-15,o),
(26,20,cs)
);
}
);
width = 205;
},
{
layerId = m002;
shapes = (
{
closed = 1;
nodes = (
(283,616,ls),
(292,637,o),
(277,650,o),
(262,650,cs),
(251,650,o),
(240,644,o),
(233,627,cs),
(-24,31,ls),
(-37,0,o),
(11,-15,o),
(26,20,cs)
);
}
);
width = 205;
}
);
unicode = 47;
},
{
glyphname = backslash;
lastChange = "2022-02-24 16:10:48 +0000";
layers = (
{
layerId = m01;
shapes = (
{
closed = 1;
nodes = (
(354,-15,o),
(402,0,o),
(389,31,cs),
(132,627,ls),
(125,644,o),
(114,650,o),
(103,650,cs),
(88,650,o),
(73,637,o),
(82,616,cs),
(339,20,ls)
);
}
);
width = 419;
},
{
layerId = m002;
shapes = (
{
closed = 1;
nodes = (
(354,-15,o),
(402,0,o),
(389,31,cs),
(132,627,ls),
(125,644,o),
(114,650,o),
(103,650,cs),
(88,650,o),
(73,637,o),
(82,616,cs),
(339,20,ls)
);
}
);
width = 419;
}
);
unicode = 92;
},
{
glyphname = hyphen;
lastChange = "2022-02-24 16:12:01 +0000";
layers = (
{
layerId = m01;
shapes = (
{
closed = 1;
nodes = (
(234,175,ls),
(252,175,o),
(261,186,o),
(261,198,cs),
(261,209,o),
(252,220,o),
(234,220,cs),
(86,220,ls),
(67,220,o),
(58,208,o),
(59,196,cs),
(60,185,o),
(69,175,o),
(86,175,cs)
);
}
);
width = 312;
},
{
layerId = m002;
shapes = (
{
closed = 1;
nodes = (
(226,175,ls),
(244,175,o),
(253,186,o),
(253,198,cs),
(253,209,o),
(244,220,o),
(226,220,cs),
(78,220,ls),
(59,220,o),
(50,208,o),
(51,196,cs),
(52,185,o),
(61,175,o),
(78,175,cs)
);
}
);
width = 297;
}
);
metricLeft = n;
metricRight = n;
unicode = 45;
},
{
glyphname = endash;
lastChange = "2022-02-24 16:12:01 +0000";
layers = (
{
layerId = m01;
shapes = (
{
closed = 1;
nodes = (
(314,175,ls),
(332,175,o),
(341,187,o),
(341,199,cs),
(341,210,o),
(332,220,o),
(314,220,cs),
(87,220,ls),
(69,220,o),
(60,210,o),
(60,199,cs),
(60,187,o),
(69,175,o),
(87,175,cs)
);
}
);
width = 392;
},
{
layerId = m002;
shapes = (
{
closed = 1;
nodes = (
(306,175,ls),
(324,175,o),
(333,187,o),
(333,199,cs),
(333,210,o),
(324,220,o),
(306,220,cs),
(79,220,ls),
(61,220,o),
(52,210,o),
(52,199,cs),
(52,187,o),
(61,175,o),
(79,175,cs)
);
}
);
width = 377;
}
);
metricLeft = n;
metricRight = n;
unicode = 8211;
},
{
glyphname = emdash;
lastChange = "2022-02-24 16:10:48 +0000";
layers = (
{
layerId = m01;
shapes = (
{
closed = 1;
nodes = (
(387,175,ls),
(407,175,o),
(418,187,o),
(418,199,cs),
(418,209,o),
(408,220,o),
(387,220,cs),
(64,220,ls),
(44,220,o),
(34,209,o),
(34,199,cs),
(34,187,o),
(45,175,o),
(64,175,cs)
);
}
);
width = 444;
},
{
layerId = m002;
shapes = (
{
closed = 1;
nodes = (
(387,175,ls),
(407,175,o),
(418,187,o),
(418,199,cs),
(418,209,o),
(408,220,o),
(387,220,cs),
(64,220,ls),
(44,220,o),
(34,209,o),
(34,199,cs),
(34,187,o),
(45,175,o),
(64,175,cs)
);
}
);
width = 444;
}
);
unicode = 8212;
},
{
glyphname = underscore;
lastChange = "2022-02-24 16:12:01 +0000";
layers = (
{
layerId = m01;
shapes = (
{
closed = 1;
nodes = (
(331,-77,ls),
(349,-77,o),
(358,-66,o),
(358,-54,cs),
(358,-43,o),
(349,-32,o),
(331,-32,cs),
(42,-32,ls),
(23,-32,o),
(15,-43,o),
(15,-55,cs),
(15,-66,o),
(25,-77,o),
(42,-77,cs)
);
}
);
width = 454;
},
{
layerId = m002;
shapes = (
{
closed = 1;
nodes = (
(323,-77,ls),
(341,-77,o),
(350,-66,o),
(350,-54,cs),
(350,-43,o),
(341,-32,o),
(323,-32,cs),
(34,-32,ls),
(15,-32,o),
(7,-43,o),
(7,-55,cs),
(7,-66,o),
(17,-77,o),
(34,-77,cs)
);
}
);
width = 439;
}
);
metricLeft = n;
metricRight = n;
unicode = 95;
},
{
glyphname = parenleft;
lastChange = "2022-02-24 16:20:08 +0000";
layers = (
{
layerId = m01;
shapes = (
{
closed = 1;
nodes = (
(198,-292,o),
(199,-278,o),
(191,-261,cs),
(105,-81,o),
(92,77,o),
(117,219,cs),
(140,347,o),
(216,480,o),
(342,607,cs),
(360,625,o),
(362,639,o),
(355,646,cs),
(347,654,o),
(329,651,o),
(309,633,cs),
(177,506,o),
(80,329,o),
(61,219,cs),
(39,94,o),
(65,-101,o),
(155,-283,cs),
(163,-299,o),
(179,-303,o),
(190,-297,cs)
);
}
);
width = 278;
},
{
layerId = m002;
shapes = (
{
closed = 1;
nodes = (
(278,-283,o),
(283,-264,o),
(271,-235,c),
(190,-66,o),
(178,80,o),
(202,213,cs),
(223,333,o),
(293,456,o),
(411,574,cs),
(442,605,o),
(437,628,o),
(423,643,cs),
(408,658,o),
(375,659,o),
(344,631,cs),
(212,505,o),
(117,330,o),
(98,221,cs),
(77,96,o),
(102,-95,o),
(191,-275,cs),
(206,-303,o),
(242,-310,o),
(263,-295,cs)
);
}
);
width = 334;
}
);
metricLeft = O;
unicode = 40;
},
{
glyphname = parenright;
lastChange = "2022-02-24 16:20:08 +0000";
layers = (
{
layerId = m01;
shapes = (
{
closed = 1;
nodes = (
(-66,-284,o),
(-49,-285,o),
(-36,-273,cs),
(110,-133,o),
(201,42,o),
(224,167,cs),
(243,276,o),
(213,476,o),
(132,640,cs),
(119,664,o),
(104,673,o),
(93,668,cs),
(84,664,o),
(81,650,o),
(92,627,cs),
(167,465,o),
(193,314,o),
(171,186,cs),
(146,44,o),
(80,-100,o),
(-63,-240,cs),
(-76,-253,o),
(-80,-267,o),
(-74,-274,cs)
);
}
);
width = 265;
},
{
layerId = m002;
shapes = (
{
closed = 1;
nodes = (
(-73,-289,o),
(-36,-291,o),
(-15,-270,cs),
(131,-132,o),
(220,41,o),
(243,164,cs),
(261,274,o),
(233,469,o),
(153,631,cs),
(132,669,o),
(103,679,o),
(81,669,cs),
(63,660,o),
(51,640,o),
(68,601,cs),
(139,448,o),
(163,309,o),
(142,190,cs),
(119,56,o),
(58,-76,o),
(-74,-207,cs),
(-94,-225,o),
(-104,-249,o),
(-89,-267,cs)
);
}
);
width = 317;
}
);
metricRight = O;
unicode = 41;
},
{
glyphname = braceleft;
lastChange = "2022-02-24 16:20:08 +0000";
layers = (
{
layerId = m01;
shapes = (
{
closed = 1;
nodes = (
(146,237,o),
(159,268,o),
(167,312,cs),
(176,365,o),
(161,476,o),
(181,535,cs),
(200,585,o),
(245,606,o),
(277,617,cs),
(290,622,o),
(294,631,o),
(290,642,cs),
(285,655,o),
(268,649,o),
(255,644,cs),
(226,630,o),
(168,603,o),
(149,551,cs),
(127,489,o),
(140,376,o),
(130,318,cs),
(123,290,o),
(111,265,o),
(86,241,cs),
(73,229,o),
(63,222,o),
(61,206,c),
(105,198,l)
);
},
{
closed = 1;
nodes = (
(147,-290,o),
(139,-281,o),
(129,-271,cs),
(102,-244,o),
(83,-211,o),
(81,-157,cs),
(79,-94,o),
(125,10,o),
(131,64,cs),
(136,108,o),
(132,145,o),
(105,198,c),
(61,206,l),
(61,188,o),
(68,179,o),
(76,163,cs),
(92,130,o),
(97,101,o),
(94,72,cs),
(87,15,o),
(42,-93,o),
(45,-159,cs),
(48,-216,o),
(83,-266,o),
(108,-293,cs),
(119,-305,o),
(131,-309,o),
(139,-299,cs)
);
}
);
width = 225;
},
{
layerId = m002;
shapes = (
{
closed = 1;
nodes = (
(235,219,o),
(250,255,o),
(259,302,cs),
(268,357,o),
(253,462,o),
(271,514,cs),
(287,555,o),
(321,570,o),
(350,579,cs),
(373,588,o),
(385,608,o),
(375,631,cs),
(365,659,o),
(332,655,o),
(309,645,cs),
(280,632,o),
(214,602,o),
(193,543,cs),
(171,478,o),
(183,369,o),
(174,316,cs),
(168,291,o),
(158,273,o),
(139,254,cs),
(118,235,o),
(103,224,o),
(107,187,c),
(183,173,l)
);
},
{
closed = 1;
nodes = (
(244,-272,o),
(232,-256,o),
(217,-239,cs),
(193,-215,o),
(178,-191,o),
(176,-143,cs),
(175,-87,o),
(219,12,o),
(224,66,cs),
(230,114,o),
(224,155,o),
(193,216,c),
(110,232,l),
(101,186,o),
(115,172,o),
(125,153,cs),
(138,126,o),
(142,103,o),
(139,79,cs),
(132,26,o),
(89,-79,o),
(92,-147,cs),
(95,-207,o),
(132,-260,o),
(159,-289,cs),
(182,-315,o),
(213,-312,o),
(227,-293,cs)
);
}
);
width = 292;
}
);
metricLeft = N;
unicode = 123;
},
{
glyphname = braceright;
lastChange = "2022-02-24 16:20:08 +0000";
layers = (
{
layerId = m01;
shapes = (
{
closed = 1;
nodes = (
(-12,-265,o),
(38,-229,o),
(59,-176,cs),
(84,-115,o),
(76,2,o),
(88,58,cs),
(95,87,o),
(109,112,o),
(135,138,cs),
(148,151,o),
(157,157,o),
(163,174,c),
(119,181,l),
(76,140,o),
(60,106,o),
(51,63,cs),
(39,10,o),
(48,-104,o),
(26,-163,cs),
(6,-213,o),
(-22,-238,o),
(-57,-255,cs),
(-69,-261,o),
(-80,-267,o),
(-75,-278,cs),
(-71,-290,o),
(-58,-290,o),
(-44,-282,cs)
);
},
{
closed = 1;
nodes = (
(166,190,o),
(159,200,o),
(151,215,cs),
(135,246,o),
(132,274,o),
(134,303,cs),
(144,361,o),
(193,463,o),
(192,529,cs),
(191,584,o),
(145,629,o),
(122,651,cs),
(111,660,o),
(97,672,o),
(88,661,cs),
(81,652,o),
(82,642,o),
(93,633,cs),
(119,612,o),
(155,578,o),
(157,524,cs),
(156,462,o),
(106,362,o),
(97,309,cs),
(90,265,o),
(93,231,o),
(119,181,c),
(163,174,l)
);
}
);
width = 218;
},
{
layerId = m002;
shapes = (
{
closed = 1;
nodes = (
(8,-263,o),
(60,-225,o),
(82,-169,cs),
(108,-106,o),
(100,8,o),
(111,58,cs),
(118,84,o),
(128,103,o),
(150,125,cs),
(164,140,o),
(182,148,o),
(188,193,c),
(108,205,l),
(55,157,o),
(37,119,o),
(27,73,cs),
(15,18,o),
(23,-89,o),
(4,-141,cs),
(-14,-185,o),
(-34,-203,o),
(-63,-217,cs),
(-88,-230,o),
(-101,-244,o),
(-94,-265,cs),
(-87,-290,o),
(-54,-299,o),
(-26,-281,c)
);
},
{
closed = 1;
nodes = (
(192,185,o),
(183,200,o),
(170,223,cs),
(157,249,o),
(154,271,o),
(156,296,c),
(166,350,o),
(213,448,o),
(212,515,cs),
(211,576,o),
(162,625,o),
(137,648,cs),
(116,666,o),
(85,680,o),
(67,655,cs),
(52,636,o),
(54,616,o),
(76,598,cs),
(99,580,o),
(126,554,o),
(128,511,cs),
(127,455,o),
(80,361,o),
(70,307,cs),
(63,259,o),
(67,220,o),
(100,161,c),
(177,150,l)
);
}
);
width = 285;
}
);
metricRight = N;
unicode = 125;
},
{
glyphname = bracketleft;
lastChange = "2022-02-24 16:17:34 +0000";
layers = (
{
layerId = m01;
shapes = (
{
closed = 1;
nodes = (
(-32,-300,o),
(-30,-283,o),
(-28,-273,cs),
(129,618,ls),
(132,636,o),
(132,650,o),
(111,650,cs),
(90,650,o),
(82,639,o),
(79,623,cs),
(-79,-273,ls),
(-82,-288,o),
(-74,-300,o),
(-54,-300,cs)
);
},
{
closed = 1;
nodes = (
(88,-300,ls),
(105,-300,o),
(114,-288,o),
(114,-277,cs),
(114,-266,o),
(106,-255,o),
(88,-255,cs),
(-51,-255,l),
(-57,-300,l)
);
},
{
closed = 1;
nodes = (
(247,605,ls),
(264,605,o),
(273,616,o),
(274,627,cs),
(275,638,o),
(266,650,o),
(247,650,cs),
(109,650,l),
(104,605,l)
);
}
);
width = 194;
},
{
layerId = m002;
shapes = (
{
closed = 1;
nodes = (
(-15,-303,o),
(-3,-282,o),
(2,-259,cs),
(153,596,ls),
(160,641,o),
(137,653,o),
(110,653,cs),
(80,653,o),
(61,637,o),
(55,609,cs),
(-97,-251,ls),
(-103,-279,o),
(-82,-303,o),
(-48,-303,cs)
);
},
{
closed = 1;
nodes = (
(88,-303,ls),
(118,-303,o),
(138,-282,o),
(138,-259,cs),
(138,-235,o),
(119,-216,o),
(88,-216,cs),
(-67,-216,l),
(-79,-303,l)
);
},
{
closed = 1;
nodes = (
(241,566,ls),
(269,566,o),
(290,584,o),
(292,607,cs),
(294,633,o),
(270,653,o),
(241,653,cs),
(86,653,l),
(76,566,l)
);
}
);
width = 194;
}
);
unicode = 91;
},
{
glyphname = bracketright;
lastChange = "2022-02-24 16:17:54 +0000";
layers = (
{
layerId = m01;
shapes = (
{
closed = 1;
nodes = (
(105,-300,o),
(112,-289,o),
(115,-273,cs),
(273,623,ls),
(276,638,o),
(268,650,o),
(248,650,cs),
(226,650,o),
(224,634,o),
(222,624,cs),
(65,-268,ls),
(62,-286,o),
(62,-300,o),
(83,-300,c)
);
},
{
closed = 1;
nodes = (
(86,-300,l),
(93,-255,l),
(-52,-255,ls),
(-69,-255,o),
(-79,-266,o),
(-79,-277,cs),
(-79,-289,o),
(-71,-300,o),
(-52,-300,cs)
);
},
{
closed = 1;
nodes = (
(244,605,l),
(252,650,l),
(107,650,ls),
(89,650,o),
(80,638,o),
(80,627,cs),
(80,616,o),
(89,605,o),
(107,605,cs)
);
}
);
width = 194;
},
{
layerId = m002;
shapes = (
{
closed = 1;
nodes = (
(115,-303,o),
(133,-287,o),
(139,-259,cs),
(291,601,ls),
(297,629,o),
(276,653,o),
(242,653,cs),
(208,653,o),
(197,632,o),
(192,610,cs),
(41,-246,ls),
(34,-291,o),
(57,-303,o),
(84,-303,cs)
);
},
{
closed = 1;
nodes = (
(108,-303,l),
(122,-216,l),
(-46,-216,ls),
(-75,-216,o),
(-97,-235,o),
(-97,-259,cs),
(-97,-283,o),
(-77,-303,o),
(-46,-303,cs)
);
},
{
closed = 1;
nodes = (
(259,566,l),
(275,653,l),
(107,653,ls),
(76,653,o),
(56,632,o),
(56,609,cs),
(56,585,o),
(76,566,o),
(107,566,cs)
);
}
);
width = 194;
}
);
unicode = 93;
},
{
glyphname = quotedbl;
lastChange = "2022-02-24 16:12:01 +0000";
layers = (
{
layerId = m01;
shapes = (
{
closed = 1;
nodes = (
(151,500,o),
(165,508,o),
(168,524,cs),
(185,620,ls),
(189,640,o),
(176,650,o),
(163,650,cs),
(151,650,o),
(137,641,o),
(134,624,cs),
(117,528,ls),
(114,510,o),
(126,500,o),
(139,500,cs)
);
},
{
closed = 1;
nodes = (
(260,500,o),
(274,507,o),
(276,521,cs),
(293,620,ls),
(296,640,o),
(284,650,o),
(270,650,cs),
(258,650,o),
(246,642,o),
(243,628,cs),
(225,528,ls),
(222,509,o),
(234,500,o),
(248,500,cs)
);
}
);
width = 270;
},
{
layerId = m002;
shapes = (
{
closed = 1;
nodes = (
(196,500,o),
(210,508,o),
(213,524,cs),
(230,620,ls),
(234,640,o),
(221,650,o),
(208,650,cs),
(196,650,o),
(182,641,o),
(179,624,cs),
(162,528,ls),
(159,510,o),
(171,500,o),
(184,500,cs)
);
},
{
closed = 1;
nodes = (
(305,500,o),
(319,507,o),
(321,521,cs),
(338,620,ls),
(341,640,o),
(329,650,o),
(315,650,cs),
(303,650,o),
(291,642,o),
(288,628,cs),
(270,528,ls),
(267,509,o),
(279,500,o),
(293,500,cs)
);
}
);
width = 360;
}
);
metricLeft = N;
metricRight = N;
unicode = 34;
},
{
glyphname = quotesingle;
lastChange = "2022-02-24 16:12:01 +0000";
layers = (
{
layerId = m01;
shapes = (
{
closed = 1;
nodes = (
(152,500,o),
(166,507,o),
(168,521,cs),
(185,620,ls),
(188,640,o),
(176,650,o),
(162,650,cs),
(150,650,o),
(138,642,o),
(135,628,cs),
(117,528,ls),
(114,509,o),
(126,500,o),
(140,500,cs)
);
}
);
width = 162;
},
{
layerId = m002;
shapes = (
{
closed = 1;
nodes = (
(197,500,o),
(211,507,o),
(213,521,cs),
(230,620,ls),
(233,640,o),
(221,650,o),
(207,650,cs),
(195,650,o),
(183,642,o),
(180,628,cs),
(162,528,ls),
(159,509,o),
(171,500,o),
(185,500,cs)
);
}
);
width = 252;
}
);
metricLeft = N;
metricRight = N;
unicode = 39;
},
{
glyphname = at;
lastChange = "2022-02-24 16:20:08 +0000";
layers = (
{
layerId = m01;
shapes = (
{
closed = 1;
nodes = (
(277,-118,o),
(319,-105,o),
(352,-84,cs),
(390,-60,o),
(398,-36,o),
(387,-22,cs),
(379,-11,o),
(366,-15,o),
(345,-29,cs),
(301,-60,o),
(256,-68,o),
(219,-68,cs),
(108,-68,o),
(74,4,o),
(93,123,cs),
(104,192,o),
(133,317,o),
(212,375,cs),
(258,409,o),
(347,426,o),
(431,426,cs),
(553,426,o),
(618,379,o),
(604,256,cs),
(599,214,o),
(582,166,o),
(553,125,c),
(594,98,l),
(632,153,o),
(647,204,o),
(651,238,cs),
(673,403,o),
(590,476,o),
(433,476,cs),
(343,476,o),
(243,458,o),
(186,418,cs),
(98,356,o),
(55,228,o),
(42,124,cs),
(23,-20,o),
(76,-118,o),
(223,-118,cs)
);
},
{
closed = 1;
nodes = (
(279,0,o),
(328,49,o),
(370,101,cs),
(418,162,o),
(466,239,o),
(489,291,cs),
(493,300,l),
(448,300,l),
(420,253,o),
(387,204,o),
(346,152,cs),
(285,76,o),
(248,46,o),
(229,46,cs),
(215,46,o),
(215,61,o),
(215,77,cs),
(215,115,o),
(233,205,o),
(259,244,cs),
(289,289,o),
(340,299,o),
(374,299,cs),
(381,299,o),
(449,299,o),
(457,299,c),
(468,299,l),
(468,301,o),
(468,346,o),
(468,349,c),
(456,349,o),
(394,349,o),
(374,349,cs),
(317,349,o),
(258,332,o),
(220,275,cs),
(188,227,o),
(165,130,o),
(165,72,cs),
(165,21,o),
(188,0,o),
(221,0,cs)
);
},
{
closed = 1;
nodes = (
(519,0,o),
(563,54,o),
(599,105,c),
(560,135,l),
(531,92,o),
(487,48,o),
(471,48,cs),
(460,48,o),
(463,66,o),
(463,78,cs),
(463,93,o),
(468,124,o),
(469,132,cs),
(504,327,ls),
(507,343,o),
(501,349,o),
(486,349,cs),
(456,349,l),
(420,146,ls),
(416,122,o),
(413,95,o),
(413,75,cs),
(413,26,o),
(430,0,o),
(466,0,cs)
);
}
);
width = 688;
},
{
layerId = m002;
shapes = (
{
closed = 1;
nodes = (
(270,-104,o),
(313,-91,o),
(344,-71,cs),
(394,-40,o),
(399,-8,o),
(383,13,cs),
(369,35,o),
(342,34,o),
(310,13,cs),
(275,-11,o),
(244,-16,o),
(214,-16,cs),
(134,-16,o),
(113,28,o),
(128,127,cs),
(138,186,o),
(162,288,o),
(223,333,cs),
(260,361,o),
(330,374,o),
(401,374,cs),
(499,374,o),
(539,345,o),
(528,249,cs),
(524,208,o),
(506,164,o),
(474,126,c),
(550,77,l),
(598,136,o),
(615,193,o),
(619,228,cs),
(641,388,o),
(555,462,o),
(403,462,cs),
(320,462,o),
(225,446,o),
(171,407,cs),
(84,346,o),
(45,227,o),
(34,134,cs),
(16,-4,o),
(70,-104,o),
(218,-104,cs)
);
},
{
closed = 1;
nodes = (
(279,-1,o),
(329,51,o),
(367,96,cs),
(410,152,o),
(455,223,o),
(475,269,cs),
(491,307,l),
(401,307,l),
(374,262,o),
(344,217,o),
(306,169,cs),
(253,103,o),
(230,84,o),
(223,84,cs),
(236,84,o),
(236,84,o),
(236,89,cs),
(236,121,o),
(251,194,o),
(270,224,cs),
(292,257,o),
(324,263,o),
(351,263,cs),
(357,263,o),
(417,263,o),
(424,263,cs),
(458,263,l),
(458,287,o),
(458,329,o),
(458,351,c),
(435,351,o),
(370,351,o),
(351,351,cs),
(296,351,o),
(233,333,o),
(194,275,cs),
(163,228,o),
(142,139,o),
(142,85,cs),
(142,25,o),
(175,-1,o),
(216,-1,cs)
);
},
{
closed = 1;
nodes = (
(500,-1,o),
(549,72,o),
(582,119,c),
(506,174,l),
(481,127,o),
(440,86,o),
(436,86,cs),
(370,86,o),
(454,20,o),
(454,90,cs),
(454,102,o),
(458,128,o),
(459,134,cs),
(490,305,ls),
(496,333,o),
(477,351,o),
(449,351,cs),
(402,351,l),
(366,153,ls),
(363,132,o),
(360,106,o),
(360,87,cs),
(360,27,o),
(389,-1,o),
(432,-1,cs)
);
}
);
width = 648;
}
);
metricLeft = o;
metricRight = "=o-5";
unicode = 64;
},
{
glyphname = ampersand;
lastChange = "2022-02-24 16:12:01 +0000";
layers = (
{
layerId = m01;
shapes = (
{
closed = 1;
nodes = (
(304,-4,o),
(343,56,o),
(411,169,c),
(419,181,o),
(415,195,o),
(403,201,cs),
(391,208,o),
(375,203,o),
(366,190,c),
(305,96,o),
(283,46,o),
(214,46,cs),
(140,46,o),
(91,103,o),
(102,164,cs),
(110,205,o),
(145,249,o),
(196,285,c),
(382,14,ls),
(389,4,o),
(407,-7,o),
(422,4,cs),
(435,14,o),
(432,29,o),
(424,41,cs),
(234,317,l),
(165,324,l),
(104,279,o),
(63,227,o),
(54,178,cs),
(40,103,o),
(94,-4,o),
(214,-4,cs)
);
},
{
closed = 1;
nodes = (
(218,335,l),
(199,363,o),
(154,424,o),
(154,455,cs),
(154,487,o),
(200,518,o),
(257,518,cs),
(301,518,o),
(318,500,o),
(322,486,cs),
(331,449,o),
(259,383,o),
(158,319,c),
(234,309,l),
(321,371,o),
(388,432,o),
(368,500,cs),
(355,547,o),
(310,568,o),
(257,568,cs),
(169,568,o),
(104,510,o),
(104,453,cs),
(104,403,o),
(153,342,o),
(175,309,c)
);
}
);
width = 498;
},
{
layerId = m002;
shapes = (
{
closed = 1;
nodes = (
(341,-4,o),
(380,56,o),
(448,169,c),
(456,181,o),
(452,195,o),
(440,201,cs),
(428,208,o),
(412,203,o),
(403,190,c),
(342,96,o),
(320,46,o),
(251,46,cs),
(177,46,o),
(128,103,o),
(139,164,cs),
(147,205,o),
(182,249,o),
(233,285,c),
(419,14,ls),
(426,4,o),
(444,-7,o),
(459,4,cs),
(472,14,o),
(469,29,o),
(461,41,cs),
(271,317,l),
(202,324,l),
(141,279,o),
(100,227,o),
(91,178,cs),
(77,103,o),
(131,-4,o),
(251,-4,cs)
);
},
{
closed = 1;
nodes = (
(255,335,l),
(236,363,o),
(191,424,o),
(191,455,cs),
(191,487,o),
(237,518,o),
(294,518,cs),
(338,518,o),
(355,500,o),
(359,486,cs),
(368,449,o),
(296,383,o),
(195,319,c),
(271,309,l),
(358,371,o),
(425,432,o),
(405,500,cs),
(392,547,o),
(347,568,o),
(294,568,cs),
(206,568,o),
(141,510,o),
(141,453,cs),
(141,403,o),
(190,342,o),
(212,309,c)
);
}
);
width = 567;
}
);
metricLeft = O;
metricRight = O;
unicode = 38;
},
{
glyphname = degree;
lastChange = "2022-02-24 16:11:23 +0000";
layers = (
{
layerId = m01;
shapes = (
{
closed = 1;
nodes = (
(190,439,o),
(254,535,o),
(254,596,cs),
(254,632,o),
(233,651,o),
(191,651,cs),
(156,651,o),
(132,628,o),
(117,603,cs),
(107,582,o),
(90,543,o),
(90,497,cs),
(90,453,o),
(105,439,o),
(129,439,cs)
);
},
{
closed = 1;
nodes = (
(119,468,o),
(119,487,o),
(119,504,cs),
(119,532,o),
(131,562,o),
(146,591,cs),
(158,612,o),
(170,621,o),
(189,621,cs),
(213,621,o),
(224,612,o),
(224,589,cs),
(224,550,o),
(170,468,o),
(136,468,cs)
);
}
);
width = 211;
},
{
layerId = m002;
shapes = (
{
closed = 1;
nodes = (
(190,439,o),
(254,535,o),
(254,596,cs),
(254,632,o),
(233,651,o),
(191,651,cs),
(156,651,o),
(132,628,o),
(117,603,cs),
(107,582,o),
(90,543,o),
(90,497,cs),
(90,453,o),
(105,439,o),
(129,439,cs)
);
},
{
closed = 1;
nodes = (
(119,468,o),
(119,487,o),
(119,504,cs),
(119,532,o),
(131,562,o),
(146,591,cs),
(158,612,o),
(170,621,o),
(189,621,cs),
(213,621,o),
(224,612,o),
(224,589,cs),
(224,550,o),
(170,468,o),
(136,468,cs)
);
}
);
width = 211;
}
);
unicode = 176;
},
{
glyphname = bar;
lastChange = "2022-02-24 16:20:08 +0000";
layers = (
{
layerId = m01;
shapes = (
{
closed = 1;
nodes = (
(22,-300,o),
(25,-285,o),
(27,-275,cs),
(193,668,ls),
(197,690,o),
(186,700,o),
(173,700,cs),
(161,700,o),
(146,690,o),
(143,672,cs),
(-24,-273,ls),
(-27,-288,o),
(-18,-300,o),
(0,-300,cs)
);
}
);
width = 161;
},
{
layerId = m002;
shapes = (
{
closed = 1;
nodes = (
(107,-302,o),
(119,-281,o),
(124,-260,c),
(284,645,ls),
(290,681,o),
(267,702,o),
(239,702,cs),
(217,702,o),
(191,685,o),
(186,657,cs),
(25,-250,ls),
(19,-278,o),
(41,-302,o),
(73,-302,cs)
);
}
);
width = 301;
}
);
metricLeft = N;
metricRight = N;
unicode = 124;
},
{
glyphname = brokenbar;
lastChange = "2022-02-24 16:15:09 +0000";
layers = (
{
layerId = m01;
shapes = (
{
closed = 1;
nodes = (
(-33,-300,o),
(-30,-285,o),
(-28,-275,cs),
(44,135,ls),
(47,152,o),
(36,162,o),
(24,162,cs),
(11,162,o),
(-4,152,o),
(-7,135,cs),
(-79,-273,ls),
(-82,-288,o),
(-73,-300,o),
(-55,-300,cs)
);
},
{
closed = 1;
nodes = (
(50,239,o),
(64,249,o),
(67,266,cs),
(138,668,ls),
(142,690,o),
(131,700,o),
(118,700,cs),
(106,700,o),
(91,690,o),
(88,672,cs),
(16,266,ls),
(13,249,o),
(24,238,o),
(37,239,cs)
);
}
);
width = 51;
},
{
layerId = m002;
shapes = (
{
closed = 1;
nodes = (
(107,-302,o),
(120,-281,o),
(124,-260,cs),
(193,134,ls),
(198,164,o),
(176,186,o),
(149,186,cs),
(126,186,o),
(99,169,o),
(94,142,cs),
(25,-250,ls),
(19,-278,o),
(41,-302,o),
(73,-302,cs)
);
},
{
closed = 1;
nodes = (
(186,216,o),
(211,233,o),
(216,259,cs),
(284,645,ls),
(290,681,o),
(267,702,o),
(239,702,cs),
(217,702,o),
(191,685,o),
(186,657,cs),
(117,267,ls),
(112,236,o),
(135,213,o),
(163,215,cs)
);
}
);
width = 301;
}
);
metricLeft = N;
metricRight = N;
unicode = 166;
},
{
glyphname = dollar;
lastChange = "2022-02-24 16:12:01 +0000";
layers = (
{
layerId = m01;
shapes = (
{
closed = 1;
nodes = (
(159,0,ls),
(257,0,o),
(431,17,o),
(431,153,cs),
(431,236,o),
(367,262,o),
(281,312,cs),
(215,350,o),
(150,381,o),
(150,425,cs),
(150,482,o),
(259,519,o),
(336,519,cs),
(479,519,ls),
(494,519,o),
(502,532,o),
(502,545,cs),
(502,557,o),
(494,569,o),
(475,569,cs),
(337,569,ls),
(205,569,o),
(100,503,o),
(100,420,cs),
(100,349,o),
(177,315,o),
(255,269,cs),
(331,225,o),
(381,206,o),
(381,152,cs),
(381,57,o),
(224,50,o),
(159,50,cs),
(56,50,ls),
(40,50,o),
(29,37,o),
(29,24,cs),
(29,12,o),
(37,0,o),
(56,0,cs)
);
},
{
closed = 1;
nodes = (
(219,-80,o),
(232,-71,o),
(235,-54,cs),
(354,618,ls),
(358,639,o),
(348,650,o),
(336,650,cs),
(325,650,o),
(312,641,o),
(309,622,cs),
(190,-52,ls),
(187,-71,o),
(197,-80,o),
(208,-80,cs)
);
}
);
width = 492;
},
{
layerId = m002;
shapes = (
{
closed = 1;
nodes = (
(204,0,ls),
(302,0,o),
(476,17,o),
(476,153,cs),
(476,236,o),
(412,262,o),
(326,312,cs),
(260,350,o),
(195,381,o),
(195,425,cs),
(195,482,o),
(304,519,o),
(381,519,cs),
(524,519,ls),
(539,519,o),
(547,532,o),
(547,545,cs),
(547,557,o),
(539,569,o),
(520,569,cs),
(382,569,ls),
(250,569,o),
(145,503,o),
(145,420,cs),
(145,349,o),
(222,315,o),
(300,269,cs),
(376,225,o),
(426,206,o),
(426,152,cs),
(426,57,o),
(269,50,o),
(204,50,cs),
(101,50,ls),
(85,50,o),
(74,37,o),
(74,24,cs),
(74,12,o),
(82,0,o),
(101,0,cs)
);
},
{
closed = 1;
nodes = (
(264,-80,o),
(277,-71,o),
(280,-54,cs),
(399,618,ls),
(403,639,o),
(393,650,o),
(381,650,cs),
(370,650,o),
(357,641,o),
(354,622,cs),
(235,-52,ls),
(232,-71,o),
(242,-80,o),
(253,-80,cs)
);
}
);
width = 582;
}
);
metricLeft = N;
metricRight = N;
unicode = 36;
},
{
glyphname = plus;
lastChange = "2022-02-24 16:21:43 +0000";
layers = (
{
layerId = m01;
shapes = (
{
closed = 1;
nodes = (
(189,57,o),
(199,64,o),
(202,80,cs),
(241,304,ls),
(244,323,o),
(232,334,o),
(220,334,cs),
(210,334,o),
(200,327,o),
(197,311,cs),
(158,87,ls),
(155,68,o),
(167,57,o),
(179,57,cs)
);
},
{
closed = 1;
nodes = (
(313,175,ls),
(331,175,o),
(340,187,o),
(340,198,cs),
(340,209,o),
(331,220,o),
(313,220,cs),
(86,220,ls),
(68,220,o),
(59,209,o),
(59,198,cs),
(59,187,o),
(68,175,o),
(86,175,cs)
);
}
);
width = 391;
},
{
layerId = m002;
shapes = (
{
closed = 1;
nodes = (
(192,41,o),
(214,54,o),
(219,81,cs),
(256,296,ls),
(261,329,o),
(238,350,o),
(211,350,cs),
(191,350,o),
(169,337,o),
(164,310,cs),
(127,95,ls),
(122,62,o),
(145,41,o),
(172,41,cs)
);
},
{
closed = 1;
nodes = (
(300,154,ls),
(331,154,o),
(351,174,o),
(351,198,cs),
(351,221,o),
(331,241,o),
(300,241,cs),
(83,241,ls),
(52,241,o),
(32,221,o),
(32,198,cs),
(32,174,o),
(52,154,o),
(83,154,cs)
);
}
);
width = 376;
}
);
metricLeft = n;
metricRight = n;
unicode = 43;
},
{
glyphname = minus;
lastChange = "2022-02-24 16:21:43 +0000";
layers = (
{
layerId = m01;
shapes = (
{
closed = 1;
nodes = (
(313,175,ls),
(331,175,o),
(340,187,o),
(340,198,cs),
(340,209,o),
(331,220,o),
(313,220,cs),
(86,220,ls),
(68,220,o),
(59,209,o),
(59,198,cs),
(59,186,o),
(68,175,o),
(86,175,cs)
);
}
);
width = 391;
},
{
layerId = m002;
shapes = (
{
closed = 1;
nodes = (
(300,154,ls),
(331,154,o),
(351,174,o),
(351,198,cs),
(351,222,o),
(331,241,o),
(300,241,cs),
(83,241,ls),
(52,241,o),
(32,222,o),
(32,198,cs),
(32,173,o),
(52,154,o),
(83,154,cs)
);
}
);
width = 376;
}
);
metricLeft = n;
metricRight = n;
unicode = 8722;
},
{
glyphname = multiply;
lastChange = "2022-02-24 16:21:43 +0000";
layers = (
{
layerId = m01;
shapes = (
{
closed = 1;
nodes = (
(55,58,o),
(70,54,o),
(86,67,cs),
(350,290,ls),
(364,302,o),
(362,317,o),
(353,325,cs),
(344,334,o),
(328,337,o),
(314,325,cs),
(48,101,ls),
(36,91,o),
(38,76,o),
(46,67,cs)
);
},
{
closed = 1;
nodes = (
(320,74,o),
(324,89,o),
(313,102,cs),
(126,321,ls),
(113,336,o),
(98,335,o),
(89,327,cs),
(80,318,o),
(76,303,o),
(86,291,cs),
(275,69,ls),
(286,56,o),
(301,58,o),
(310,66,cs)
);
}
);
width = 392;
},
{
layerId = m002;
shapes = (
{
closed = 1;
nodes = (
(42,40,o),
(74,36,o),
(100,56,cs),
(354,270,l),
(377,292,o),
(376,319,o),
(356,336,cs),
(339,351,o),
(308,355,o),
(285,337,cs),
(30,122,ls),
(8,102,o),
(8,78,o),
(24,59,cs)
);
},
{
closed = 1;
nodes = (
(334,72,o),
(339,97,o),
(319,120,cs),
(140,331,l),
(117,355,o),
(82,353,o),
(65,335,cs),
(50,317,o),
(46,294,o),
(64,273,cs),
(245,59,l),
(265,38,o),
(298,40,o),
(315,55,cs)
);
}
);
width = 377;
}
);
metricLeft = n;
metricRight = n;
unicode = 215;
},
{
glyphname = divide;
lastChange = "2022-02-24 16:21:43 +0000";
layers = (
{
layerId = m01;
shapes = (
{
closed = 1;
nodes = (
(313,175,ls),
(348,175,o),
(350,220,o),
(313,220,cs),
(86,220,ls),
(49,220,o),
(51,175,o),
(86,175,cs)
);
},
{
closed = 1;
nodes = (
(197,57,o),
(213,73,o),
(213,90,cs),
(213,108,o),
(196,122,o),
(179,122,cs),
(160,122,o),
(148,106,o),
(148,90,cs),
(148,73,o),
(161,57,o),
(179,57,cs)
);
},
{
closed = 1;
nodes = (
(235,273,o),
(251,289,o),
(251,306,cs),
(251,323,o),
(235,338,o),
(218,338,cs),
(200,338,o),
(186,322,o),
(186,306,cs),
(186,290,o),
(200,273,o),
(218,273,cs)
);
}
);
width = 391;
},
{
layerId = m002;
shapes = (
{
closed = 1;
nodes = (
(300,154,ls),
(366,154,o),
(369,241,o),
(300,241,cs),
(83,241,ls),
(14,241,o),
(17,154,o),
(83,154,cs)
);
},
{
closed = 1;
nodes = (
(202,41,o),
(229,65,o),
(229,94,cs),
(229,125,o),
(201,147,o),
(172,147,cs),
(141,147,o),
(117,123,o),
(117,94,cs),
(117,65,o),
(142,41,o),
(172,41,cs)
);
},
{
closed = 1;
nodes = (
(239,248,o),
(266,272,o),
(266,302,cs),
(266,331,o),
(239,354,o),
(209,354,cs),
(179,354,o),
(154,330,o),
(154,302,cs),
(154,273,o),
(179,248,o),
(209,248,cs)
);
}
);
width = 376;
}
);
metricLeft = n;
metricRight = n;
unicode = 247;
},
{
glyphname = equal;
lastChange = "2022-02-24 16:21:43 +0000";
layers = (
{
layerId = m01;
shapes = (
{
closed = 1;
nodes = (
(326,248,ls),
(344,248,o),
(353,260,o),
(353,271,cs),
(353,282,o),
(344,293,o),
(326,293,cs),
(99,293,ls),
(81,293,o),
(72,282,o),
(72,271,cs),
(72,260,o),
(81,248,o),
(99,248,cs)
);
},
{
closed = 1;
nodes = (
(300,97,ls),
(318,97,o),
(327,108,o),
(327,120,cs),
(327,131,o),
(318,142,o),
(300,142,cs),
(73,142,ls),
(55,142,o),
(46,131,o),
(46,120,cs),
(46,109,o),
(55,97,o),
(73,97,cs)
);
}
);
width = 392;
},
{
layerId = m002;
shapes = (
{
closed = 1;
nodes = (
(313,224,ls),
(343,224,o),
(364,244,o),
(364,268,cs),
(364,292,o),
(343,311,o),
(313,311,cs),
(95,311,ls),
(65,311,o),
(44,292,o),
(44,268,cs),
(44,244,o),
(65,224,o),
(95,224,cs)
);
},
{
closed = 1;
nodes = (
(288,79,ls),
(318,79,o),
(339,98,o),
(339,123,cs),
(339,147,o),
(318,166,o),
(288,166,cs),
(70,166,ls),
(40,166,o),
(19,147,o),
(19,123,cs),
(19,99,o),
(40,79,o),
(70,79,cs)
);
}
);
width = 377;
}
);
metricLeft = n;
metricRight = n;
unicode = 61;
},
{
glyphname = notequal;
lastChange = "2022-02-24 16:21:43 +0000";
layers = (
{
layerId = m01;
shapes = (
{
closed = 1;
nodes = (
(84,35,o),
(97,38,o),
(103,51,cs),
(224,312,ls),
(236,337,o),
(224,350,o),
(210,350,cs),
(200,350,o),
(190,345,o),
(184,333,cs),
(63,72,ls),
(55,54,o),
(63,42,o),
(74,38,cs)
);
},
{
closed = 1;
nodes = (
(245,97,ls),
(263,97,o),
(272,108,o),
(272,120,cs),
(272,131,o),
(263,142,o),
(245,142,cs),
(18,142,ls),
(0,142,o),
(-9,131,o),
(-9,120,cs),
(-9,109,o),
(0,97,o),
(18,97,cs)
);
},
{
closed = 1;
nodes = (
(271,248,ls),
(289,248,o),
(298,260,o),
(298,271,cs),
(298,282,o),
(289,293,o),
(271,293,cs),
(44,293,ls),
(26,293,o),
(17,282,o),
(17,271,cs),
(17,260,o),
(26,248,o),
(44,248,cs)
);
}
);
width = 282;
},
{
layerId = m002;
shapes = (
{
closed = 1;
nodes = (
(89,17,o),
(117,25,o),
(128,48,cs),
(244,298,ls),
(264,341,o),
(236,366,o),
(207,366,cs),
(190,366,o),
(169,356,o),
(159,337,cs),
(43,86,l),
(31,55,o),
(44,32,o),
(69,23,cs)
);
},
{
closed = 1;
nodes = (
(241,79,ls),
(271,79,o),
(292,98,o),
(292,123,cs),
(292,146,o),
(271,166,o),
(241,166,cs),
(23,166,ls),
(-7,166,o),
(-28,146,o),
(-28,123,cs),
(-28,99,o),
(-7,79,o),
(23,79,cs)
);
},
{
closed = 1;
nodes = (
(266,224,ls),
(296,224,o),
(317,244,o),
(317,268,cs),
(317,291,o),
(296,311,o),
(266,311,cs),
(48,311,ls),
(18,311,o),
(-3,291,o),
(-3,268,cs),
(-3,244,o),
(18,224,o),
(48,224,cs)
);
}
);
width = 282;
}
);
unicode = 8800;
},
{
glyphname = greater;
lastChange = "2022-02-24 16:21:43 +0000";
layers = (
{
layerId = m01;
shapes = (
{
closed = 1;
nodes = (
(300,179,l),
(274,216,l),
(59,103,ls),
(39,93,o),
(36,81,o),
(40,70,cs),
(44,60,o),
(55,50,o),
(74,60,cs)
);
},
{
closed = 1;
nodes = (
(288,171,o),
(299,176,o),
(306,186,cs),
(314,197,o),
(314,207,o),
(299,217,cs),
(122,330,ls),
(106,340,o),
(93,339,o),
(85,329,cs),
(77,318,o),
(80,304,o),
(95,294,cs),
(273,181,ls)
);
}
);
width = 360;
},
{
layerId = m002;
shapes = (
{
closed = 1;
nodes = (
(322,173,l),
(270,245,l),
(45,127,ls),
(15,112,o),
(7,92,o),
(13,70,cs),
(20,46,o),
(50,30,o),
(81,45,cs)
);
},
{
closed = 1;
nodes = (
(270,147,o),
(301,154,o),
(315,176,cs),
(328,198,o),
(325,218,o),
(300,235,cs),
(129,344,ls),
(104,359,o),
(75,355,o),
(61,337,cs),
(45,315,o),
(50,291,o),
(75,272,c),
(246,164,l)
);
}
);
width = 342;
}
);
metricLeft = n;
metricRight = o;
unicode = 62;
},
{
glyphname = less;
lastChange = "2022-02-24 16:21:43 +0000";
layers = (
{
layerId = m01;
shapes = (
{
closed = 1;
nodes = (
(306,290,ls),
(326,300,o),
(329,312,o),
(325,323,cs),
(321,333,o),
(310,343,o),
(291,333,cs),
(65,214,l),
(91,177,l)
);
},
{
closed = 1;
nodes = (
(259,53,o),
(272,54,o),
(280,64,cs),
(288,75,o),
(285,89,o),
(270,99,cs),
(92,212,ls),
(77,222,o),
(66,217,o),
(59,207,cs),
(51,196,o),
(51,186,o),
(66,176,cs),
(243,63,ls)
);
}
);
width = 357;
},
{
layerId = m002;
shapes = (
{
closed = 1;
nodes = (
(302,266,ls),
(332,281,o),
(340,301,o),
(334,323,cs),
(327,347,o),
(297,363,o),
(266,348,cs),
(25,220,l),
(77,148,l)
);
},
{
closed = 1;
nodes = (
(243,34,o),
(272,38,o),
(286,56,cs),
(302,78,o),
(297,102,o),
(272,121,c),
(101,229,l),
(77,246,o),
(46,239,o),
(32,217,cs),
(19,195,o),
(22,175,o),
(47,158,cs),
(218,49,ls)
);
}
);
width = 340;
}
);
metricLeft = o;
metricRight = n;
unicode = 60;
},
{
glyphname = greaterequal;
lastChange = "2022-02-24 16:21:43 +0000";
layers = (
{
layerId = m01;
shapes = (
{
closed = 1;
nodes = (
(299,198,o),
(310,202,o),
(317,212,cs),
(325,223,o),
(325,233,o),
(310,243,cs),
(127,360,ls),
(111,370,o),
(98,369,o),
(90,359,cs),
(82,348,o),
(85,334,o),
(100,324,cs),
(284,207,ls)
);
},
{
closed = 1;
nodes = (
(279,97,ls),
(297,97,o),
(306,108,o),
(306,120,cs),
(306,131,o),
(297,142,o),
(279,142,cs),
(75,142,ls),
(57,142,o),
(48,131,o),
(48,120,cs),
(48,109,o),
(57,97,o),
(75,97,cs)
);
},
{
closed = 1;
nodes = (
(303,202,l),
(302,248,l),
(96,248,ls),
(74,248,o),
(66,239,o),
(64,227,cs),
(63,216,o),
(68,202,o),
(90,202,cs)
);
}
);
width = 371;
},
{
layerId = m002;
shapes = (
{
closed = 1;
nodes = (
(282,174,o),
(311,181,o),
(324,200,cs),
(339,222,o),
(337,242,o),
(312,260,c),
(134,374,ls),
(106,391,o),
(78,384,o),
(66,367,cs),
(50,345,o),
(55,321,o),
(80,302,c),
(259,189,ls)
);
},
{
closed = 1;
nodes = (
(267,80,ls),
(298,80,o),
(318,100,o),
(318,124,cs),
(318,148,o),
(298,168,o),
(267,168,cs),
(71,168,ls),
(41,168,o),
(20,148,o),
(20,124,cs),
(20,101,o),
(41,80,o),
(71,80,cs)
);
},
{
closed = 1;
nodes = (
(316,181,l),
(314,269,l),
(92,269,ls),
(58,269,o),
(39,253,o),
(36,229,cs),
(34,205,o),
(51,181,o),
(86,181,cs)
);
}
);
width = 356;
}
);
metricLeft = n;
metricRight = n;
unicode = 8805;
},
{
glyphname = lessequal;
lastChange = "2022-02-24 16:21:43 +0000";
layers = (
{
layerId = m01;
shapes = (
{
closed = 1;
nodes = (
(330,324,ls),
(346,332,o),
(348,348,o),
(340,359,cs),
(332,369,o),
(320,369,o),
(303,360,cs),
(77,243,ls),
(62,235,o),
(62,223,o),
(70,212,cs),
(77,202,o),
(88,199,o),
(103,207,cs)
);
},
{
closed = 1;
nodes = (
(278,97,ls),
(296,97,o),
(305,109,o),
(305,120,cs),
(305,131,o),
(296,142,o),
(278,142,cs),
(74,142,ls),
(56,142,o),
(47,131,o),
(47,120,cs),
(47,108,o),
(56,97,o),
(74,97,cs)
);
},
{
closed = 1;
nodes = (
(297,202,ls),
(313,202,o),
(323,213,o),
(323,225,cs),
(324,236,o),
(314,248,o),
(291,248,cs),
(85,248,l),
(84,202,l)
);
}
);
width = 370;
},
{
layerId = m002;
shapes = (
{
closed = 1;
nodes = (
(329,301,ls),
(357,316,o),
(363,343,o),
(346,367,cs),
(334,384,o),
(308,390,o),
(279,374,cs),
(62,262,ls),
(34,247,o),
(30,223,o),
(46,202,cs),
(59,182,o),
(86,175,o),
(111,189,cs)
);
},
{
closed = 1;
nodes = (
(267,80,ls),
(297,80,o),
(318,101,o),
(318,124,cs),
(318,148,o),
(297,168,o),
(267,168,cs),
(71,168,ls),
(41,168,o),
(20,148,o),
(20,124,cs),
(20,100,o),
(41,80,o),
(71,80,cs)
);
},
{
closed = 1;
nodes = (
(285,181,ls),
(313,181,o),
(335,201,o),
(335,224,cs),
(337,251,o),
(311,269,o),
(279,269,cs),
(56,269,l),
(54,181,l)
);
}
);
width = 355;
}
);
metricLeft = n;
metricRight = n;
unicode = 8804;
},
{
glyphname = plusminus;
lastChange = "2022-02-24 16:21:43 +0000";
layers = (
{
layerId = m01;
shapes = (
{
closed = 1;
nodes = (
(139,166,o),
(149,173,o),
(152,189,cs),
(180,345,ls),
(183,364,o),
(171,375,o),
(159,375,cs),
(149,375,o),
(139,368,o),
(136,352,cs),
(108,196,ls),
(105,177,o),
(117,166,o),
(129,166,cs)
);
},
{
closed = 1;
nodes = (
(215,97,ls),
(233,97,o),
(242,108,o),
(242,120,cs),
(242,131,o),
(233,142,o),
(215,142,cs),
(18,142,ls),
(0,142,o),
(-9,131,o),
(-9,120,cs),
(-9,109,o),
(0,97,o),
(18,97,cs)
);
},
{
closed = 1;
nodes = (
(241,248,ls),
(259,248,o),
(268,260,o),
(268,271,cs),
(268,282,o),
(259,293,o),
(241,293,cs),
(44,293,ls),
(26,293,o),
(17,282,o),
(17,271,cs),
(17,260,o),
(26,248,o),
(44,248,cs)
);
}
);
width = 252;
},
{
layerId = m002;
shapes = (
{
closed = 1;
nodes = (
(150,147,o),
(170,161,o),
(176,187,cs),
(203,337,ls),
(208,370,o),
(184,391,o),
(158,391,cs),
(137,391,o),
(116,378,o),
(111,351,cs),
(84,202,ls),
(79,168,o),
(103,147,o),
(129,147,cs)
);
},
{
closed = 1;
nodes = (
(212,81,ls),
(242,81,o),
(263,100,o),
(263,125,cs),
(263,148,o),
(242,168,o),
(212,168,cs),
(22,168,ls),
(-8,168,o),
(-28,148,o),
(-28,125,cs),
(-28,101,o),
(-8,81,o),
(22,81,cs)
);
},
{
closed = 1;
nodes = (
(237,226,ls),
(267,226,o),
(287,246,o),
(287,270,cs),
(287,293,o),
(267,313,o),
(237,313,cs),
(47,313,ls),
(17,313,o),
(-3,293,o),
(-3,270,cs),
(-3,246,o),
(17,226,o),
(47,226,cs)
);
}
);
width = 252;
}
);
unicode = 177;
},
{
glyphname = approxequal;
lastChange = "2022-02-24 16:21:43 +0000";
layers = (
{
layerId = m01;
shapes = (
{
closed = 1;
nodes = (
(231,227,o),
(251,237,o),
(272,246,cs),
(290,254,o),
(298,260,o),
(298,271,cs),
(298,282,o),
(286,302,o),
(269,294,cs),
(250,285,o),
(237,272,o),
(207,272,cs),
(179,272,o),
(136,310,o),
(105,310,cs),
(79,310,o),
(62,301,o),
(44,294,cs),
(26,287,o),
(17,282,o),
(17,271,cs),
(17,259,o),
(27,238,o),
(45,246,cs),
(60,253,o),
(74,265,o),
(97,265,cs),
(128,265,o),
(171,227,o),
(199,227,cs)
);
},
{
closed = 1;
nodes = (
(205,76,o),
(225,86,o),
(246,95,cs),
(264,103,o),
(272,109,o),
(272,120,cs),
(272,131,o),
(260,151,o),
(243,143,cs),
(224,134,o),
(211,121,o),
(181,121,cs),
(153,121,o),
(110,159,o),
(79,159,cs),
(53,159,o),
(36,150,o),
(18,143,cs),
(0,136,o),
(-9,131,o),
(-9,120,cs),
(-9,108,o),
(1,87,o),
(19,95,cs),
(34,102,o),
(48,114,o),
(71,114,cs),
(102,114,o),
(145,76,o),
(173,76,cs)
);
}
);
width = 282;
},
{
layerId = m002;
shapes = (
{
closed = 1;
nodes = (
(234,204,o),
(259,216,o),
(277,224,cs),
(305,237,o),
(317,248,o),
(317,268,cs),
(317,296,o),
(285,326,o),
(253,310,cs),
(229,298,o),
(224,291,o),
(205,291,cs),
(188,291,o),
(146,327,o),
(107,327,cs),
(76,327,o),
(54,317,o),
(38,310,cs),
(11,299,o),
(-3,288,o),
(-3,268,cs),
(-3,236,o),
(29,209,o),
(60,224,cs),
(78,233,o),
(86,240,o),
(99,240,cs),
(119,240,o),
(160,204,o),
(197,204,cs)
);
},
{
closed = 1;
nodes = (
(209,59,o),
(234,71,o),
(252,79,cs),
(280,92,o),
(292,103,o),
(292,123,cs),
(292,151,o),
(260,181,o),
(228,165,cs),
(204,153,o),
(199,146,o),
(180,146,cs),
(163,146,o),
(121,182,o),
(82,182,cs),
(51,182,o),
(29,172,o),
(13,165,cs),
(-14,154,o),
(-28,143,o),
(-28,123,cs),
(-28,91,o),
(4,64,o),
(35,79,cs),
(53,88,o),
(61,95,o),
(74,95,cs),
(94,95,o),
(135,59,o),
(172,59,cs)
);
}
);
width = 282;
}
);
unicode = 8776;
},
{
glyphname = asciicircum;
lastChange = "2022-02-24 16:12:01 +0000";
layers = (
{
layerId = m01;
shapes = (
{
closed = 1;
nodes = (
(131,488,o),
(146,484,o),
(162,497,cs),
(293,607,ls),
(307,619,o),
(305,634,o),
(296,642,cs),
(287,651,o),
(271,654,o),
(257,642,cs),
(124,531,ls),
(112,521,o),
(114,506,o),
(122,497,cs)
);
},
{
closed = 1;
nodes = (
(396,504,o),
(399,520,o),
(389,532,cs),
(297,641,l),
(258,609,l),
(351,499,ls),
(362,486,o),
(377,488,o),
(386,496,cs)
);
}
);
width = 391;
},
{
layerId = m002;
shapes = (
{
closed = 1;
nodes = (
(176,488,o),
(191,484,o),
(207,497,cs),
(338,607,ls),
(352,619,o),
(350,634,o),
(341,642,cs),
(332,651,o),
(316,654,o),
(302,642,cs),
(169,531,ls),
(157,521,o),
(159,506,o),
(167,497,cs)
);
},
{
closed = 1;
nodes = (
(441,504,o),
(444,520,o),
(434,532,cs),
(342,641,l),
(303,609,l),
(396,499,ls),
(407,486,o),
(422,488,o),
(431,496,cs)
);
}
);
width = 481;
}
);
metricLeft = N;
metricRight = N;
unicode = 94;
},
{
glyphname = infinity;
lastChange = "2022-02-24 16:11:23 +0000";
layers = (
{
layerId = m01;
shapes = (
{
closed = 1;
nodes = (
(484,136,o),
(581,176,o),
(599,278,cs),
(616,374,o),
(544,416,o),
(487,426,cs),
(435,435,o),
(357,423,o),
(277,346,c),
(269,280,l),
(280,263,ls),
(313,213,o),
(362,157,o),
(420,147,cs)
);
},
{
closed = 1;
nodes = (
(132,138,o),
(209,207,o),
(278,277,c),
(280,347,l),
(221,281,o),
(110,190,o),
(85,194,cs),
(66,197,o),
(65,258,o),
(72,294,cs),
(79,334,o),
(103,389,o),
(159,379,cs),
(200,372,o),
(228,334,o),
(246,308,c),
(279,346,l),
(257,376,o),
(228,419,o),
(173,428,cs),
(87,444,o),
(33,365,o),
(21,293,cs),
(10,235,o),
(23,157,o),
(76,148,cs)
);
},
{
closed = 1;
nodes = (
(389,204,o),
(349,253,o),
(320,294,cs),
(311,308,l),
(377,374,o),
(433,386,o),
(471,379,cs),
(520,370,o),
(558,330,o),
(550,281,cs),
(540,225,o),
(473,190,o),
(429,197,cs)
);
}
);
width = 581;
},
{
layerId = m002;
shapes = (
{
closed = 1;
nodes = (
(484,136,o),
(581,176,o),
(599,278,cs),
(616,374,o),
(544,416,o),
(487,426,cs),
(435,435,o),
(357,423,o),
(277,346,c),
(269,280,l),
(280,263,ls),
(313,213,o),
(362,157,o),
(420,147,cs)
);
},
{
closed = 1;
nodes = (
(132,138,o),
(209,207,o),
(278,277,c),
(280,347,l),
(221,281,o),
(110,190,o),
(85,194,cs),
(66,197,o),
(65,258,o),
(72,294,cs),
(79,334,o),
(103,389,o),
(159,379,cs),
(200,372,o),
(228,334,o),
(246,308,c),
(279,346,l),
(257,376,o),
(228,419,o),
(173,428,cs),
(87,444,o),
(33,365,o),
(21,293,cs),
(10,235,o),
(23,157,o),
(76,148,cs)
);
},
{
closed = 1;
nodes = (
(389,204,o),
(349,253,o),
(320,294,cs),
(311,308,l),
(377,374,o),
(433,386,o),
(471,379,cs),
(520,370,o),
(558,330,o),
(550,281,cs),
(540,225,o),
(473,190,o),
(429,197,cs)
);
}
);
width = 581;
}
);
unicode = 8734;
},
{
glyphname = percent;
lastChange = "2022-02-24 16:11:23 +0000";
layers = (
{
layerId = m01;
shapes = (
{
closed = 1;
nodes = (
(414,534,ls),
(423,555,o),
(408,568,o),
(393,568,cs),
(382,568,o),
(371,562,o),
(364,545,cs),
(142,31,ls),
(129,0,o),
(177,-15,o),
(192,20,cs)
);
},
{
closed = 1;
nodes = (
(426,0,o),
(516,136,o),
(516,223,cs),
(516,273,o),
(486,300,o),
(427,300,cs),
(377,300,o),
(344,268,o),
(323,232,cs),
(309,203,o),
(284,147,o),
(284,83,cs),
(284,20,o),
(305,0,o),
(339,0,cs)
);
},
{
closed = 1;
nodes = (
(326,42,o),
(326,69,o),
(326,92,cs),
(326,132,o),
(343,175,o),
(363,215,cs),
(380,245,o),
(398,257,o),
(424,257,cs),
(458,257,o),
(473,245,o),
(473,212,cs),
(473,157,o),
(398,42,o),
(349,42,cs)
);
},
{
closed = 1;
nodes = (
(196,268,o),
(286,404,o),
(286,491,cs),
(286,541,o),
(256,568,o),
(197,568,cs),
(147,568,o),
(114,536,o),
(93,500,cs),
(79,471,o),
(54,415,o),
(54,351,cs),
(54,288,o),
(75,268,o),
(109,268,cs)
);
},
{
closed = 1;
nodes = (
(96,310,o),
(96,337,o),
(96,360,cs),
(96,400,o),
(113,443,o),
(133,483,cs),
(150,513,o),
(168,525,o),
(194,525,cs),
(228,525,o),
(243,513,o),
(243,480,cs),
(243,425,o),
(168,310,o),
(119,310,cs)
);
}
);
width = 552;
},
{
layerId = m002;
shapes = (
{
closed = 1;
nodes = (
(414,534,ls),
(423,555,o),
(408,568,o),
(393,568,cs),
(382,568,o),
(371,562,o),
(364,545,cs),
(142,31,ls),
(129,0,o),
(177,-15,o),
(192,20,cs)
);
},
{
closed = 1;
nodes = (
(426,0,o),
(516,136,o),
(516,223,cs),
(516,273,o),
(486,300,o),
(427,300,cs),
(377,300,o),
(344,268,o),
(323,232,cs),
(309,203,o),
(284,147,o),
(284,83,cs),
(284,20,o),
(305,0,o),
(339,0,cs)
);
},
{
closed = 1;
nodes = (
(326,42,o),
(326,69,o),
(326,92,cs),
(326,132,o),
(343,175,o),
(363,215,cs),
(380,245,o),
(398,257,o),
(424,257,cs),
(458,257,o),
(473,245,o),
(473,212,cs),
(473,157,o),
(398,42,o),
(349,42,cs)
);
},
{
closed = 1;
nodes = (
(196,268,o),
(286,404,o),
(286,491,cs),
(286,541,o),
(256,568,o),
(197,568,cs),
(147,568,o),
(114,536,o),
(93,500,cs),
(79,471,o),
(54,415,o),
(54,351,cs),
(54,288,o),
(75,268,o),
(109,268,cs)
);
},
{
closed = 1;
nodes = (
(96,310,o),
(96,337,o),
(96,360,cs),
(96,400,o),
(113,443,o),
(133,483,cs),
(150,513,o),
(168,525,o),
(194,525,cs),
(228,525,o),
(243,513,o),
(243,480,cs),
(243,425,o),
(168,310,o),
(119,310,cs)
);
}
);
width = 552;
}
);
unicode = 37;
},
{
glyphname = grave;
lastChange = "2022-02-24 16:11:23 +0000";
layers = (
{
layerId = m01;
shapes = (
{
closed = 1;
nodes = (
(216,563,o),
(220,573,o),
(214,587,cs),
(170,683,ls),
(164,696,o),
(152,701,o),
(141,701,cs),
(125,700,o),
(112,686,o),
(124,664,cs),
(176,572,ls),
(185,557,o),
(199,554,o),
(208,559,cs)
);
}
);
width = 177;
},
{
layerId = m002;
shapes = (
{
closed = 1;
nodes = (
(216,563,o),
(220,573,o),
(214,587,cs),
(170,683,ls),
(164,696,o),
(152,701,o),
(141,701,cs),
(125,700,o),
(112,686,o),
(124,664,cs),
(176,572,ls),
(185,557,o),
(199,554,o),
(208,559,cs)
);
}
);
width = 177;
}
);
unicode = 96;
},
{
glyphname = tilde;
lastChange = "2022-02-24 16:12:01 +0000";
layers = (
{
layerId = m01;
shapes = (
{
closed = 1;
nodes = (
(274,158,o),
(294,168,o),
(315,177,cs),
(333,185,o),
(341,191,o),
(341,202,cs),
(341,213,o),
(329,233,o),
(312,225,cs),
(293,216,o),
(280,203,o),
(250,203,cs),
(222,203,o),
(179,241,o),
(148,241,cs),
(122,241,o),
(105,232,o),
(87,225,cs),
(69,218,o),
(60,213,o),
(60,202,cs),
(60,190,o),
(70,169,o),
(88,177,cs),
(103,184,o),
(117,196,o),
(140,196,cs),
(171,196,o),
(214,158,o),
(242,158,cs)
);
}
